<?xml version="1.0" encoding="utf-8" standalone="no"?>
<!DOCTYPE svg PUBLIC "-//W3C//DTD SVG 1.1//EN"
  "http://www.w3.org/Graphics/SVG/1.1/DTD/svg11.dtd">
<svg xmlns:xlink="http://www.w3.org/1999/xlink" width="1173.530625pt" height="624.640312pt" viewBox="0 0 1173.530625 624.640312" xmlns="http://www.w3.org/2000/svg" version="1.1">
 <metadata>
  <rdf:RDF xmlns:dc="http://purl.org/dc/elements/1.1/" xmlns:cc="http://creativecommons.org/ns#" xmlns:rdf="http://www.w3.org/1999/02/22-rdf-syntax-ns#">
   <cc:Work>
    <dc:type rdf:resource="http://purl.org/dc/dcmitype/StillImage"/>
    <dc:date>2025-06-05T16:52:08.457188</dc:date>
    <dc:format>image/svg+xml</dc:format>
    <dc:creator>
     <cc:Agent>
      <dc:title>Matplotlib v3.7.1, https://matplotlib.org/</dc:title>
     </cc:Agent>
    </dc:creator>
   </cc:Work>
  </rdf:RDF>
 </metadata>
 <defs>
  <style type="text/css">*{stroke-linejoin: round; stroke-linecap: butt}</style>
 </defs>
 <g id="figure_1">
  <g id="patch_1">
   <path d="M 0 624.640312 
L 1173.530625 624.640312 
L 1173.530625 0 
L 0 0 
z
" style="fill: #ffffff"/>
  </g>
  <g id="axes_1">
   <g id="patch_2">
    <path d="M 49.588125 581.277187 
L 830.788125 581.277187 
L 830.788125 26.877187 
L 49.588125 26.877187 
z
" style="fill: #ffffff"/>
   </g>
   <g id="PolyCollection_1">
    <defs>
     <path id="mc81fa17a0c" d="M 49.588125 -269.290566 
L 49.588125 -172.955684 
L 57.479034 -176.201767 
L 65.369943 -179.306104 
L 73.260852 -182.269535 
L 81.151761 -296.808875 
L 89.04267 -299.388241 
L 96.93358 -301.61266 
L 104.824489 -309.34783 
L 112.715398 -313.837984 
L 120.606307 -318.063041 
L 128.497216 -367.339067 
L 136.388125 -368.568195 
L 144.279034 -369.568648 
L 152.169943 -370.355975 
L 160.060852 -395.706128 
L 167.951761 -395.925856 
L 175.84267 -395.955417 
L 183.73358 -413.787648 
L 191.624489 -414.212772 
L 199.515398 -414.483629 
L 207.406307 -418.75582 
L 215.297216 -420.221362 
L 223.188125 -421.540438 
L 231.079034 -422.716973 
L 238.969943 -429.073875 
L 246.860852 -430.606849 
L 254.751761 -432.023841 
L 262.64267 -475.69209 
L 270.53358 -477.317653 
L 278.424489 -478.840739 
L 286.315398 -488.15897 
L 294.206307 -490.258785 
L 302.097216 -492.184676 
L 309.988125 -496.30069 
L 317.879034 -499.012474 
L 325.769943 -501.627274 
L 333.660852 -504.119543 
L 341.551761 -505.643495 
L 349.44267 -506.260221 
L 357.33358 -506.336675 
L 365.224489 -517.45097 
L 373.115398 -517.715235 
L 381.006307 -517.824231 
L 388.897216 -525.679242 
L 396.788125 -526.339823 
L 404.679034 -526.821763 
L 412.569943 -527.135214 
L 420.460852 -530.884724 
L 428.351761 -532.88219 
L 436.24267 -534.62752 
L 444.13358 -544.154518 
L 452.024489 -545.799239 
L 459.915398 -547.058447 
L 467.806307 -548.248453 
L 475.697216 -550.44839 
L 483.588125 -552.282276 
L 491.479034 -553.653873 
L 499.369943 -559.126997 
L 507.260852 -560.073449 
L 515.151761 -560.6678 
L 523.04267 -560.803125 
L 530.93358 -560.803125 
L 538.824489 -560.803125 
L 546.715398 -560.803125 
L 554.606307 -560.803125 
L 562.497216 -560.803125 
L 570.388125 -560.803125 
L 578.279034 -561.324648 
L 586.169943 -561.82005 
L 594.060852 -562.285241 
L 601.951761 -562.715758 
L 609.84267 -563.106927 
L 617.73358 -563.454128 
L 625.624489 -563.75317 
L 633.515398 -564.000723 
L 641.406307 -564.194735 
L 649.297216 -571.363125 
L 657.188125 -571.363125 
L 665.079034 -571.363125 
L 672.969943 -571.363125 
L 680.860852 -571.363125 
L 688.751761 -571.363125 
L 696.64267 -571.363125 
L 704.53358 -571.363125 
L 712.424489 -571.363125 
L 720.315398 -571.363125 
L 728.206307 -571.363125 
L 736.097216 -571.363125 
L 743.988125 -571.363125 
L 751.879034 -571.363125 
L 759.769943 -571.363125 
L 767.660852 -571.363125 
L 775.551761 -571.363125 
L 783.44267 -571.363125 
L 791.33358 -571.363125 
L 799.224489 -571.363125 
L 807.115398 -571.363125 
L 815.006307 -571.363125 
L 822.897216 -571.363125 
L 830.788125 -571.363125 
L 830.788125 -571.363125 
L 830.788125 -571.363125 
L 822.897216 -571.363125 
L 815.006307 -571.363125 
L 807.115398 -571.363125 
L 799.224489 -571.363125 
L 791.33358 -571.363125 
L 783.44267 -571.363125 
L 775.551761 -571.363125 
L 767.660852 -571.363125 
L 759.769943 -571.363125 
L 751.879034 -571.363125 
L 743.988125 -571.363125 
L 736.097216 -571.363125 
L 728.206307 -571.363125 
L 720.315398 -571.363125 
L 712.424489 -571.363125 
L 704.53358 -571.363125 
L 696.64267 -571.363125 
L 688.751761 -571.363125 
L 680.860852 -571.363125 
L 672.969943 -571.363125 
L 665.079034 -571.363125 
L 657.188125 -571.363125 
L 649.297216 -571.363125 
L 641.406307 -571.363125 
L 633.515398 -571.363125 
L 625.624489 -571.363125 
L 617.73358 -571.363125 
L 609.84267 -571.363125 
L 601.951761 -571.363125 
L 594.060852 -571.363125 
L 586.169943 -571.363125 
L 578.279034 -571.363125 
L 570.388125 -571.363125 
L 562.497216 -571.363125 
L 554.606307 -571.363125 
L 546.715398 -571.363125 
L 538.824489 -571.363125 
L 530.93358 -571.363125 
L 523.04267 -571.363125 
L 515.151761 -571.363125 
L 507.260852 -571.363125 
L 499.369943 -571.363125 
L 491.479034 -571.259044 
L 483.588125 -570.497307 
L 475.697216 -570.19786 
L 467.806307 -570.264464 
L 459.915398 -569.321137 
L 452.024489 -568.447011 
L 444.13358 -567.958398 
L 436.24267 -568.045397 
L 428.351761 -567.12406 
L 420.460852 -566.454859 
L 412.569943 -560.711036 
L 404.679034 -559.424487 
L 396.788125 -558.306427 
L 388.897216 -557.367008 
L 381.006307 -550.022019 
L 373.115398 -549.064349 
L 365.224489 -548.261947 
L 357.33358 -546.469575 
L 349.44267 -543.346029 
L 341.551761 -540.762755 
L 333.660852 -539.406707 
L 325.769943 -539.765642 
L 317.879034 -540.247109 
L 309.988125 -540.82556 
L 302.097216 -538.754908 
L 294.206307 -538.014132 
L 286.315398 -537.44728 
L 278.424489 -533.912177 
L 270.53358 -533.30193 
L 262.64267 -532.79416 
L 254.751761 -510.542409 
L 246.860852 -508.759401 
L 238.969943 -507.092375 
L 231.079034 -485.609277 
L 223.188125 -483.585812 
L 215.297216 -481.704888 
L 207.406307 -479.97043 
L 199.515398 -463.869288 
L 191.624489 -461.473478 
L 183.73358 -459.231936 
L 175.84267 -438.930833 
L 167.951761 -435.760394 
L 160.060852 -432.780122 
L 152.169943 -423.250275 
L 144.279034 -420.837602 
L 136.388125 -418.638055 
L 128.497216 -416.667183 
L 120.606307 -389.463209 
L 112.715398 -387.288266 
L 104.824489 -385.37842 
L 96.93358 -363.35359 
L 89.04267 -361.311342 
L 81.151761 -359.624041 
L 73.260852 -279.176715 
L 65.369943 -275.740146 
L 57.479034 -272.444483 
L 49.588125 -269.290566 
z
" style="stroke: #1f77b4; stroke-opacity: 0.1"/>
    </defs>
    <g clip-path="url(#p14718e80a4)">
     <use xlink:href="#mc81fa17a0c" x="0" y="624.640312" style="fill: #1f77b4; fill-opacity: 0.1; stroke: #1f77b4; stroke-opacity: 0.1"/>
    </g>
   </g>
   <g id="PolyCollection_2">
    <defs>
     <path id="mca1594a2f5" d="M 49.588125 -295.096986 
L 49.588125 -122.509264 
L 57.479034 -122.509264 
L 65.369943 -122.509264 
L 73.260852 -122.509264 
L 81.151761 -171.825527 
L 89.04267 -171.825527 
L 96.93358 -171.825527 
L 104.824489 -213.091993 
L 112.715398 -213.091993 
L 120.606307 -213.091993 
L 128.497216 -320.746028 
L 136.388125 -320.746028 
L 144.279034 -320.746028 
L 152.169943 -320.746028 
L 160.060852 -336.444653 
L 167.951761 -336.444653 
L 175.84267 -336.444653 
L 183.73358 -363.683125 
L 191.624489 -363.683125 
L 199.515398 -363.683125 
L 207.406307 -411.814768 
L 215.297216 -411.814768 
L 223.188125 -411.814768 
L 231.079034 -411.814768 
L 238.969943 -423.940149 
L 246.860852 -423.940149 
L 254.751761 -423.940149 
L 262.64267 -437.383978 
L 270.53358 -437.383978 
L 278.424489 -437.383978 
L 286.315398 -462.911046 
L 294.206307 -462.911046 
L 302.097216 -462.911046 
L 309.988125 -476.072966 
L 317.879034 -476.072966 
L 325.769943 -476.072966 
L 333.660852 -476.072966 
L 341.551761 -478.920578 
L 349.44267 -478.920578 
L 357.33358 -478.920578 
L 365.224489 -496.216513 
L 373.115398 -496.216513 
L 381.006307 -496.216513 
L 388.897216 -502.16376 
L 396.788125 -502.16376 
L 404.679034 -502.16376 
L 412.569943 -502.16376 
L 420.460852 -508.003125 
L 428.351761 -508.003125 
L 436.24267 -508.003125 
L 444.13358 -519.548186 
L 452.024489 -519.548186 
L 459.915398 -519.548186 
L 467.806307 -529.123125 
L 475.697216 -529.123125 
L 483.588125 -529.123125 
L 491.479034 -529.123125 
L 499.369943 -530.773551 
L 507.260852 -530.773551 
L 515.151761 -530.773551 
L 523.04267 -538.021206 
L 530.93358 -538.021206 
L 538.824489 -538.021206 
L 546.715398 -547.773626 
L 554.606307 -547.773626 
L 562.497216 -547.773626 
L 570.388125 -549.128606 
L 578.279034 -549.128606 
L 586.169943 -549.128606 
L 594.060852 -549.128606 
L 601.951761 -553.763125 
L 609.84267 -553.763125 
L 617.73358 -553.763125 
L 625.624489 -553.763125 
L 633.515398 -553.763125 
L 641.406307 -553.763125 
L 649.297216 -558.017792 
L 657.188125 -558.017792 
L 665.079034 -558.017792 
L 672.969943 -558.017792 
L 680.860852 -558.017792 
L 688.751761 -558.017792 
L 696.64267 -558.017792 
L 704.53358 -560.803125 
L 712.424489 -560.803125 
L 720.315398 -560.803125 
L 728.206307 -560.803125 
L 736.097216 -560.803125 
L 743.988125 -560.803125 
L 751.879034 -560.803125 
L 759.769943 -571.363125 
L 767.660852 -571.363125 
L 775.551761 -571.363125 
L 783.44267 -571.363125 
L 791.33358 -571.363125 
L 799.224489 -571.363125 
L 807.115398 -571.363125 
L 815.006307 -571.363125 
L 822.897216 -571.363125 
L 830.788125 -571.363125 
L 830.788125 -571.363125 
L 830.788125 -571.363125 
L 822.897216 -571.363125 
L 815.006307 -571.363125 
L 807.115398 -571.363125 
L 799.224489 -571.363125 
L 791.33358 -571.363125 
L 783.44267 -571.363125 
L 775.551761 -571.363125 
L 767.660852 -571.363125 
L 759.769943 -571.363125 
L 751.879034 -571.363125 
L 743.988125 -571.363125 
L 736.097216 -571.363125 
L 728.206307 -571.363125 
L 720.315398 -571.363125 
L 712.424489 -571.363125 
L 704.53358 -571.363125 
L 696.64267 -571.363125 
L 688.751761 -571.363125 
L 680.860852 -571.363125 
L 672.969943 -571.363125 
L 665.079034 -571.363125 
L 657.188125 -571.363125 
L 649.297216 -571.363125 
L 641.406307 -571.363125 
L 633.515398 -571.363125 
L 625.624489 -571.363125 
L 617.73358 -571.363125 
L 609.84267 -571.363125 
L 601.951761 -571.363125 
L 594.060852 -571.363125 
L 586.169943 -571.363125 
L 578.279034 -571.363125 
L 570.388125 -571.363125 
L 562.497216 -570.312624 
L 554.606307 -570.312624 
L 546.715398 -570.312624 
L 538.824489 -569.505044 
L 530.93358 -569.505044 
L 523.04267 -569.505044 
L 515.151761 -559.152699 
L 507.260852 -559.152699 
L 499.369943 -559.152699 
L 491.479034 -557.283125 
L 483.588125 -557.283125 
L 475.697216 -557.283125 
L 467.806307 -557.283125 
L 459.915398 -556.298064 
L 452.024489 -556.298064 
L 444.13358 -556.298064 
L 436.24267 -557.283125 
L 428.351761 -557.283125 
L 420.460852 -557.283125 
L 412.569943 -552.56249 
L 404.679034 -552.56249 
L 396.788125 -552.56249 
L 388.897216 -552.56249 
L 381.006307 -547.949737 
L 373.115398 -547.949737 
L 365.224489 -547.949737 
L 357.33358 -533.565672 
L 349.44267 -533.565672 
L 341.551761 -533.565672 
L 333.660852 -525.853284 
L 325.769943 -525.853284 
L 317.879034 -525.853284 
L 309.988125 -525.853284 
L 302.097216 -517.895204 
L 294.206307 -517.895204 
L 286.315398 -517.895204 
L 278.424489 -494.142272 
L 270.53358 -494.142272 
L 262.64267 -494.142272 
L 254.751761 -482.946101 
L 246.860852 -482.946101 
L 238.969943 -482.946101 
L 231.079034 -466.911482 
L 223.188125 -466.911482 
L 215.297216 -466.911482 
L 207.406307 -466.911482 
L 199.515398 -441.123125 
L 191.624489 -441.123125 
L 183.73358 -441.123125 
L 175.84267 -429.641597 
L 167.951761 -429.641597 
L 160.060852 -429.641597 
L 152.169943 -392.540222 
L 144.279034 -392.540222 
L 136.388125 -392.540222 
L 128.497216 -392.540222 
L 120.606307 -373.474257 
L 112.715398 -373.474257 
L 104.824489 -373.474257 
L 96.93358 -347.860723 
L 89.04267 -347.860723 
L 81.151761 -347.860723 
L 73.260852 -295.096986 
L 65.369943 -295.096986 
L 57.479034 -295.096986 
L 49.588125 -295.096986 
z
" style="stroke: #98df8a; stroke-opacity: 0.1"/>
    </defs>
    <g clip-path="url(#p14718e80a4)">
     <use xlink:href="#mca1594a2f5" x="0" y="624.640312" style="fill: #98df8a; fill-opacity: 0.1; stroke: #98df8a; stroke-opacity: 0.1"/>
    </g>
   </g>
   <g id="PolyCollection_3">
    <defs>
     <path id="mce5c8c15c0" d="M 49.588125 -224.535728 
L 49.588125 -80.430522 
L 57.479034 -80.430522 
L 65.369943 -80.430522 
L 73.260852 -80.430522 
L 81.151761 -135.000589 
L 89.04267 -135.000589 
L 96.93358 -135.000589 
L 104.824489 -156.639023 
L 112.715398 -156.639023 
L 120.606307 -156.639023 
L 128.497216 -189.174157 
L 136.388125 -189.174157 
L 144.279034 -189.174157 
L 152.169943 -189.174157 
L 160.060852 -229.557251 
L 167.951761 -229.557251 
L 175.84267 -229.557251 
L 183.73358 -279.556009 
L 191.624489 -279.556009 
L 199.515398 -279.556009 
L 207.406307 -296.429501 
L 215.297216 -296.429501 
L 223.188125 -296.429501 
L 231.079034 -296.429501 
L 238.969943 -356.292001 
L 246.860852 -356.292001 
L 254.751761 -356.292001 
L 262.64267 -383.214468 
L 270.53358 -383.214468 
L 278.424489 -383.214468 
L 286.315398 -441.123125 
L 294.206307 -441.123125 
L 302.097216 -441.123125 
L 309.988125 -476.089492 
L 317.879034 -476.089492 
L 325.769943 -476.089492 
L 333.660852 -476.089492 
L 341.551761 -479.40651 
L 349.44267 -479.40651 
L 357.33358 -479.40651 
L 365.224489 -488.399616 
L 373.115398 -488.399616 
L 381.006307 -488.399616 
L 388.897216 -492.843809 
L 396.788125 -492.843809 
L 404.679034 -492.843809 
L 412.569943 -492.843809 
L 420.460852 -503.560578 
L 428.351761 -503.560578 
L 436.24267 -503.560578 
L 444.13358 -506.776513 
L 452.024489 -506.776513 
L 459.915398 -506.776513 
L 467.806307 -512.919587 
L 475.697216 -512.919587 
L 483.588125 -512.919587 
L 491.479034 -512.919587 
L 499.369943 -524.339801 
L 507.260852 -524.339801 
L 515.151761 -524.339801 
L 523.04267 -525.603125 
L 530.93358 -525.603125 
L 538.824489 -525.603125 
L 546.715398 -530.592459 
L 554.606307 -530.592459 
L 562.497216 -530.592459 
L 570.388125 -531.287345 
L 578.279034 -531.287345 
L 586.169943 -531.287345 
L 594.060852 -531.287345 
L 601.951761 -536.163125 
L 609.84267 -536.163125 
L 617.73358 -536.163125 
L 625.624489 -537.148186 
L 633.515398 -537.148186 
L 641.406307 -537.148186 
L 649.297216 -540.038717 
L 657.188125 -540.038717 
L 665.079034 -540.038717 
L 672.969943 -540.038717 
L 680.860852 -541.355344 
L 688.751761 -541.355344 
L 696.64267 -541.355344 
L 704.53358 -541.355344 
L 712.424489 -541.355344 
L 720.315398 -541.355344 
L 728.206307 -544.528492 
L 736.097216 -544.528492 
L 743.988125 -544.528492 
L 751.879034 -544.528492 
L 759.769943 -554.813626 
L 767.660852 -554.813626 
L 775.551761 -554.813626 
L 783.44267 -554.813626 
L 791.33358 -554.813626 
L 799.224489 -554.813626 
L 807.115398 -564.323125 
L 815.006307 -564.323125 
L 822.897216 -564.323125 
L 830.788125 -571.363125 
L 830.788125 -571.363125 
L 830.788125 -571.363125 
L 822.897216 -571.363125 
L 815.006307 -571.363125 
L 807.115398 -571.363125 
L 799.224489 -571.363125 
L 791.33358 -571.363125 
L 783.44267 -571.363125 
L 775.551761 -571.363125 
L 767.660852 -571.363125 
L 759.769943 -571.363125 
L 751.879034 -571.363125 
L 743.988125 -571.363125 
L 736.097216 -571.363125 
L 728.206307 -571.363125 
L 720.315398 -571.363125 
L 712.424489 -571.363125 
L 704.53358 -571.363125 
L 696.64267 -571.363125 
L 688.751761 -571.363125 
L 680.860852 -571.363125 
L 672.969943 -571.363125 
L 665.079034 -571.363125 
L 657.188125 -571.363125 
L 649.297216 -571.363125 
L 641.406307 -571.363125 
L 633.515398 -571.363125 
L 625.624489 -571.363125 
L 617.73358 -571.363125 
L 609.84267 -571.363125 
L 601.951761 -571.363125 
L 594.060852 -569.198905 
L 586.169943 -569.198905 
L 578.279034 -569.198905 
L 570.388125 -569.198905 
L 562.497216 -562.853791 
L 554.606307 -562.853791 
L 546.715398 -562.853791 
L 538.824489 -557.283125 
L 530.93358 -557.283125 
L 523.04267 -557.283125 
L 515.151761 -555.026449 
L 507.260852 -555.026449 
L 499.369943 -555.026449 
L 491.479034 -555.886663 
L 483.588125 -555.886663 
L 475.697216 -555.886663 
L 467.806307 -555.886663 
L 459.915398 -558.509737 
L 452.024489 -558.509737 
L 444.13358 -558.509737 
L 436.24267 -558.205672 
L 428.351761 -558.205672 
L 420.460852 -558.205672 
L 412.569943 -551.322441 
L 404.679034 -551.322441 
L 396.788125 -551.322441 
L 388.897216 -551.322441 
L 381.006307 -552.246634 
L 373.115398 -552.246634 
L 365.224489 -552.246634 
L 357.33358 -536.59974 
L 349.44267 -536.59974 
L 341.551761 -536.59974 
L 333.660852 -529.356758 
L 325.769943 -529.356758 
L 317.879034 -529.356758 
L 309.988125 -529.356758 
L 302.097216 -515.043125 
L 294.206307 -515.043125 
L 286.315398 -515.043125 
L 278.424489 -509.591782 
L 270.53358 -509.591782 
L 262.64267 -509.591782 
L 254.751761 -497.794249 
L 246.860852 -497.794249 
L 238.969943 -497.794249 
L 231.079034 -462.616749 
L 223.188125 -462.616749 
L 215.297216 -462.616749 
L 207.406307 -462.616749 
L 199.515398 -419.650241 
L 191.624489 -419.650241 
L 183.73358 -419.650241 
L 175.84267 -399.248999 
L 167.951761 -399.248999 
L 160.060852 -399.248999 
L 152.169943 -362.192093 
L 144.279034 -362.192093 
L 136.388125 -362.192093 
L 128.497216 -362.192093 
L 120.606307 -331.367227 
L 112.715398 -331.367227 
L 104.824489 -331.367227 
L 96.93358 -240.365661 
L 89.04267 -240.365661 
L 81.151761 -240.365661 
L 73.260852 -224.535728 
L 65.369943 -224.535728 
L 57.479034 -224.535728 
L 49.588125 -224.535728 
z
" style="stroke: #8c564b; stroke-opacity: 0.1"/>
    </defs>
    <g clip-path="url(#p14718e80a4)">
     <use xlink:href="#mce5c8c15c0" x="0" y="624.640312" style="fill: #8c564b; fill-opacity: 0.1; stroke: #8c564b; stroke-opacity: 0.1"/>
    </g>
   </g>
   <g id="PolyCollection_4">
    <defs>
     <path id="m664eb1a936" d="M 49.588125 -252.777977 
L 49.588125 -129.628273 
L 57.479034 -129.628273 
L 65.369943 -129.628273 
L 73.260852 -129.628273 
L 81.151761 -184.938462 
L 89.04267 -184.938462 
L 96.93358 -184.938462 
L 104.824489 -224.382027 
L 112.715398 -224.382027 
L 120.606307 -224.382027 
L 128.497216 -281.599217 
L 136.388125 -281.599217 
L 144.279034 -281.599217 
L 152.169943 -281.599217 
L 160.060852 -335.405922 
L 167.951761 -335.405922 
L 175.84267 -335.405922 
L 183.73358 -369.447859 
L 191.624489 -369.447859 
L 199.515398 -369.447859 
L 207.406307 -427.815715 
L 215.297216 -427.815715 
L 223.188125 -427.815715 
L 231.079034 -427.815715 
L 238.969943 -462.243125 
L 246.860852 -462.243125 
L 254.751761 -462.243125 
L 262.64267 -477.316476 
L 270.53358 -477.316476 
L 278.424489 -477.316476 
L 286.315398 -503.985297 
L 294.206307 -503.985297 
L 302.097216 -503.985297 
L 309.988125 -522.438717 
L 317.879034 -522.438717 
L 325.769943 -522.438717 
L 333.660852 -522.438717 
L 341.551761 -531.528606 
L 349.44267 -531.528606 
L 357.33358 -531.528606 
L 365.224489 -533.156686 
L 373.115398 -533.156686 
L 381.006307 -533.156686 
L 388.897216 -532.643125 
L 396.788125 -532.643125 
L 404.679034 -532.643125 
L 412.569943 -532.643125 
L 420.460852 -539.683125 
L 428.351761 -539.683125 
L 436.24267 -539.683125 
L 444.13358 -539.683125 
L 452.024489 -539.683125 
L 459.915398 -539.683125 
L 467.806307 -546.045235 
L 475.697216 -546.045235 
L 483.588125 -546.045235 
L 491.479034 -546.045235 
L 499.369943 -546.723125 
L 507.260852 -546.723125 
L 515.151761 -546.723125 
L 523.04267 -547.773626 
L 530.93358 -547.773626 
L 538.824489 -547.773626 
L 546.715398 -549.128606 
L 554.606307 -549.128606 
L 562.497216 -549.128606 
L 570.388125 -550.756686 
L 578.279034 -550.756686 
L 586.169943 -550.756686 
L 594.060852 -550.756686 
L 601.951761 -555.700921 
L 609.84267 -555.700921 
L 617.73358 -555.700921 
L 625.624489 -560.803125 
L 633.515398 -560.803125 
L 641.406307 -560.803125 
L 649.297216 -560.803125 
L 657.188125 -560.803125 
L 665.079034 -560.803125 
L 672.969943 -560.803125 
L 680.860852 -560.803125 
L 688.751761 -560.803125 
L 696.64267 -560.803125 
L 704.53358 -564.323125 
L 712.424489 -564.323125 
L 720.315398 -564.323125 
L 728.206307 -564.323125 
L 736.097216 -564.323125 
L 743.988125 -564.323125 
L 751.879034 -564.323125 
L 759.769943 -571.363125 
L 767.660852 -571.363125 
L 775.551761 -571.363125 
L 783.44267 -571.363125 
L 791.33358 -571.363125 
L 799.224489 -571.363125 
L 807.115398 -571.363125 
L 815.006307 -571.363125 
L 822.897216 -571.363125 
L 830.788125 -571.363125 
L 830.788125 -571.363125 
L 830.788125 -571.363125 
L 822.897216 -571.363125 
L 815.006307 -571.363125 
L 807.115398 -571.363125 
L 799.224489 -571.363125 
L 791.33358 -571.363125 
L 783.44267 -571.363125 
L 775.551761 -571.363125 
L 767.660852 -571.363125 
L 759.769943 -571.363125 
L 751.879034 -571.363125 
L 743.988125 -571.363125 
L 736.097216 -571.363125 
L 728.206307 -571.363125 
L 720.315398 -571.363125 
L 712.424489 -571.363125 
L 704.53358 -571.363125 
L 696.64267 -571.363125 
L 688.751761 -571.363125 
L 680.860852 -571.363125 
L 672.969943 -571.363125 
L 665.079034 -571.363125 
L 657.188125 -571.363125 
L 649.297216 -571.363125 
L 641.406307 -571.363125 
L 633.515398 -571.363125 
L 625.624489 -571.363125 
L 617.73358 -571.363125 
L 609.84267 -571.363125 
L 601.951761 -571.363125 
L 594.060852 -571.363125 
L 586.169943 -571.363125 
L 578.279034 -571.363125 
L 570.388125 -571.363125 
L 562.497216 -571.363125 
L 554.606307 -571.363125 
L 546.715398 -571.363125 
L 538.824489 -570.312624 
L 530.93358 -570.312624 
L 523.04267 -570.312624 
L 515.151761 -567.843125 
L 507.260852 -567.843125 
L 499.369943 -567.843125 
L 491.479034 -565.001015 
L 483.588125 -565.001015 
L 475.697216 -565.001015 
L 467.806307 -565.001015 
L 459.915398 -560.803125 
L 452.024489 -560.803125 
L 444.13358 -560.803125 
L 436.24267 -560.803125 
L 428.351761 -560.803125 
L 420.460852 -560.803125 
L 412.569943 -560.803125 
L 404.679034 -560.803125 
L 396.788125 -560.803125 
L 388.897216 -560.803125 
L 381.006307 -556.769564 
L 373.115398 -556.769564 
L 365.224489 -556.769564 
L 357.33358 -554.877644 
L 349.44267 -554.877644 
L 341.551761 -554.877644 
L 333.660852 -556.927533 
L 325.769943 -556.927533 
L 317.879034 -556.927533 
L 309.988125 -556.927533 
L 302.097216 -554.260953 
L 294.206307 -554.260953 
L 286.315398 -554.260953 
L 278.424489 -538.689774 
L 270.53358 -538.689774 
L 262.64267 -538.689774 
L 254.751761 -525.603125 
L 246.860852 -525.603125 
L 238.969943 -525.603125 
L 231.079034 -507.230535 
L 223.188125 -507.230535 
L 215.297216 -507.230535 
L 207.406307 -507.230535 
L 199.515398 -477.598391 
L 191.624489 -477.598391 
L 183.73358 -477.598391 
L 175.84267 -441.240328 
L 167.951761 -441.240328 
L 160.060852 -441.240328 
L 152.169943 -392.967033 
L 144.279034 -392.967033 
L 136.388125 -392.967033 
L 128.497216 -392.967033 
L 120.606307 -355.144223 
L 112.715398 -355.144223 
L 104.824489 -355.144223 
L 96.93358 -296.027788 
L 89.04267 -296.027788 
L 81.151761 -296.027788 
L 73.260852 -252.777977 
L 65.369943 -252.777977 
L 57.479034 -252.777977 
L 49.588125 -252.777977 
z
" style="stroke: #c7c7c7; stroke-opacity: 0.1"/>
    </defs>
    <g clip-path="url(#p14718e80a4)">
     <use xlink:href="#m664eb1a936" x="0" y="624.640312" style="fill: #c7c7c7; fill-opacity: 0.1; stroke: #c7c7c7; stroke-opacity: 0.1"/>
    </g>
   </g>
   <g id="PolyCollection_5">
    <defs>
     <path id="m9f5284b9c8" d="M 49.588125 -337.895573 
L 49.588125 -231.070677 
L 57.479034 -231.070677 
L 65.369943 -231.070677 
L 73.260852 -231.070677 
L 81.151761 -296.66255 
L 89.04267 -296.66255 
L 96.93358 -296.66255 
L 104.824489 -344.381857 
L 112.715398 -344.381857 
L 120.606307 -344.381857 
L 128.497216 -383.430793 
L 136.388125 -383.430793 
L 144.279034 -383.430793 
L 152.169943 -383.430793 
L 160.060852 -387.359988 
L 167.951761 -387.359988 
L 175.84267 -387.359988 
L 183.73358 -418.712692 
L 191.624489 -418.712692 
L 199.515398 -418.712692 
L 207.406307 -453.355344 
L 215.297216 -453.355344 
L 223.188125 -453.355344 
L 231.079034 -453.355344 
L 238.969943 -470.336979 
L 246.860852 -470.336979 
L 254.751761 -470.336979 
L 262.64267 -482.994629 
L 270.53358 -482.994629 
L 278.424489 -482.994629 
L 286.315398 -510.660732 
L 294.206307 -510.660732 
L 302.097216 -510.660732 
L 309.988125 -533.156686 
L 317.879034 -533.156686 
L 325.769943 -533.156686 
L 333.660852 -533.156686 
L 341.551761 -543.203125 
L 349.44267 -543.203125 
L 357.33358 -543.203125 
L 365.224489 -546.723125 
L 373.115398 -546.723125 
L 381.006307 -546.723125 
L 388.897216 -546.723125 
L 396.788125 -546.723125 
L 404.679034 -546.723125 
L 412.569943 -546.723125 
L 420.460852 -546.723125 
L 428.351761 -546.723125 
L 436.24267 -546.723125 
L 444.13358 -546.045235 
L 452.024489 -546.045235 
L 459.915398 -546.045235 
L 467.806307 -546.045235 
L 475.697216 -546.045235 
L 483.588125 -546.045235 
L 491.479034 -546.045235 
L 499.369943 -546.045235 
L 507.260852 -546.045235 
L 515.151761 -546.045235 
L 523.04267 -547.773626 
L 530.93358 -547.773626 
L 538.824489 -547.773626 
L 546.715398 -553.763125 
L 554.606307 -553.763125 
L 562.497216 -553.763125 
L 570.388125 -553.763125 
L 578.279034 -553.763125 
L 586.169943 -553.763125 
L 594.060852 -553.763125 
L 601.951761 -558.017792 
L 609.84267 -558.017792 
L 617.73358 -558.017792 
L 625.624489 -560.803125 
L 633.515398 -560.803125 
L 641.406307 -560.803125 
L 649.297216 -564.323125 
L 657.188125 -564.323125 
L 665.079034 -564.323125 
L 672.969943 -564.323125 
L 680.860852 -564.323125 
L 688.751761 -564.323125 
L 696.64267 -564.323125 
L 704.53358 -564.323125 
L 712.424489 -564.323125 
L 720.315398 -564.323125 
L 728.206307 -571.363125 
L 736.097216 -571.363125 
L 743.988125 -571.363125 
L 751.879034 -571.363125 
L 759.769943 -571.363125 
L 767.660852 -571.363125 
L 775.551761 -571.363125 
L 783.44267 -571.363125 
L 791.33358 -571.363125 
L 799.224489 -571.363125 
L 807.115398 -571.363125 
L 815.006307 -571.363125 
L 822.897216 -571.363125 
L 830.788125 -571.363125 
L 830.788125 -571.363125 
L 830.788125 -571.363125 
L 822.897216 -571.363125 
L 815.006307 -571.363125 
L 807.115398 -571.363125 
L 799.224489 -571.363125 
L 791.33358 -571.363125 
L 783.44267 -571.363125 
L 775.551761 -571.363125 
L 767.660852 -571.363125 
L 759.769943 -571.363125 
L 751.879034 -571.363125 
L 743.988125 -571.363125 
L 736.097216 -571.363125 
L 728.206307 -571.363125 
L 720.315398 -571.363125 
L 712.424489 -571.363125 
L 704.53358 -571.363125 
L 696.64267 -571.363125 
L 688.751761 -571.363125 
L 680.860852 -571.363125 
L 672.969943 -571.363125 
L 665.079034 -571.363125 
L 657.188125 -571.363125 
L 649.297216 -571.363125 
L 641.406307 -571.363125 
L 633.515398 -571.363125 
L 625.624489 -571.363125 
L 617.73358 -571.363125 
L 609.84267 -571.363125 
L 601.951761 -571.363125 
L 594.060852 -571.363125 
L 586.169943 -571.363125 
L 578.279034 -571.363125 
L 570.388125 -571.363125 
L 562.497216 -571.363125 
L 554.606307 -571.363125 
L 546.715398 -571.363125 
L 538.824489 -570.312624 
L 530.93358 -570.312624 
L 523.04267 -570.312624 
L 515.151761 -565.001015 
L 507.260852 -565.001015 
L 499.369943 -565.001015 
L 491.479034 -565.001015 
L 483.588125 -565.001015 
L 475.697216 -565.001015 
L 467.806307 -565.001015 
L 459.915398 -565.001015 
L 452.024489 -565.001015 
L 444.13358 -565.001015 
L 436.24267 -557.283125 
L 428.351761 -557.283125 
L 420.460852 -557.283125 
L 412.569943 -557.283125 
L 404.679034 -557.283125 
L 396.788125 -557.283125 
L 388.897216 -557.283125 
L 381.006307 -557.283125 
L 373.115398 -557.283125 
L 365.224489 -557.283125 
L 357.33358 -557.283125 
L 349.44267 -557.283125 
L 341.551761 -557.283125 
L 333.660852 -556.769564 
L 325.769943 -556.769564 
L 317.879034 -556.769564 
L 309.988125 -556.769564 
L 302.097216 -554.625518 
L 294.206307 -554.625518 
L 286.315398 -554.625518 
L 278.424489 -550.611621 
L 270.53358 -550.611621 
L 262.64267 -550.611621 
L 254.751761 -528.069271 
L 246.860852 -528.069271 
L 238.969943 -528.069271 
L 231.079034 -488.730906 
L 223.188125 -488.730906 
L 215.297216 -488.730906 
L 207.406307 -488.730906 
L 199.515398 -477.613558 
L 191.624489 -477.613558 
L 183.73358 -477.613558 
L 175.84267 -452.646262 
L 167.951761 -452.646262 
L 160.060852 -452.646262 
L 152.169943 -438.975457 
L 144.279034 -438.975457 
L 136.388125 -438.975457 
L 128.497216 -438.975457 
L 120.606307 -397.064393 
L 112.715398 -397.064393 
L 104.824489 -397.064393 
L 96.93358 -384.9437 
L 89.04267 -384.9437 
L 81.151761 -384.9437 
L 73.260852 -337.895573 
L 65.369943 -337.895573 
L 57.479034 -337.895573 
L 49.588125 -337.895573 
z
" style="stroke: #9edae5; stroke-opacity: 0.1"/>
    </defs>
    <g clip-path="url(#p14718e80a4)">
     <use xlink:href="#m9f5284b9c8" x="0" y="624.640312" style="fill: #9edae5; fill-opacity: 0.1; stroke: #9edae5; stroke-opacity: 0.1"/>
    </g>
   </g>
   <g id="matplotlib.axis_1">
    <g id="xtick_1">
     <g id="line2d_1">
      <path d="M 49.588125 581.277187 
L 49.588125 26.877187 
" clip-path="url(#p14718e80a4)" style="fill: none; stroke: #b0b0b0; stroke-opacity: 0.3; stroke-width: 0.8; stroke-linecap: square"/>
     </g>
     <g id="line2d_2">
      <defs>
       <path id="ma658148b2f" d="M 0 0 
L 0 3.5 
" style="stroke: #000000; stroke-width: 0.8"/>
      </defs>
      <g>
       <use xlink:href="#ma658148b2f" x="49.588125" y="581.277187" style="stroke: #000000; stroke-width: 0.8"/>
      </g>
     </g>
     <g id="text_1">
      <!-- 0.0 -->
      <g transform="translate(41.636563 595.875625) scale(0.1 -0.1)">
       <defs>
        <path id="DejaVuSans-30" d="M 2034 4250 
Q 1547 4250 1301 3770 
Q 1056 3291 1056 2328 
Q 1056 1369 1301 889 
Q 1547 409 2034 409 
Q 2525 409 2770 889 
Q 3016 1369 3016 2328 
Q 3016 3291 2770 3770 
Q 2525 4250 2034 4250 
z
M 2034 4750 
Q 2819 4750 3233 4129 
Q 3647 3509 3647 2328 
Q 3647 1150 3233 529 
Q 2819 -91 2034 -91 
Q 1250 -91 836 529 
Q 422 1150 422 2328 
Q 422 3509 836 4129 
Q 1250 4750 2034 4750 
z
" transform="scale(0.015625)"/>
        <path id="DejaVuSans-2e" d="M 684 794 
L 1344 794 
L 1344 0 
L 684 0 
L 684 794 
z
" transform="scale(0.015625)"/>
       </defs>
       <use xlink:href="#DejaVuSans-30"/>
       <use xlink:href="#DejaVuSans-2e" x="63.623047"/>
       <use xlink:href="#DejaVuSans-30" x="95.410156"/>
      </g>
     </g>
    </g>
    <g id="xtick_2">
     <g id="line2d_3">
      <path d="M 205.828125 581.277187 
L 205.828125 26.877187 
" clip-path="url(#p14718e80a4)" style="fill: none; stroke: #b0b0b0; stroke-opacity: 0.3; stroke-width: 0.8; stroke-linecap: square"/>
     </g>
     <g id="line2d_4">
      <g>
       <use xlink:href="#ma658148b2f" x="205.828125" y="581.277187" style="stroke: #000000; stroke-width: 0.8"/>
      </g>
     </g>
     <g id="text_2">
      <!-- 0.2 -->
      <g transform="translate(197.876563 595.875625) scale(0.1 -0.1)">
       <defs>
        <path id="DejaVuSans-32" d="M 1228 531 
L 3431 531 
L 3431 0 
L 469 0 
L 469 531 
Q 828 903 1448 1529 
Q 2069 2156 2228 2338 
Q 2531 2678 2651 2914 
Q 2772 3150 2772 3378 
Q 2772 3750 2511 3984 
Q 2250 4219 1831 4219 
Q 1534 4219 1204 4116 
Q 875 4013 500 3803 
L 500 4441 
Q 881 4594 1212 4672 
Q 1544 4750 1819 4750 
Q 2544 4750 2975 4387 
Q 3406 4025 3406 3419 
Q 3406 3131 3298 2873 
Q 3191 2616 2906 2266 
Q 2828 2175 2409 1742 
Q 1991 1309 1228 531 
z
" transform="scale(0.015625)"/>
       </defs>
       <use xlink:href="#DejaVuSans-30"/>
       <use xlink:href="#DejaVuSans-2e" x="63.623047"/>
       <use xlink:href="#DejaVuSans-32" x="95.410156"/>
      </g>
     </g>
    </g>
    <g id="xtick_3">
     <g id="line2d_5">
      <path d="M 362.068125 581.277187 
L 362.068125 26.877187 
" clip-path="url(#p14718e80a4)" style="fill: none; stroke: #b0b0b0; stroke-opacity: 0.3; stroke-width: 0.8; stroke-linecap: square"/>
     </g>
     <g id="line2d_6">
      <g>
       <use xlink:href="#ma658148b2f" x="362.068125" y="581.277187" style="stroke: #000000; stroke-width: 0.8"/>
      </g>
     </g>
     <g id="text_3">
      <!-- 0.4 -->
      <g transform="translate(354.116562 595.875625) scale(0.1 -0.1)">
       <defs>
        <path id="DejaVuSans-34" d="M 2419 4116 
L 825 1625 
L 2419 1625 
L 2419 4116 
z
M 2253 4666 
L 3047 4666 
L 3047 1625 
L 3713 1625 
L 3713 1100 
L 3047 1100 
L 3047 0 
L 2419 0 
L 2419 1100 
L 313 1100 
L 313 1709 
L 2253 4666 
z
" transform="scale(0.015625)"/>
       </defs>
       <use xlink:href="#DejaVuSans-30"/>
       <use xlink:href="#DejaVuSans-2e" x="63.623047"/>
       <use xlink:href="#DejaVuSans-34" x="95.410156"/>
      </g>
     </g>
    </g>
    <g id="xtick_4">
     <g id="line2d_7">
      <path d="M 518.308125 581.277187 
L 518.308125 26.877187 
" clip-path="url(#p14718e80a4)" style="fill: none; stroke: #b0b0b0; stroke-opacity: 0.3; stroke-width: 0.8; stroke-linecap: square"/>
     </g>
     <g id="line2d_8">
      <g>
       <use xlink:href="#ma658148b2f" x="518.308125" y="581.277187" style="stroke: #000000; stroke-width: 0.8"/>
      </g>
     </g>
     <g id="text_4">
      <!-- 0.6 -->
      <g transform="translate(510.356563 595.875625) scale(0.1 -0.1)">
       <defs>
        <path id="DejaVuSans-36" d="M 2113 2584 
Q 1688 2584 1439 2293 
Q 1191 2003 1191 1497 
Q 1191 994 1439 701 
Q 1688 409 2113 409 
Q 2538 409 2786 701 
Q 3034 994 3034 1497 
Q 3034 2003 2786 2293 
Q 2538 2584 2113 2584 
z
M 3366 4563 
L 3366 3988 
Q 3128 4100 2886 4159 
Q 2644 4219 2406 4219 
Q 1781 4219 1451 3797 
Q 1122 3375 1075 2522 
Q 1259 2794 1537 2939 
Q 1816 3084 2150 3084 
Q 2853 3084 3261 2657 
Q 3669 2231 3669 1497 
Q 3669 778 3244 343 
Q 2819 -91 2113 -91 
Q 1303 -91 875 529 
Q 447 1150 447 2328 
Q 447 3434 972 4092 
Q 1497 4750 2381 4750 
Q 2619 4750 2861 4703 
Q 3103 4656 3366 4563 
z
" transform="scale(0.015625)"/>
       </defs>
       <use xlink:href="#DejaVuSans-30"/>
       <use xlink:href="#DejaVuSans-2e" x="63.623047"/>
       <use xlink:href="#DejaVuSans-36" x="95.410156"/>
      </g>
     </g>
    </g>
    <g id="xtick_5">
     <g id="line2d_9">
      <path d="M 674.548125 581.277187 
L 674.548125 26.877187 
" clip-path="url(#p14718e80a4)" style="fill: none; stroke: #b0b0b0; stroke-opacity: 0.3; stroke-width: 0.8; stroke-linecap: square"/>
     </g>
     <g id="line2d_10">
      <g>
       <use xlink:href="#ma658148b2f" x="674.548125" y="581.277187" style="stroke: #000000; stroke-width: 0.8"/>
      </g>
     </g>
     <g id="text_5">
      <!-- 0.8 -->
      <g transform="translate(666.596563 595.875625) scale(0.1 -0.1)">
       <defs>
        <path id="DejaVuSans-38" d="M 2034 2216 
Q 1584 2216 1326 1975 
Q 1069 1734 1069 1313 
Q 1069 891 1326 650 
Q 1584 409 2034 409 
Q 2484 409 2743 651 
Q 3003 894 3003 1313 
Q 3003 1734 2745 1975 
Q 2488 2216 2034 2216 
z
M 1403 2484 
Q 997 2584 770 2862 
Q 544 3141 544 3541 
Q 544 4100 942 4425 
Q 1341 4750 2034 4750 
Q 2731 4750 3128 4425 
Q 3525 4100 3525 3541 
Q 3525 3141 3298 2862 
Q 3072 2584 2669 2484 
Q 3125 2378 3379 2068 
Q 3634 1759 3634 1313 
Q 3634 634 3220 271 
Q 2806 -91 2034 -91 
Q 1263 -91 848 271 
Q 434 634 434 1313 
Q 434 1759 690 2068 
Q 947 2378 1403 2484 
z
M 1172 3481 
Q 1172 3119 1398 2916 
Q 1625 2713 2034 2713 
Q 2441 2713 2670 2916 
Q 2900 3119 2900 3481 
Q 2900 3844 2670 4047 
Q 2441 4250 2034 4250 
Q 1625 4250 1398 4047 
Q 1172 3844 1172 3481 
z
" transform="scale(0.015625)"/>
       </defs>
       <use xlink:href="#DejaVuSans-30"/>
       <use xlink:href="#DejaVuSans-2e" x="63.623047"/>
       <use xlink:href="#DejaVuSans-38" x="95.410156"/>
      </g>
     </g>
    </g>
    <g id="xtick_6">
     <g id="line2d_11">
      <path d="M 830.788125 581.277187 
L 830.788125 26.877187 
" clip-path="url(#p14718e80a4)" style="fill: none; stroke: #b0b0b0; stroke-opacity: 0.3; stroke-width: 0.8; stroke-linecap: square"/>
     </g>
     <g id="line2d_12">
      <g>
       <use xlink:href="#ma658148b2f" x="830.788125" y="581.277187" style="stroke: #000000; stroke-width: 0.8"/>
      </g>
     </g>
     <g id="text_6">
      <!-- 1.0 -->
      <g transform="translate(822.836563 595.875625) scale(0.1 -0.1)">
       <defs>
        <path id="DejaVuSans-31" d="M 794 531 
L 1825 531 
L 1825 4091 
L 703 3866 
L 703 4441 
L 1819 4666 
L 2450 4666 
L 2450 531 
L 3481 531 
L 3481 0 
L 794 0 
L 794 531 
z
" transform="scale(0.015625)"/>
       </defs>
       <use xlink:href="#DejaVuSans-31"/>
       <use xlink:href="#DejaVuSans-2e" x="63.623047"/>
       <use xlink:href="#DejaVuSans-30" x="95.410156"/>
      </g>
     </g>
    </g>
    <g id="text_7">
     <!-- False Positive Rate -->
     <g transform="translate(365.841875 614.112812) scale(0.16 -0.16)">
      <defs>
       <path id="DejaVuSans-46" d="M 628 4666 
L 3309 4666 
L 3309 4134 
L 1259 4134 
L 1259 2759 
L 3109 2759 
L 3109 2228 
L 1259 2228 
L 1259 0 
L 628 0 
L 628 4666 
z
" transform="scale(0.015625)"/>
       <path id="DejaVuSans-61" d="M 2194 1759 
Q 1497 1759 1228 1600 
Q 959 1441 959 1056 
Q 959 750 1161 570 
Q 1363 391 1709 391 
Q 2188 391 2477 730 
Q 2766 1069 2766 1631 
L 2766 1759 
L 2194 1759 
z
M 3341 1997 
L 3341 0 
L 2766 0 
L 2766 531 
Q 2569 213 2275 61 
Q 1981 -91 1556 -91 
Q 1019 -91 701 211 
Q 384 513 384 1019 
Q 384 1609 779 1909 
Q 1175 2209 1959 2209 
L 2766 2209 
L 2766 2266 
Q 2766 2663 2505 2880 
Q 2244 3097 1772 3097 
Q 1472 3097 1187 3025 
Q 903 2953 641 2809 
L 641 3341 
Q 956 3463 1253 3523 
Q 1550 3584 1831 3584 
Q 2591 3584 2966 3190 
Q 3341 2797 3341 1997 
z
" transform="scale(0.015625)"/>
       <path id="DejaVuSans-6c" d="M 603 4863 
L 1178 4863 
L 1178 0 
L 603 0 
L 603 4863 
z
" transform="scale(0.015625)"/>
       <path id="DejaVuSans-73" d="M 2834 3397 
L 2834 2853 
Q 2591 2978 2328 3040 
Q 2066 3103 1784 3103 
Q 1356 3103 1142 2972 
Q 928 2841 928 2578 
Q 928 2378 1081 2264 
Q 1234 2150 1697 2047 
L 1894 2003 
Q 2506 1872 2764 1633 
Q 3022 1394 3022 966 
Q 3022 478 2636 193 
Q 2250 -91 1575 -91 
Q 1294 -91 989 -36 
Q 684 19 347 128 
L 347 722 
Q 666 556 975 473 
Q 1284 391 1588 391 
Q 1994 391 2212 530 
Q 2431 669 2431 922 
Q 2431 1156 2273 1281 
Q 2116 1406 1581 1522 
L 1381 1569 
Q 847 1681 609 1914 
Q 372 2147 372 2553 
Q 372 3047 722 3315 
Q 1072 3584 1716 3584 
Q 2034 3584 2315 3537 
Q 2597 3491 2834 3397 
z
" transform="scale(0.015625)"/>
       <path id="DejaVuSans-65" d="M 3597 1894 
L 3597 1613 
L 953 1613 
Q 991 1019 1311 708 
Q 1631 397 2203 397 
Q 2534 397 2845 478 
Q 3156 559 3463 722 
L 3463 178 
Q 3153 47 2828 -22 
Q 2503 -91 2169 -91 
Q 1331 -91 842 396 
Q 353 884 353 1716 
Q 353 2575 817 3079 
Q 1281 3584 2069 3584 
Q 2775 3584 3186 3129 
Q 3597 2675 3597 1894 
z
M 3022 2063 
Q 3016 2534 2758 2815 
Q 2500 3097 2075 3097 
Q 1594 3097 1305 2825 
Q 1016 2553 972 2059 
L 3022 2063 
z
" transform="scale(0.015625)"/>
       <path id="DejaVuSans-20" transform="scale(0.015625)"/>
       <path id="DejaVuSans-50" d="M 1259 4147 
L 1259 2394 
L 2053 2394 
Q 2494 2394 2734 2622 
Q 2975 2850 2975 3272 
Q 2975 3691 2734 3919 
Q 2494 4147 2053 4147 
L 1259 4147 
z
M 628 4666 
L 2053 4666 
Q 2838 4666 3239 4311 
Q 3641 3956 3641 3272 
Q 3641 2581 3239 2228 
Q 2838 1875 2053 1875 
L 1259 1875 
L 1259 0 
L 628 0 
L 628 4666 
z
" transform="scale(0.015625)"/>
       <path id="DejaVuSans-6f" d="M 1959 3097 
Q 1497 3097 1228 2736 
Q 959 2375 959 1747 
Q 959 1119 1226 758 
Q 1494 397 1959 397 
Q 2419 397 2687 759 
Q 2956 1122 2956 1747 
Q 2956 2369 2687 2733 
Q 2419 3097 1959 3097 
z
M 1959 3584 
Q 2709 3584 3137 3096 
Q 3566 2609 3566 1747 
Q 3566 888 3137 398 
Q 2709 -91 1959 -91 
Q 1206 -91 779 398 
Q 353 888 353 1747 
Q 353 2609 779 3096 
Q 1206 3584 1959 3584 
z
" transform="scale(0.015625)"/>
       <path id="DejaVuSans-69" d="M 603 3500 
L 1178 3500 
L 1178 0 
L 603 0 
L 603 3500 
z
M 603 4863 
L 1178 4863 
L 1178 4134 
L 603 4134 
L 603 4863 
z
" transform="scale(0.015625)"/>
       <path id="DejaVuSans-74" d="M 1172 4494 
L 1172 3500 
L 2356 3500 
L 2356 3053 
L 1172 3053 
L 1172 1153 
Q 1172 725 1289 603 
Q 1406 481 1766 481 
L 2356 481 
L 2356 0 
L 1766 0 
Q 1100 0 847 248 
Q 594 497 594 1153 
L 594 3053 
L 172 3053 
L 172 3500 
L 594 3500 
L 594 4494 
L 1172 4494 
z
" transform="scale(0.015625)"/>
       <path id="DejaVuSans-76" d="M 191 3500 
L 800 3500 
L 1894 563 
L 2988 3500 
L 3597 3500 
L 2284 0 
L 1503 0 
L 191 3500 
z
" transform="scale(0.015625)"/>
       <path id="DejaVuSans-52" d="M 2841 2188 
Q 3044 2119 3236 1894 
Q 3428 1669 3622 1275 
L 4263 0 
L 3584 0 
L 2988 1197 
Q 2756 1666 2539 1819 
Q 2322 1972 1947 1972 
L 1259 1972 
L 1259 0 
L 628 0 
L 628 4666 
L 2053 4666 
Q 2853 4666 3247 4331 
Q 3641 3997 3641 3322 
Q 3641 2881 3436 2590 
Q 3231 2300 2841 2188 
z
M 1259 4147 
L 1259 2491 
L 2053 2491 
Q 2509 2491 2742 2702 
Q 2975 2913 2975 3322 
Q 2975 3731 2742 3939 
Q 2509 4147 2053 4147 
L 1259 4147 
z
" transform="scale(0.015625)"/>
      </defs>
      <use xlink:href="#DejaVuSans-46"/>
      <use xlink:href="#DejaVuSans-61" x="48.394531"/>
      <use xlink:href="#DejaVuSans-6c" x="109.673828"/>
      <use xlink:href="#DejaVuSans-73" x="137.457031"/>
      <use xlink:href="#DejaVuSans-65" x="189.556641"/>
      <use xlink:href="#DejaVuSans-20" x="251.080078"/>
      <use xlink:href="#DejaVuSans-50" x="282.867188"/>
      <use xlink:href="#DejaVuSans-6f" x="339.544922"/>
      <use xlink:href="#DejaVuSans-73" x="400.726562"/>
      <use xlink:href="#DejaVuSans-69" x="452.826172"/>
      <use xlink:href="#DejaVuSans-74" x="480.609375"/>
      <use xlink:href="#DejaVuSans-69" x="519.818359"/>
      <use xlink:href="#DejaVuSans-76" x="547.601562"/>
      <use xlink:href="#DejaVuSans-65" x="606.78125"/>
      <use xlink:href="#DejaVuSans-20" x="668.304688"/>
      <use xlink:href="#DejaVuSans-52" x="700.091797"/>
      <use xlink:href="#DejaVuSans-61" x="767.324219"/>
      <use xlink:href="#DejaVuSans-74" x="828.603516"/>
      <use xlink:href="#DejaVuSans-65" x="867.8125"/>
     </g>
    </g>
   </g>
   <g id="matplotlib.axis_2">
    <g id="ytick_1">
     <g id="line2d_13">
      <path d="M 49.588125 581.277187 
L 830.788125 581.277187 
" clip-path="url(#p14718e80a4)" style="fill: none; stroke: #b0b0b0; stroke-opacity: 0.3; stroke-width: 0.8; stroke-linecap: square"/>
     </g>
     <g id="line2d_14">
      <defs>
       <path id="m9c872694dd" d="M 0 0 
L -3.5 0 
" style="stroke: #000000; stroke-width: 0.8"/>
      </defs>
      <g>
       <use xlink:href="#m9c872694dd" x="49.588125" y="581.277187" style="stroke: #000000; stroke-width: 0.8"/>
      </g>
     </g>
     <g id="text_8">
      <!-- 0.0 -->
      <g transform="translate(26.685 585.076406) scale(0.1 -0.1)">
       <use xlink:href="#DejaVuSans-30"/>
       <use xlink:href="#DejaVuSans-2e" x="63.623047"/>
       <use xlink:href="#DejaVuSans-30" x="95.410156"/>
      </g>
     </g>
    </g>
    <g id="ytick_2">
     <g id="line2d_15">
      <path d="M 49.588125 475.677187 
L 830.788125 475.677187 
" clip-path="url(#p14718e80a4)" style="fill: none; stroke: #b0b0b0; stroke-opacity: 0.3; stroke-width: 0.8; stroke-linecap: square"/>
     </g>
     <g id="line2d_16">
      <g>
       <use xlink:href="#m9c872694dd" x="49.588125" y="475.677187" style="stroke: #000000; stroke-width: 0.8"/>
      </g>
     </g>
     <g id="text_9">
      <!-- 0.2 -->
      <g transform="translate(26.685 479.476406) scale(0.1 -0.1)">
       <use xlink:href="#DejaVuSans-30"/>
       <use xlink:href="#DejaVuSans-2e" x="63.623047"/>
       <use xlink:href="#DejaVuSans-32" x="95.410156"/>
      </g>
     </g>
    </g>
    <g id="ytick_3">
     <g id="line2d_17">
      <path d="M 49.588125 370.077187 
L 830.788125 370.077187 
" clip-path="url(#p14718e80a4)" style="fill: none; stroke: #b0b0b0; stroke-opacity: 0.3; stroke-width: 0.8; stroke-linecap: square"/>
     </g>
     <g id="line2d_18">
      <g>
       <use xlink:href="#m9c872694dd" x="49.588125" y="370.077187" style="stroke: #000000; stroke-width: 0.8"/>
      </g>
     </g>
     <g id="text_10">
      <!-- 0.4 -->
      <g transform="translate(26.685 373.876406) scale(0.1 -0.1)">
       <use xlink:href="#DejaVuSans-30"/>
       <use xlink:href="#DejaVuSans-2e" x="63.623047"/>
       <use xlink:href="#DejaVuSans-34" x="95.410156"/>
      </g>
     </g>
    </g>
    <g id="ytick_4">
     <g id="line2d_19">
      <path d="M 49.588125 264.477187 
L 830.788125 264.477187 
" clip-path="url(#p14718e80a4)" style="fill: none; stroke: #b0b0b0; stroke-opacity: 0.3; stroke-width: 0.8; stroke-linecap: square"/>
     </g>
     <g id="line2d_20">
      <g>
       <use xlink:href="#m9c872694dd" x="49.588125" y="264.477187" style="stroke: #000000; stroke-width: 0.8"/>
      </g>
     </g>
     <g id="text_11">
      <!-- 0.6 -->
      <g transform="translate(26.685 268.276406) scale(0.1 -0.1)">
       <use xlink:href="#DejaVuSans-30"/>
       <use xlink:href="#DejaVuSans-2e" x="63.623047"/>
       <use xlink:href="#DejaVuSans-36" x="95.410156"/>
      </g>
     </g>
    </g>
    <g id="ytick_5">
     <g id="line2d_21">
      <path d="M 49.588125 158.877187 
L 830.788125 158.877187 
" clip-path="url(#p14718e80a4)" style="fill: none; stroke: #b0b0b0; stroke-opacity: 0.3; stroke-width: 0.8; stroke-linecap: square"/>
     </g>
     <g id="line2d_22">
      <g>
       <use xlink:href="#m9c872694dd" x="49.588125" y="158.877187" style="stroke: #000000; stroke-width: 0.8"/>
      </g>
     </g>
     <g id="text_12">
      <!-- 0.8 -->
      <g transform="translate(26.685 162.676406) scale(0.1 -0.1)">
       <use xlink:href="#DejaVuSans-30"/>
       <use xlink:href="#DejaVuSans-2e" x="63.623047"/>
       <use xlink:href="#DejaVuSans-38" x="95.410156"/>
      </g>
     </g>
    </g>
    <g id="ytick_6">
     <g id="line2d_23">
      <path d="M 49.588125 53.277187 
L 830.788125 53.277187 
" clip-path="url(#p14718e80a4)" style="fill: none; stroke: #b0b0b0; stroke-opacity: 0.3; stroke-width: 0.8; stroke-linecap: square"/>
     </g>
     <g id="line2d_24">
      <g>
       <use xlink:href="#m9c872694dd" x="49.588125" y="53.277187" style="stroke: #000000; stroke-width: 0.8"/>
      </g>
     </g>
     <g id="text_13">
      <!-- 1.0 -->
      <g transform="translate(26.685 57.076406) scale(0.1 -0.1)">
       <use xlink:href="#DejaVuSans-31"/>
       <use xlink:href="#DejaVuSans-2e" x="63.623047"/>
       <use xlink:href="#DejaVuSans-30" x="95.410156"/>
      </g>
     </g>
    </g>
    <g id="text_14">
     <!-- True Positive Rate -->
     <g transform="translate(19.3575 375.324687) rotate(-90) scale(0.16 -0.16)">
      <defs>
       <path id="DejaVuSans-54" d="M -19 4666 
L 3928 4666 
L 3928 4134 
L 2272 4134 
L 2272 0 
L 1638 0 
L 1638 4134 
L -19 4134 
L -19 4666 
z
" transform="scale(0.015625)"/>
       <path id="DejaVuSans-72" d="M 2631 2963 
Q 2534 3019 2420 3045 
Q 2306 3072 2169 3072 
Q 1681 3072 1420 2755 
Q 1159 2438 1159 1844 
L 1159 0 
L 581 0 
L 581 3500 
L 1159 3500 
L 1159 2956 
Q 1341 3275 1631 3429 
Q 1922 3584 2338 3584 
Q 2397 3584 2469 3576 
Q 2541 3569 2628 3553 
L 2631 2963 
z
" transform="scale(0.015625)"/>
       <path id="DejaVuSans-75" d="M 544 1381 
L 544 3500 
L 1119 3500 
L 1119 1403 
Q 1119 906 1312 657 
Q 1506 409 1894 409 
Q 2359 409 2629 706 
Q 2900 1003 2900 1516 
L 2900 3500 
L 3475 3500 
L 3475 0 
L 2900 0 
L 2900 538 
Q 2691 219 2414 64 
Q 2138 -91 1772 -91 
Q 1169 -91 856 284 
Q 544 659 544 1381 
z
M 1991 3584 
L 1991 3584 
z
" transform="scale(0.015625)"/>
      </defs>
      <use xlink:href="#DejaVuSans-54"/>
      <use xlink:href="#DejaVuSans-72" x="46.333984"/>
      <use xlink:href="#DejaVuSans-75" x="87.447266"/>
      <use xlink:href="#DejaVuSans-65" x="150.826172"/>
      <use xlink:href="#DejaVuSans-20" x="212.349609"/>
      <use xlink:href="#DejaVuSans-50" x="244.136719"/>
      <use xlink:href="#DejaVuSans-6f" x="300.814453"/>
      <use xlink:href="#DejaVuSans-73" x="361.996094"/>
      <use xlink:href="#DejaVuSans-69" x="414.095703"/>
      <use xlink:href="#DejaVuSans-74" x="441.878906"/>
      <use xlink:href="#DejaVuSans-69" x="481.087891"/>
      <use xlink:href="#DejaVuSans-76" x="508.871094"/>
      <use xlink:href="#DejaVuSans-65" x="568.050781"/>
      <use xlink:href="#DejaVuSans-20" x="629.574219"/>
      <use xlink:href="#DejaVuSans-52" x="661.361328"/>
      <use xlink:href="#DejaVuSans-61" x="728.59375"/>
      <use xlink:href="#DejaVuSans-74" x="789.873047"/>
      <use xlink:href="#DejaVuSans-65" x="829.082031"/>
     </g>
    </g>
   </g>
   <g id="line2d_25">
    <path d="M 49.588125 403.517187 
L 57.479034 400.317187 
L 65.369943 397.117187 
L 73.260852 393.917187 
L 81.151761 296.423854 
L 89.04267 294.290521 
L 96.93358 292.157187 
L 104.824489 277.277187 
L 112.715398 274.077187 
L 120.606307 270.877187 
L 128.497216 232.637187 
L 136.388125 231.037187 
L 144.279034 229.437187 
L 152.169943 227.837187 
L 160.060852 210.397187 
L 167.951761 208.797187 
L 175.84267 207.197187 
L 183.73358 188.130521 
L 191.624489 186.797187 
L 199.515398 185.463854 
L 207.406307 175.277187 
L 215.297216 173.677187 
L 223.188125 172.077187 
L 231.079034 170.477187 
L 238.969943 156.557187 
L 246.860852 154.957187 
L 254.751761 153.357187 
L 262.64267 120.397187 
L 270.53358 119.330521 
L 278.424489 118.263854 
L 286.315398 111.837187 
L 294.206307 110.503854 
L 302.097216 109.170521 
L 309.988125 106.077187 
L 317.879034 105.010521 
L 325.769943 103.943854 
L 333.660852 102.877187 
L 341.551761 101.437187 
L 349.44267 99.837187 
L 357.33358 98.237187 
L 365.224489 91.783854 
L 373.115398 91.250521 
L 381.006307 90.717187 
L 388.897216 83.117187 
L 396.788125 82.317187 
L 404.679034 81.517187 
L 412.569943 80.717187 
L 420.460852 75.970521 
L 428.351761 74.637187 
L 436.24267 73.303854 
L 444.13358 68.583854 
L 452.024489 67.517187 
L 459.915398 66.450521 
L 467.806307 65.383854 
L 475.697216 64.317187 
L 483.588125 63.250521 
L 491.479034 62.183854 
L 499.369943 58.077187 
L 507.260852 57.543854 
L 515.151761 57.010521 
L 523.04267 56.797187 
L 530.93358 56.797187 
L 538.824489 56.797187 
L 546.715398 56.797187 
L 554.606307 56.797187 
L 562.497216 56.797187 
L 570.388125 56.797187 
L 578.279034 56.61941 
L 586.169943 56.441632 
L 594.060852 56.263854 
L 601.951761 56.086076 
L 609.84267 55.908299 
L 617.73358 55.730521 
L 625.624489 55.552743 
L 633.515398 55.374965 
L 641.406307 55.197187 
L 649.297216 53.277187 
L 657.188125 53.277187 
L 665.079034 53.277187 
L 672.969943 53.277187 
L 680.860852 53.277187 
L 688.751761 53.277187 
L 696.64267 53.277187 
L 704.53358 53.277187 
L 712.424489 53.277187 
L 720.315398 53.277187 
L 728.206307 53.277187 
L 736.097216 53.277187 
L 743.988125 53.277187 
L 751.879034 53.277187 
L 759.769943 53.277187 
L 767.660852 53.277187 
L 775.551761 53.277187 
L 783.44267 53.277187 
L 791.33358 53.277187 
L 799.224489 53.277187 
L 807.115398 53.277187 
L 815.006307 53.277187 
L 822.897216 53.277187 
L 830.788125 53.277187 
" clip-path="url(#p14718e80a4)" style="fill: none; stroke: #1f77b4; stroke-width: 2; stroke-linecap: square"/>
   </g>
   <g id="line2d_26">
    <path d="M 49.588125 415.837187 
L 57.479034 415.837187 
L 65.369943 415.837187 
L 73.260852 415.837187 
L 81.151761 364.797187 
L 89.04267 364.797187 
L 96.93358 364.797187 
L 104.824489 331.357187 
L 112.715398 331.357187 
L 120.606307 331.357187 
L 128.497216 267.997187 
L 136.388125 267.997187 
L 144.279034 267.997187 
L 152.169943 267.997187 
L 160.060852 241.597187 
L 167.951761 241.597187 
L 175.84267 241.597187 
L 183.73358 222.237187 
L 191.624489 222.237187 
L 199.515398 222.237187 
L 207.406307 185.277187 
L 215.297216 185.277187 
L 223.188125 185.277187 
L 231.079034 185.277187 
L 238.969943 171.197187 
L 246.860852 171.197187 
L 254.751761 171.197187 
L 262.64267 158.877187 
L 270.53358 158.877187 
L 278.424489 158.877187 
L 286.315398 134.237188 
L 294.206307 134.237188 
L 302.097216 134.237188 
L 309.988125 123.677187 
L 317.879034 123.677187 
L 325.769943 123.677187 
L 333.660852 123.677187 
L 341.551761 118.397187 
L 349.44267 118.397187 
L 357.33358 118.397187 
L 365.224489 102.557187 
L 373.115398 102.557187 
L 381.006307 102.557187 
L 388.897216 97.277187 
L 396.788125 97.277187 
L 404.679034 97.277187 
L 412.569943 97.277187 
L 420.460852 91.997187 
L 428.351761 91.997187 
L 436.24267 91.997187 
L 444.13358 86.717187 
L 452.024489 86.717187 
L 459.915398 86.717187 
L 467.806307 81.437187 
L 475.697216 81.437187 
L 483.588125 81.437187 
L 491.479034 81.437187 
L 499.369943 79.677187 
L 507.260852 79.677187 
L 515.151761 79.677187 
L 523.04267 70.877187 
L 530.93358 70.877187 
L 538.824489 70.877187 
L 546.715398 65.597187 
L 554.606307 65.597187 
L 562.497216 65.597187 
L 570.388125 63.837187 
L 578.279034 63.837187 
L 586.169943 63.837187 
L 594.060852 63.837187 
L 601.951761 62.077187 
L 609.84267 62.077187 
L 617.73358 62.077187 
L 625.624489 62.077187 
L 633.515398 62.077187 
L 641.406307 62.077187 
L 649.297216 58.557187 
L 657.188125 58.557187 
L 665.079034 58.557187 
L 672.969943 58.557187 
L 680.860852 58.557187 
L 688.751761 58.557187 
L 696.64267 58.557187 
L 704.53358 56.797187 
L 712.424489 56.797187 
L 720.315398 56.797187 
L 728.206307 56.797187 
L 736.097216 56.797187 
L 743.988125 56.797187 
L 751.879034 56.797187 
L 759.769943 53.277187 
L 767.660852 53.277187 
L 775.551761 53.277187 
L 783.44267 53.277187 
L 791.33358 53.277187 
L 799.224489 53.277187 
L 807.115398 53.277187 
L 815.006307 53.277187 
L 822.897216 53.277187 
L 830.788125 53.277187 
" clip-path="url(#p14718e80a4)" style="fill: none; stroke: #98df8a; stroke-width: 2; stroke-linecap: square"/>
   </g>
   <g id="line2d_27">
    <path d="M 49.588125 472.157187 
L 57.479034 472.157187 
L 65.369943 472.157187 
L 73.260852 472.157187 
L 81.151761 436.957187 
L 89.04267 436.957187 
L 96.93358 436.957187 
L 104.824489 380.637187 
L 112.715398 380.637187 
L 120.606307 380.637187 
L 128.497216 348.957187 
L 136.388125 348.957187 
L 144.279034 348.957187 
L 152.169943 348.957187 
L 160.060852 310.237187 
L 167.951761 310.237187 
L 175.84267 310.237187 
L 183.73358 275.037187 
L 191.624489 275.037187 
L 199.515398 275.037187 
L 207.406307 245.117187 
L 215.297216 245.117187 
L 223.188125 245.117187 
L 231.079034 245.117187 
L 238.969943 197.597187 
L 246.860852 197.597187 
L 254.751761 197.597187 
L 262.64267 178.237187 
L 270.53358 178.237187 
L 278.424489 178.237187 
L 286.315398 146.557187 
L 294.206307 146.557187 
L 302.097216 146.557187 
L 309.988125 121.917187 
L 317.879034 121.917187 
L 325.769943 121.917187 
L 333.660852 121.917187 
L 341.551761 116.637187 
L 349.44267 116.637187 
L 357.33358 116.637187 
L 365.224489 104.317187 
L 373.115398 104.317187 
L 381.006307 104.317187 
L 388.897216 102.557187 
L 396.788125 102.557187 
L 404.679034 102.557187 
L 412.569943 102.557187 
L 420.460852 93.757187 
L 428.351761 93.757187 
L 436.24267 93.757187 
L 444.13358 91.997187 
L 452.024489 91.997187 
L 459.915398 91.997187 
L 467.806307 90.237187 
L 475.697216 90.237187 
L 483.588125 90.237187 
L 491.479034 90.237187 
L 499.369943 84.957187 
L 507.260852 84.957187 
L 515.151761 84.957187 
L 523.04267 83.197187 
L 530.93358 83.197187 
L 538.824489 83.197187 
L 546.715398 77.917187 
L 554.606307 77.917187 
L 562.497216 77.917187 
L 570.388125 74.397187 
L 578.279034 74.397187 
L 586.169943 74.397187 
L 594.060852 74.397187 
L 601.951761 70.877187 
L 609.84267 70.877187 
L 617.73358 70.877187 
L 625.624489 69.117187 
L 633.515398 69.117187 
L 641.406307 69.117187 
L 649.297216 67.357187 
L 657.188125 67.357187 
L 665.079034 67.357187 
L 672.969943 67.357187 
L 680.860852 65.597187 
L 688.751761 65.597187 
L 696.64267 65.597187 
L 704.53358 65.597187 
L 712.424489 65.597187 
L 720.315398 65.597187 
L 728.206307 62.077187 
L 736.097216 62.077187 
L 743.988125 62.077187 
L 751.879034 62.077187 
L 759.769943 58.557187 
L 767.660852 58.557187 
L 775.551761 58.557187 
L 783.44267 58.557187 
L 791.33358 58.557187 
L 799.224489 58.557187 
L 807.115398 55.037187 
L 815.006307 55.037187 
L 822.897216 55.037187 
L 830.788125 53.277187 
" clip-path="url(#p14718e80a4)" style="fill: none; stroke: #8c564b; stroke-width: 2; stroke-linecap: square"/>
   </g>
   <g id="line2d_28">
    <path d="M 49.588125 433.437187 
L 57.479034 433.437187 
L 65.369943 433.437187 
L 73.260852 433.437187 
L 81.151761 384.157187 
L 89.04267 384.157187 
L 96.93358 384.157187 
L 104.824489 334.877187 
L 112.715398 334.877187 
L 120.606307 334.877187 
L 128.497216 287.357187 
L 136.388125 287.357187 
L 144.279034 287.357187 
L 152.169943 287.357187 
L 160.060852 236.317187 
L 167.951761 236.317187 
L 175.84267 236.317187 
L 183.73358 201.117187 
L 191.624489 201.117187 
L 199.515398 201.117187 
L 207.406307 157.117187 
L 215.297216 157.117187 
L 223.188125 157.117187 
L 231.079034 157.117187 
L 238.969943 130.717187 
L 246.860852 130.717187 
L 254.751761 130.717187 
L 262.64267 116.637187 
L 270.53358 116.637187 
L 278.424489 116.637187 
L 286.315398 95.517187 
L 294.206307 95.517187 
L 302.097216 95.517187 
L 309.988125 84.957187 
L 317.879034 84.957187 
L 325.769943 84.957187 
L 333.660852 84.957187 
L 341.551761 81.437187 
L 349.44267 81.437187 
L 357.33358 81.437187 
L 365.224489 79.677187 
L 373.115398 79.677187 
L 381.006307 79.677187 
L 388.897216 77.917187 
L 396.788125 77.917187 
L 404.679034 77.917187 
L 412.569943 77.917187 
L 420.460852 74.397187 
L 428.351761 74.397187 
L 436.24267 74.397187 
L 444.13358 74.397187 
L 452.024489 74.397187 
L 459.915398 74.397187 
L 467.806307 69.117187 
L 475.697216 69.117187 
L 483.588125 69.117187 
L 491.479034 69.117187 
L 499.369943 67.357187 
L 507.260852 67.357187 
L 515.151761 67.357187 
L 523.04267 65.597187 
L 530.93358 65.597187 
L 538.824489 65.597187 
L 546.715398 63.837187 
L 554.606307 63.837187 
L 562.497216 63.837187 
L 570.388125 62.077187 
L 578.279034 62.077187 
L 586.169943 62.077187 
L 594.060852 62.077187 
L 601.951761 60.317187 
L 609.84267 60.317187 
L 617.73358 60.317187 
L 625.624489 56.797187 
L 633.515398 56.797187 
L 641.406307 56.797187 
L 649.297216 56.797187 
L 657.188125 56.797187 
L 665.079034 56.797187 
L 672.969943 56.797187 
L 680.860852 56.797187 
L 688.751761 56.797187 
L 696.64267 56.797187 
L 704.53358 55.037187 
L 712.424489 55.037187 
L 720.315398 55.037187 
L 728.206307 55.037187 
L 736.097216 55.037187 
L 743.988125 55.037187 
L 751.879034 55.037187 
L 759.769943 53.277187 
L 767.660852 53.277187 
L 775.551761 53.277187 
L 783.44267 53.277187 
L 791.33358 53.277187 
L 799.224489 53.277187 
L 807.115398 53.277187 
L 815.006307 53.277187 
L 822.897216 53.277187 
L 830.788125 53.277187 
" clip-path="url(#p14718e80a4)" style="fill: none; stroke: #c7c7c7; stroke-width: 2; stroke-linecap: square"/>
   </g>
   <g id="line2d_29">
    <path d="M 49.588125 340.157187 
L 57.479034 340.157187 
L 65.369943 340.157187 
L 73.260852 340.157187 
L 81.151761 283.837187 
L 89.04267 283.837187 
L 96.93358 283.837187 
L 104.824489 253.917187 
L 112.715398 253.917187 
L 120.606307 253.917187 
L 128.497216 213.437187 
L 136.388125 213.437187 
L 144.279034 213.437187 
L 152.169943 213.437187 
L 160.060852 204.637187 
L 167.951761 204.637187 
L 175.84267 204.637187 
L 183.73358 176.477187 
L 191.624489 176.477187 
L 199.515398 176.477187 
L 207.406307 153.597187 
L 215.297216 153.597187 
L 223.188125 153.597187 
L 231.079034 153.597187 
L 238.969943 125.437187 
L 246.860852 125.437187 
L 254.751761 125.437187 
L 262.64267 107.837187 
L 270.53358 107.837187 
L 278.424489 107.837187 
L 286.315398 91.997187 
L 294.206307 91.997187 
L 302.097216 91.997187 
L 309.988125 79.677187 
L 317.879034 79.677187 
L 325.769943 79.677187 
L 333.660852 79.677187 
L 341.551761 74.397187 
L 349.44267 74.397187 
L 357.33358 74.397187 
L 365.224489 72.637187 
L 373.115398 72.637187 
L 381.006307 72.637187 
L 388.897216 72.637187 
L 396.788125 72.637187 
L 404.679034 72.637187 
L 412.569943 72.637187 
L 420.460852 72.637187 
L 428.351761 72.637187 
L 436.24267 72.637187 
L 444.13358 69.117187 
L 452.024489 69.117187 
L 459.915398 69.117187 
L 467.806307 69.117187 
L 475.697216 69.117187 
L 483.588125 69.117187 
L 491.479034 69.117187 
L 499.369943 69.117187 
L 507.260852 69.117187 
L 515.151761 69.117187 
L 523.04267 65.597187 
L 530.93358 65.597187 
L 538.824489 65.597187 
L 546.715398 62.077187 
L 554.606307 62.077187 
L 562.497216 62.077187 
L 570.388125 62.077187 
L 578.279034 62.077187 
L 586.169943 62.077187 
L 594.060852 62.077187 
L 601.951761 58.557187 
L 609.84267 58.557187 
L 617.73358 58.557187 
L 625.624489 56.797187 
L 633.515398 56.797187 
L 641.406307 56.797187 
L 649.297216 55.037187 
L 657.188125 55.037187 
L 665.079034 55.037187 
L 672.969943 55.037187 
L 680.860852 55.037187 
L 688.751761 55.037187 
L 696.64267 55.037187 
L 704.53358 55.037187 
L 712.424489 55.037187 
L 720.315398 55.037187 
L 728.206307 53.277187 
L 736.097216 53.277187 
L 743.988125 53.277187 
L 751.879034 53.277187 
L 759.769943 53.277187 
L 767.660852 53.277187 
L 775.551761 53.277187 
L 783.44267 53.277187 
L 791.33358 53.277187 
L 799.224489 53.277187 
L 807.115398 53.277187 
L 815.006307 53.277187 
L 822.897216 53.277187 
L 830.788125 53.277187 
" clip-path="url(#p14718e80a4)" style="fill: none; stroke: #9edae5; stroke-width: 2; stroke-linecap: square"/>
   </g>
   <g id="line2d_30">
    <path d="M 49.588125 581.277187 
L 830.788125 53.277187 
" clip-path="url(#p14718e80a4)" style="fill: none; stroke-dasharray: 7.4,3.2; stroke-dashoffset: 0; stroke: #808080; stroke-opacity: 0.8; stroke-width: 2"/>
   </g>
   <g id="patch_3">
    <path d="M 49.588125 581.277187 
L 49.588125 26.877187 
" style="fill: none; stroke: #000000; stroke-width: 0.8; stroke-linejoin: miter; stroke-linecap: square"/>
   </g>
   <g id="patch_4">
    <path d="M 830.788125 581.277187 
L 830.788125 26.877187 
" style="fill: none; stroke: #000000; stroke-width: 0.8; stroke-linejoin: miter; stroke-linecap: square"/>
   </g>
   <g id="patch_5">
    <path d="M 49.588125 581.277187 
L 830.788125 581.277187 
" style="fill: none; stroke: #000000; stroke-width: 0.8; stroke-linejoin: miter; stroke-linecap: square"/>
   </g>
   <g id="patch_6">
    <path d="M 49.588125 26.877187 
L 830.788125 26.877187 
" style="fill: none; stroke: #000000; stroke-width: 0.8; stroke-linejoin: miter; stroke-linecap: square"/>
   </g>
   <g id="text_15">
    <!-- Comprehensive ROC Curves Comparison -->
    <g transform="translate(256.551563 20.877187) scale(0.18 -0.18)">
     <defs>
      <path id="DejaVuSans-43" d="M 4122 4306 
L 4122 3641 
Q 3803 3938 3442 4084 
Q 3081 4231 2675 4231 
Q 1875 4231 1450 3742 
Q 1025 3253 1025 2328 
Q 1025 1406 1450 917 
Q 1875 428 2675 428 
Q 3081 428 3442 575 
Q 3803 722 4122 1019 
L 4122 359 
Q 3791 134 3420 21 
Q 3050 -91 2638 -91 
Q 1578 -91 968 557 
Q 359 1206 359 2328 
Q 359 3453 968 4101 
Q 1578 4750 2638 4750 
Q 3056 4750 3426 4639 
Q 3797 4528 4122 4306 
z
" transform="scale(0.015625)"/>
      <path id="DejaVuSans-6d" d="M 3328 2828 
Q 3544 3216 3844 3400 
Q 4144 3584 4550 3584 
Q 5097 3584 5394 3201 
Q 5691 2819 5691 2113 
L 5691 0 
L 5113 0 
L 5113 2094 
Q 5113 2597 4934 2840 
Q 4756 3084 4391 3084 
Q 3944 3084 3684 2787 
Q 3425 2491 3425 1978 
L 3425 0 
L 2847 0 
L 2847 2094 
Q 2847 2600 2669 2842 
Q 2491 3084 2119 3084 
Q 1678 3084 1418 2786 
Q 1159 2488 1159 1978 
L 1159 0 
L 581 0 
L 581 3500 
L 1159 3500 
L 1159 2956 
Q 1356 3278 1631 3431 
Q 1906 3584 2284 3584 
Q 2666 3584 2933 3390 
Q 3200 3197 3328 2828 
z
" transform="scale(0.015625)"/>
      <path id="DejaVuSans-70" d="M 1159 525 
L 1159 -1331 
L 581 -1331 
L 581 3500 
L 1159 3500 
L 1159 2969 
Q 1341 3281 1617 3432 
Q 1894 3584 2278 3584 
Q 2916 3584 3314 3078 
Q 3713 2572 3713 1747 
Q 3713 922 3314 415 
Q 2916 -91 2278 -91 
Q 1894 -91 1617 61 
Q 1341 213 1159 525 
z
M 3116 1747 
Q 3116 2381 2855 2742 
Q 2594 3103 2138 3103 
Q 1681 3103 1420 2742 
Q 1159 2381 1159 1747 
Q 1159 1113 1420 752 
Q 1681 391 2138 391 
Q 2594 391 2855 752 
Q 3116 1113 3116 1747 
z
" transform="scale(0.015625)"/>
      <path id="DejaVuSans-68" d="M 3513 2113 
L 3513 0 
L 2938 0 
L 2938 2094 
Q 2938 2591 2744 2837 
Q 2550 3084 2163 3084 
Q 1697 3084 1428 2787 
Q 1159 2491 1159 1978 
L 1159 0 
L 581 0 
L 581 4863 
L 1159 4863 
L 1159 2956 
Q 1366 3272 1645 3428 
Q 1925 3584 2291 3584 
Q 2894 3584 3203 3211 
Q 3513 2838 3513 2113 
z
" transform="scale(0.015625)"/>
      <path id="DejaVuSans-6e" d="M 3513 2113 
L 3513 0 
L 2938 0 
L 2938 2094 
Q 2938 2591 2744 2837 
Q 2550 3084 2163 3084 
Q 1697 3084 1428 2787 
Q 1159 2491 1159 1978 
L 1159 0 
L 581 0 
L 581 3500 
L 1159 3500 
L 1159 2956 
Q 1366 3272 1645 3428 
Q 1925 3584 2291 3584 
Q 2894 3584 3203 3211 
Q 3513 2838 3513 2113 
z
" transform="scale(0.015625)"/>
      <path id="DejaVuSans-4f" d="M 2522 4238 
Q 1834 4238 1429 3725 
Q 1025 3213 1025 2328 
Q 1025 1447 1429 934 
Q 1834 422 2522 422 
Q 3209 422 3611 934 
Q 4013 1447 4013 2328 
Q 4013 3213 3611 3725 
Q 3209 4238 2522 4238 
z
M 2522 4750 
Q 3503 4750 4090 4092 
Q 4678 3434 4678 2328 
Q 4678 1225 4090 567 
Q 3503 -91 2522 -91 
Q 1538 -91 948 565 
Q 359 1222 359 2328 
Q 359 3434 948 4092 
Q 1538 4750 2522 4750 
z
" transform="scale(0.015625)"/>
     </defs>
     <use xlink:href="#DejaVuSans-43"/>
     <use xlink:href="#DejaVuSans-6f" x="69.824219"/>
     <use xlink:href="#DejaVuSans-6d" x="131.005859"/>
     <use xlink:href="#DejaVuSans-70" x="228.417969"/>
     <use xlink:href="#DejaVuSans-72" x="291.894531"/>
     <use xlink:href="#DejaVuSans-65" x="330.757812"/>
     <use xlink:href="#DejaVuSans-68" x="392.28125"/>
     <use xlink:href="#DejaVuSans-65" x="455.660156"/>
     <use xlink:href="#DejaVuSans-6e" x="517.183594"/>
     <use xlink:href="#DejaVuSans-73" x="580.5625"/>
     <use xlink:href="#DejaVuSans-69" x="632.662109"/>
     <use xlink:href="#DejaVuSans-76" x="660.445312"/>
     <use xlink:href="#DejaVuSans-65" x="719.625"/>
     <use xlink:href="#DejaVuSans-20" x="781.148438"/>
     <use xlink:href="#DejaVuSans-52" x="812.935547"/>
     <use xlink:href="#DejaVuSans-4f" x="882.417969"/>
     <use xlink:href="#DejaVuSans-43" x="961.128906"/>
     <use xlink:href="#DejaVuSans-20" x="1030.953125"/>
     <use xlink:href="#DejaVuSans-43" x="1062.740234"/>
     <use xlink:href="#DejaVuSans-75" x="1132.564453"/>
     <use xlink:href="#DejaVuSans-72" x="1195.943359"/>
     <use xlink:href="#DejaVuSans-76" x="1237.056641"/>
     <use xlink:href="#DejaVuSans-65" x="1296.236328"/>
     <use xlink:href="#DejaVuSans-73" x="1357.759766"/>
     <use xlink:href="#DejaVuSans-20" x="1409.859375"/>
     <use xlink:href="#DejaVuSans-43" x="1441.646484"/>
     <use xlink:href="#DejaVuSans-6f" x="1511.470703"/>
     <use xlink:href="#DejaVuSans-6d" x="1572.652344"/>
     <use xlink:href="#DejaVuSans-70" x="1670.064453"/>
     <use xlink:href="#DejaVuSans-61" x="1733.541016"/>
     <use xlink:href="#DejaVuSans-72" x="1794.820312"/>
     <use xlink:href="#DejaVuSans-69" x="1835.933594"/>
     <use xlink:href="#DejaVuSans-73" x="1863.716797"/>
     <use xlink:href="#DejaVuSans-6f" x="1915.816406"/>
     <use xlink:href="#DejaVuSans-6e" x="1976.998047"/>
    </g>
   </g>
   <g id="legend_1">
    <g id="patch_7">
     <path d="M 878.248125 349.911562 
L 1163.930625 349.911562 
Q 1166.330625 349.911562 1166.330625 347.511562 
L 1166.330625 260.642812 
Q 1166.330625 258.242812 1163.930625 258.242812 
L 878.248125 258.242812 
Q 875.848125 258.242812 875.848125 260.642812 
L 875.848125 347.511562 
Q 875.848125 349.911562 878.248125 349.911562 
z
" style="fill: #ffffff; opacity: 0.8; stroke: #cccccc; stroke-linejoin: miter"/>
    </g>
    <g id="line2d_31">
     <path d="M 880.648125 267.960937 
L 892.648125 267.960937 
L 904.648125 267.960937 
" style="fill: none; stroke: #1f77b4; stroke-width: 2; stroke-linecap: square"/>
    </g>
    <g id="text_16">
     <!-- RandomForest (AUC = 0.883  0.012) -->
     <g transform="translate(914.248125 272.160937) scale(0.12 -0.12)">
      <defs>
       <path id="DejaVuSans-64" d="M 2906 2969 
L 2906 4863 
L 3481 4863 
L 3481 0 
L 2906 0 
L 2906 525 
Q 2725 213 2448 61 
Q 2172 -91 1784 -91 
Q 1150 -91 751 415 
Q 353 922 353 1747 
Q 353 2572 751 3078 
Q 1150 3584 1784 3584 
Q 2172 3584 2448 3432 
Q 2725 3281 2906 2969 
z
M 947 1747 
Q 947 1113 1208 752 
Q 1469 391 1925 391 
Q 2381 391 2643 752 
Q 2906 1113 2906 1747 
Q 2906 2381 2643 2742 
Q 2381 3103 1925 3103 
Q 1469 3103 1208 2742 
Q 947 2381 947 1747 
z
" transform="scale(0.015625)"/>
       <path id="DejaVuSans-28" d="M 1984 4856 
Q 1566 4138 1362 3434 
Q 1159 2731 1159 2009 
Q 1159 1288 1364 580 
Q 1569 -128 1984 -844 
L 1484 -844 
Q 1016 -109 783 600 
Q 550 1309 550 2009 
Q 550 2706 781 3412 
Q 1013 4119 1484 4856 
L 1984 4856 
z
" transform="scale(0.015625)"/>
       <path id="DejaVuSans-41" d="M 2188 4044 
L 1331 1722 
L 3047 1722 
L 2188 4044 
z
M 1831 4666 
L 2547 4666 
L 4325 0 
L 3669 0 
L 3244 1197 
L 1141 1197 
L 716 0 
L 50 0 
L 1831 4666 
z
" transform="scale(0.015625)"/>
       <path id="DejaVuSans-55" d="M 556 4666 
L 1191 4666 
L 1191 1831 
Q 1191 1081 1462 751 
Q 1734 422 2344 422 
Q 2950 422 3222 751 
Q 3494 1081 3494 1831 
L 3494 4666 
L 4128 4666 
L 4128 1753 
Q 4128 841 3676 375 
Q 3225 -91 2344 -91 
Q 1459 -91 1007 375 
Q 556 841 556 1753 
L 556 4666 
z
" transform="scale(0.015625)"/>
       <path id="DejaVuSans-3d" d="M 678 2906 
L 4684 2906 
L 4684 2381 
L 678 2381 
L 678 2906 
z
M 678 1631 
L 4684 1631 
L 4684 1100 
L 678 1100 
L 678 1631 
z
" transform="scale(0.015625)"/>
       <path id="DejaVuSans-33" d="M 2597 2516 
Q 3050 2419 3304 2112 
Q 3559 1806 3559 1356 
Q 3559 666 3084 287 
Q 2609 -91 1734 -91 
Q 1441 -91 1130 -33 
Q 819 25 488 141 
L 488 750 
Q 750 597 1062 519 
Q 1375 441 1716 441 
Q 2309 441 2620 675 
Q 2931 909 2931 1356 
Q 2931 1769 2642 2001 
Q 2353 2234 1838 2234 
L 1294 2234 
L 1294 2753 
L 1863 2753 
Q 2328 2753 2575 2939 
Q 2822 3125 2822 3475 
Q 2822 3834 2567 4026 
Q 2313 4219 1838 4219 
Q 1578 4219 1281 4162 
Q 984 4106 628 3988 
L 628 4550 
Q 988 4650 1302 4700 
Q 1616 4750 1894 4750 
Q 2613 4750 3031 4423 
Q 3450 4097 3450 3541 
Q 3450 3153 3228 2886 
Q 3006 2619 2597 2516 
z
" transform="scale(0.015625)"/>
       <path id="DejaVuSans-b1" d="M 2944 4013 
L 2944 2803 
L 4684 2803 
L 4684 2272 
L 2944 2272 
L 2944 1063 
L 2419 1063 
L 2419 2272 
L 678 2272 
L 678 2803 
L 2419 2803 
L 2419 4013 
L 2944 4013 
z
M 678 531 
L 4684 531 
L 4684 0 
L 678 0 
L 678 531 
z
" transform="scale(0.015625)"/>
       <path id="DejaVuSans-29" d="M 513 4856 
L 1013 4856 
Q 1481 4119 1714 3412 
Q 1947 2706 1947 2009 
Q 1947 1309 1714 600 
Q 1481 -109 1013 -844 
L 513 -844 
Q 928 -128 1133 580 
Q 1338 1288 1338 2009 
Q 1338 2731 1133 3434 
Q 928 4138 513 4856 
z
" transform="scale(0.015625)"/>
      </defs>
      <use xlink:href="#DejaVuSans-52"/>
      <use xlink:href="#DejaVuSans-61" x="67.232422"/>
      <use xlink:href="#DejaVuSans-6e" x="128.511719"/>
      <use xlink:href="#DejaVuSans-64" x="191.890625"/>
      <use xlink:href="#DejaVuSans-6f" x="255.367188"/>
      <use xlink:href="#DejaVuSans-6d" x="316.548828"/>
      <use xlink:href="#DejaVuSans-46" x="413.960938"/>
      <use xlink:href="#DejaVuSans-6f" x="467.855469"/>
      <use xlink:href="#DejaVuSans-72" x="529.037109"/>
      <use xlink:href="#DejaVuSans-65" x="567.900391"/>
      <use xlink:href="#DejaVuSans-73" x="629.423828"/>
      <use xlink:href="#DejaVuSans-74" x="681.523438"/>
      <use xlink:href="#DejaVuSans-20" x="720.732422"/>
      <use xlink:href="#DejaVuSans-28" x="752.519531"/>
      <use xlink:href="#DejaVuSans-41" x="791.533203"/>
      <use xlink:href="#DejaVuSans-55" x="859.941406"/>
      <use xlink:href="#DejaVuSans-43" x="933.134766"/>
      <use xlink:href="#DejaVuSans-20" x="1002.958984"/>
      <use xlink:href="#DejaVuSans-3d" x="1034.746094"/>
      <use xlink:href="#DejaVuSans-20" x="1118.535156"/>
      <use xlink:href="#DejaVuSans-30" x="1150.322266"/>
      <use xlink:href="#DejaVuSans-2e" x="1213.945312"/>
      <use xlink:href="#DejaVuSans-38" x="1245.732422"/>
      <use xlink:href="#DejaVuSans-38" x="1309.355469"/>
      <use xlink:href="#DejaVuSans-33" x="1372.978516"/>
      <use xlink:href="#DejaVuSans-20" x="1436.601562"/>
      <use xlink:href="#DejaVuSans-b1" x="1468.388672"/>
      <use xlink:href="#DejaVuSans-20" x="1552.177734"/>
      <use xlink:href="#DejaVuSans-30" x="1583.964844"/>
      <use xlink:href="#DejaVuSans-2e" x="1647.587891"/>
      <use xlink:href="#DejaVuSans-30" x="1679.375"/>
      <use xlink:href="#DejaVuSans-31" x="1742.998047"/>
      <use xlink:href="#DejaVuSans-32" x="1806.621094"/>
      <use xlink:href="#DejaVuSans-29" x="1870.244141"/>
     </g>
    </g>
    <g id="line2d_32">
     <path d="M 880.648125 285.574687 
L 892.648125 285.574687 
L 904.648125 285.574687 
" style="fill: none; stroke: #98df8a; stroke-width: 2; stroke-linecap: square"/>
    </g>
    <g id="text_17">
     <!-- XGBoost (AUC = 0.849  0.026) -->
     <g transform="translate(914.248125 289.774687) scale(0.12 -0.12)">
      <defs>
       <path id="DejaVuSans-58" d="M 403 4666 
L 1081 4666 
L 2241 2931 
L 3406 4666 
L 4084 4666 
L 2584 2425 
L 4184 0 
L 3506 0 
L 2194 1984 
L 872 0 
L 191 0 
L 1856 2491 
L 403 4666 
z
" transform="scale(0.015625)"/>
       <path id="DejaVuSans-47" d="M 3809 666 
L 3809 1919 
L 2778 1919 
L 2778 2438 
L 4434 2438 
L 4434 434 
Q 4069 175 3628 42 
Q 3188 -91 2688 -91 
Q 1594 -91 976 548 
Q 359 1188 359 2328 
Q 359 3472 976 4111 
Q 1594 4750 2688 4750 
Q 3144 4750 3555 4637 
Q 3966 4525 4313 4306 
L 4313 3634 
Q 3963 3931 3569 4081 
Q 3175 4231 2741 4231 
Q 1884 4231 1454 3753 
Q 1025 3275 1025 2328 
Q 1025 1384 1454 906 
Q 1884 428 2741 428 
Q 3075 428 3337 486 
Q 3600 544 3809 666 
z
" transform="scale(0.015625)"/>
       <path id="DejaVuSans-42" d="M 1259 2228 
L 1259 519 
L 2272 519 
Q 2781 519 3026 730 
Q 3272 941 3272 1375 
Q 3272 1813 3026 2020 
Q 2781 2228 2272 2228 
L 1259 2228 
z
M 1259 4147 
L 1259 2741 
L 2194 2741 
Q 2656 2741 2882 2914 
Q 3109 3088 3109 3444 
Q 3109 3797 2882 3972 
Q 2656 4147 2194 4147 
L 1259 4147 
z
M 628 4666 
L 2241 4666 
Q 2963 4666 3353 4366 
Q 3744 4066 3744 3513 
Q 3744 3084 3544 2831 
Q 3344 2578 2956 2516 
Q 3422 2416 3680 2098 
Q 3938 1781 3938 1306 
Q 3938 681 3513 340 
Q 3088 0 2303 0 
L 628 0 
L 628 4666 
z
" transform="scale(0.015625)"/>
       <path id="DejaVuSans-39" d="M 703 97 
L 703 672 
Q 941 559 1184 500 
Q 1428 441 1663 441 
Q 2288 441 2617 861 
Q 2947 1281 2994 2138 
Q 2813 1869 2534 1725 
Q 2256 1581 1919 1581 
Q 1219 1581 811 2004 
Q 403 2428 403 3163 
Q 403 3881 828 4315 
Q 1253 4750 1959 4750 
Q 2769 4750 3195 4129 
Q 3622 3509 3622 2328 
Q 3622 1225 3098 567 
Q 2575 -91 1691 -91 
Q 1453 -91 1209 -44 
Q 966 3 703 97 
z
M 1959 2075 
Q 2384 2075 2632 2365 
Q 2881 2656 2881 3163 
Q 2881 3666 2632 3958 
Q 2384 4250 1959 4250 
Q 1534 4250 1286 3958 
Q 1038 3666 1038 3163 
Q 1038 2656 1286 2365 
Q 1534 2075 1959 2075 
z
" transform="scale(0.015625)"/>
      </defs>
      <use xlink:href="#DejaVuSans-58"/>
      <use xlink:href="#DejaVuSans-47" x="68.505859"/>
      <use xlink:href="#DejaVuSans-42" x="145.996094"/>
      <use xlink:href="#DejaVuSans-6f" x="214.599609"/>
      <use xlink:href="#DejaVuSans-6f" x="275.78125"/>
      <use xlink:href="#DejaVuSans-73" x="336.962891"/>
      <use xlink:href="#DejaVuSans-74" x="389.0625"/>
      <use xlink:href="#DejaVuSans-20" x="428.271484"/>
      <use xlink:href="#DejaVuSans-28" x="460.058594"/>
      <use xlink:href="#DejaVuSans-41" x="499.072266"/>
      <use xlink:href="#DejaVuSans-55" x="567.480469"/>
      <use xlink:href="#DejaVuSans-43" x="640.673828"/>
      <use xlink:href="#DejaVuSans-20" x="710.498047"/>
      <use xlink:href="#DejaVuSans-3d" x="742.285156"/>
      <use xlink:href="#DejaVuSans-20" x="826.074219"/>
      <use xlink:href="#DejaVuSans-30" x="857.861328"/>
      <use xlink:href="#DejaVuSans-2e" x="921.484375"/>
      <use xlink:href="#DejaVuSans-38" x="953.271484"/>
      <use xlink:href="#DejaVuSans-34" x="1016.894531"/>
      <use xlink:href="#DejaVuSans-39" x="1080.517578"/>
      <use xlink:href="#DejaVuSans-20" x="1144.140625"/>
      <use xlink:href="#DejaVuSans-b1" x="1175.927734"/>
      <use xlink:href="#DejaVuSans-20" x="1259.716797"/>
      <use xlink:href="#DejaVuSans-30" x="1291.503906"/>
      <use xlink:href="#DejaVuSans-2e" x="1355.126953"/>
      <use xlink:href="#DejaVuSans-30" x="1386.914062"/>
      <use xlink:href="#DejaVuSans-32" x="1450.537109"/>
      <use xlink:href="#DejaVuSans-36" x="1514.160156"/>
      <use xlink:href="#DejaVuSans-29" x="1577.783203"/>
     </g>
    </g>
    <g id="line2d_33">
     <path d="M 880.648125 303.188437 
L 892.648125 303.188437 
L 904.648125 303.188437 
" style="fill: none; stroke: #8c564b; stroke-width: 2; stroke-linecap: square"/>
    </g>
    <g id="text_18">
     <!-- AdaBoost (AUC = 0.810  0.043) -->
     <g transform="translate(914.248125 307.388437) scale(0.12 -0.12)">
      <use xlink:href="#DejaVuSans-41"/>
      <use xlink:href="#DejaVuSans-64" x="66.658203"/>
      <use xlink:href="#DejaVuSans-61" x="130.134766"/>
      <use xlink:href="#DejaVuSans-42" x="191.414062"/>
      <use xlink:href="#DejaVuSans-6f" x="260.017578"/>
      <use xlink:href="#DejaVuSans-6f" x="321.199219"/>
      <use xlink:href="#DejaVuSans-73" x="382.380859"/>
      <use xlink:href="#DejaVuSans-74" x="434.480469"/>
      <use xlink:href="#DejaVuSans-20" x="473.689453"/>
      <use xlink:href="#DejaVuSans-28" x="505.476562"/>
      <use xlink:href="#DejaVuSans-41" x="544.490234"/>
      <use xlink:href="#DejaVuSans-55" x="612.898438"/>
      <use xlink:href="#DejaVuSans-43" x="686.091797"/>
      <use xlink:href="#DejaVuSans-20" x="755.916016"/>
      <use xlink:href="#DejaVuSans-3d" x="787.703125"/>
      <use xlink:href="#DejaVuSans-20" x="871.492188"/>
      <use xlink:href="#DejaVuSans-30" x="903.279297"/>
      <use xlink:href="#DejaVuSans-2e" x="966.902344"/>
      <use xlink:href="#DejaVuSans-38" x="998.689453"/>
      <use xlink:href="#DejaVuSans-31" x="1062.3125"/>
      <use xlink:href="#DejaVuSans-30" x="1125.935547"/>
      <use xlink:href="#DejaVuSans-20" x="1189.558594"/>
      <use xlink:href="#DejaVuSans-b1" x="1221.345703"/>
      <use xlink:href="#DejaVuSans-20" x="1305.134766"/>
      <use xlink:href="#DejaVuSans-30" x="1336.921875"/>
      <use xlink:href="#DejaVuSans-2e" x="1400.544922"/>
      <use xlink:href="#DejaVuSans-30" x="1432.332031"/>
      <use xlink:href="#DejaVuSans-34" x="1495.955078"/>
      <use xlink:href="#DejaVuSans-33" x="1559.578125"/>
      <use xlink:href="#DejaVuSans-29" x="1623.201172"/>
     </g>
    </g>
    <g id="line2d_34">
     <path d="M 880.648125 320.802187 
L 892.648125 320.802187 
L 904.648125 320.802187 
" style="fill: none; stroke: #c7c7c7; stroke-width: 2; stroke-linecap: square"/>
    </g>
    <g id="text_19">
     <!-- GradientBoosting (AUC = 0.869  0.019) -->
     <g transform="translate(914.248125 325.002187) scale(0.12 -0.12)">
      <defs>
       <path id="DejaVuSans-67" d="M 2906 1791 
Q 2906 2416 2648 2759 
Q 2391 3103 1925 3103 
Q 1463 3103 1205 2759 
Q 947 2416 947 1791 
Q 947 1169 1205 825 
Q 1463 481 1925 481 
Q 2391 481 2648 825 
Q 2906 1169 2906 1791 
z
M 3481 434 
Q 3481 -459 3084 -895 
Q 2688 -1331 1869 -1331 
Q 1566 -1331 1297 -1286 
Q 1028 -1241 775 -1147 
L 775 -588 
Q 1028 -725 1275 -790 
Q 1522 -856 1778 -856 
Q 2344 -856 2625 -561 
Q 2906 -266 2906 331 
L 2906 616 
Q 2728 306 2450 153 
Q 2172 0 1784 0 
Q 1141 0 747 490 
Q 353 981 353 1791 
Q 353 2603 747 3093 
Q 1141 3584 1784 3584 
Q 2172 3584 2450 3431 
Q 2728 3278 2906 2969 
L 2906 3500 
L 3481 3500 
L 3481 434 
z
" transform="scale(0.015625)"/>
      </defs>
      <use xlink:href="#DejaVuSans-47"/>
      <use xlink:href="#DejaVuSans-72" x="77.490234"/>
      <use xlink:href="#DejaVuSans-61" x="118.603516"/>
      <use xlink:href="#DejaVuSans-64" x="179.882812"/>
      <use xlink:href="#DejaVuSans-69" x="243.359375"/>
      <use xlink:href="#DejaVuSans-65" x="271.142578"/>
      <use xlink:href="#DejaVuSans-6e" x="332.666016"/>
      <use xlink:href="#DejaVuSans-74" x="396.044922"/>
      <use xlink:href="#DejaVuSans-42" x="435.253906"/>
      <use xlink:href="#DejaVuSans-6f" x="503.857422"/>
      <use xlink:href="#DejaVuSans-6f" x="565.039062"/>
      <use xlink:href="#DejaVuSans-73" x="626.220703"/>
      <use xlink:href="#DejaVuSans-74" x="678.320312"/>
      <use xlink:href="#DejaVuSans-69" x="717.529297"/>
      <use xlink:href="#DejaVuSans-6e" x="745.3125"/>
      <use xlink:href="#DejaVuSans-67" x="808.691406"/>
      <use xlink:href="#DejaVuSans-20" x="872.167969"/>
      <use xlink:href="#DejaVuSans-28" x="903.955078"/>
      <use xlink:href="#DejaVuSans-41" x="942.96875"/>
      <use xlink:href="#DejaVuSans-55" x="1011.376953"/>
      <use xlink:href="#DejaVuSans-43" x="1084.570312"/>
      <use xlink:href="#DejaVuSans-20" x="1154.394531"/>
      <use xlink:href="#DejaVuSans-3d" x="1186.181641"/>
      <use xlink:href="#DejaVuSans-20" x="1269.970703"/>
      <use xlink:href="#DejaVuSans-30" x="1301.757812"/>
      <use xlink:href="#DejaVuSans-2e" x="1365.380859"/>
      <use xlink:href="#DejaVuSans-38" x="1397.167969"/>
      <use xlink:href="#DejaVuSans-36" x="1460.791016"/>
      <use xlink:href="#DejaVuSans-39" x="1524.414062"/>
      <use xlink:href="#DejaVuSans-20" x="1588.037109"/>
      <use xlink:href="#DejaVuSans-b1" x="1619.824219"/>
      <use xlink:href="#DejaVuSans-20" x="1703.613281"/>
      <use xlink:href="#DejaVuSans-30" x="1735.400391"/>
      <use xlink:href="#DejaVuSans-2e" x="1799.023438"/>
      <use xlink:href="#DejaVuSans-30" x="1830.810547"/>
      <use xlink:href="#DejaVuSans-31" x="1894.433594"/>
      <use xlink:href="#DejaVuSans-39" x="1958.056641"/>
      <use xlink:href="#DejaVuSans-29" x="2021.679688"/>
     </g>
    </g>
    <g id="line2d_35">
     <path d="M 880.648125 338.415937 
L 892.648125 338.415937 
L 904.648125 338.415937 
" style="fill: none; stroke: #9edae5; stroke-width: 2; stroke-linecap: square"/>
    </g>
    <g id="text_20">
     <!-- CatBoost (AUC = 0.898  0.010) -->
     <g transform="translate(914.248125 342.615937) scale(0.12 -0.12)">
      <use xlink:href="#DejaVuSans-43"/>
      <use xlink:href="#DejaVuSans-61" x="69.824219"/>
      <use xlink:href="#DejaVuSans-74" x="131.103516"/>
      <use xlink:href="#DejaVuSans-42" x="170.3125"/>
      <use xlink:href="#DejaVuSans-6f" x="238.916016"/>
      <use xlink:href="#DejaVuSans-6f" x="300.097656"/>
      <use xlink:href="#DejaVuSans-73" x="361.279297"/>
      <use xlink:href="#DejaVuSans-74" x="413.378906"/>
      <use xlink:href="#DejaVuSans-20" x="452.587891"/>
      <use xlink:href="#DejaVuSans-28" x="484.375"/>
      <use xlink:href="#DejaVuSans-41" x="523.388672"/>
      <use xlink:href="#DejaVuSans-55" x="591.796875"/>
      <use xlink:href="#DejaVuSans-43" x="664.990234"/>
      <use xlink:href="#DejaVuSans-20" x="734.814453"/>
      <use xlink:href="#DejaVuSans-3d" x="766.601562"/>
      <use xlink:href="#DejaVuSans-20" x="850.390625"/>
      <use xlink:href="#DejaVuSans-30" x="882.177734"/>
      <use xlink:href="#DejaVuSans-2e" x="945.800781"/>
      <use xlink:href="#DejaVuSans-38" x="977.587891"/>
      <use xlink:href="#DejaVuSans-39" x="1041.210938"/>
      <use xlink:href="#DejaVuSans-38" x="1104.833984"/>
      <use xlink:href="#DejaVuSans-20" x="1168.457031"/>
      <use xlink:href="#DejaVuSans-b1" x="1200.244141"/>
      <use xlink:href="#DejaVuSans-20" x="1284.033203"/>
      <use xlink:href="#DejaVuSans-30" x="1315.820312"/>
      <use xlink:href="#DejaVuSans-2e" x="1379.443359"/>
      <use xlink:href="#DejaVuSans-30" x="1411.230469"/>
      <use xlink:href="#DejaVuSans-31" x="1474.853516"/>
      <use xlink:href="#DejaVuSans-30" x="1538.476562"/>
      <use xlink:href="#DejaVuSans-29" x="1602.099609"/>
     </g>
    </g>
   </g>
  </g>
 </g>
 <defs>
  <clipPath id="p14718e80a4">
   <rect x="49.588125" y="26.877187" width="781.2" height="554.4"/>
  </clipPath>
 </defs>
</svg>
