<?xml version="1.0" encoding="utf-8" standalone="no"?>
<!DOCTYPE svg PUBLIC "-//W3C//DTD SVG 1.1//EN"
  "http://www.w3.org/Graphics/SVG/1.1/DTD/svg11.dtd">
<svg xmlns:xlink="http://www.w3.org/1999/xlink" width="576pt" height="468pt" viewBox="0 0 576 468" xmlns="http://www.w3.org/2000/svg" version="1.1">
 <metadata>
  <rdf:RDF xmlns:dc="http://purl.org/dc/elements/1.1/" xmlns:cc="http://creativecommons.org/ns#" xmlns:rdf="http://www.w3.org/1999/02/22-rdf-syntax-ns#">
   <cc:Work>
    <dc:type rdf:resource="http://purl.org/dc/dcmitype/StillImage"/>
    <dc:date>2025-05-27T14:31:01.300109</dc:date>
    <dc:format>image/svg+xml</dc:format>
    <dc:creator>
     <cc:Agent>
      <dc:title>Matplotlib v3.7.1, https://matplotlib.org/</dc:title>
     </cc:Agent>
    </dc:creator>
   </cc:Work>
  </rdf:RDF>
 </metadata>
 <defs>
  <style type="text/css">*{stroke-linejoin: round; stroke-linecap: butt}</style>
 </defs>
 <g id="figure_1">
  <g id="patch_1">
   <path d="M 0 468 
L 576 468 
L 576 0 
L 0 0 
z
" style="fill: #ffffff"/>
  </g>
  <g id="axes_1">
   <g id="patch_2">
    <path d="M 184.93 424.496 
L 497.943333 424.496 
L 497.943333 30.76 
L 184.93 30.76 
z
" style="fill: #ffffff"/>
   </g>
   <g id="line2d_1">
    <path d="M 285.498722 114.401506 
L 285.498722 48.657091 
" clip-path="url(#p3679ac0e7c)" style="fill: none; stroke-dasharray: 1.85,0.8; stroke-dashoffset: 0; stroke: #bbbbbb; stroke-width: 0.5"/>
   </g>
   <g id="line2d_2">
    <path d="M 324.39428 150.926182 
L 324.39428 85.181766 
" clip-path="url(#p3679ac0e7c)" style="fill: none; stroke-dasharray: 1.85,0.8; stroke-dashoffset: 0; stroke: #bbbbbb; stroke-width: 0.5"/>
   </g>
   <g id="line2d_3">
    <path d="M 349.333706 187.450857 
L 349.333706 121.706442 
" clip-path="url(#p3679ac0e7c)" style="fill: none; stroke-dasharray: 1.85,0.8; stroke-dashoffset: 0; stroke: #bbbbbb; stroke-width: 0.5"/>
   </g>
   <g id="line2d_4">
    <path d="M 373.64675 223.975532 
L 373.64675 158.231117 
" clip-path="url(#p3679ac0e7c)" style="fill: none; stroke-dasharray: 1.85,0.8; stroke-dashoffset: 0; stroke: #bbbbbb; stroke-width: 0.5"/>
   </g>
   <g id="line2d_5">
    <path d="M 397.344025 260.500208 
L 397.344025 194.755792 
" clip-path="url(#p3679ac0e7c)" style="fill: none; stroke-dasharray: 1.85,0.8; stroke-dashoffset: 0; stroke: #bbbbbb; stroke-width: 0.5"/>
   </g>
   <g id="line2d_6">
    <path d="M 412.036365 297.024883 
L 412.036365 231.280468 
" clip-path="url(#p3679ac0e7c)" style="fill: none; stroke-dasharray: 1.85,0.8; stroke-dashoffset: 0; stroke: #bbbbbb; stroke-width: 0.5"/>
   </g>
   <g id="line2d_7">
    <path d="M 425.644746 333.549558 
L 425.644746 267.805143 
" clip-path="url(#p3679ac0e7c)" style="fill: none; stroke-dasharray: 1.85,0.8; stroke-dashoffset: 0; stroke: #bbbbbb; stroke-width: 0.5"/>
   </g>
   <g id="line2d_8">
    <path d="M 435.855492 370.074234 
L 435.855492 304.329818 
" clip-path="url(#p3679ac0e7c)" style="fill: none; stroke-dasharray: 1.85,0.8; stroke-dashoffset: 0; stroke: #bbbbbb; stroke-width: 0.5"/>
   </g>
   <g id="line2d_9">
    <path d="M 445.089656 406.598909 
L 445.089656 340.854494 
" clip-path="url(#p3679ac0e7c)" style="fill: none; stroke-dasharray: 1.85,0.8; stroke-dashoffset: 0; stroke: #bbbbbb; stroke-width: 0.5"/>
   </g>
   <g id="line2d_10">
    <path d="M 184.93 391.989039 
L 497.943333 391.989039 
" clip-path="url(#p3679ac0e7c)" style="fill: none; stroke-dasharray: 0.5,2.5; stroke-dashoffset: 0; stroke: #cccccc; stroke-width: 0.5"/>
   </g>
   <g id="line2d_11">
    <path d="M 184.93 355.464364 
L 497.943333 355.464364 
" clip-path="url(#p3679ac0e7c)" style="fill: none; stroke-dasharray: 0.5,2.5; stroke-dashoffset: 0; stroke: #cccccc; stroke-width: 0.5"/>
   </g>
   <g id="line2d_12">
    <path d="M 184.93 318.939688 
L 497.943333 318.939688 
" clip-path="url(#p3679ac0e7c)" style="fill: none; stroke-dasharray: 0.5,2.5; stroke-dashoffset: 0; stroke: #cccccc; stroke-width: 0.5"/>
   </g>
   <g id="line2d_13">
    <path d="M 184.93 282.415013 
L 497.943333 282.415013 
" clip-path="url(#p3679ac0e7c)" style="fill: none; stroke-dasharray: 0.5,2.5; stroke-dashoffset: 0; stroke: #cccccc; stroke-width: 0.5"/>
   </g>
   <g id="line2d_14">
    <path d="M 184.93 245.890338 
L 497.943333 245.890338 
" clip-path="url(#p3679ac0e7c)" style="fill: none; stroke-dasharray: 0.5,2.5; stroke-dashoffset: 0; stroke: #cccccc; stroke-width: 0.5"/>
   </g>
   <g id="line2d_15">
    <path d="M 184.93 209.365662 
L 497.943333 209.365662 
" clip-path="url(#p3679ac0e7c)" style="fill: none; stroke-dasharray: 0.5,2.5; stroke-dashoffset: 0; stroke: #cccccc; stroke-width: 0.5"/>
   </g>
   <g id="line2d_16">
    <path d="M 184.93 172.840987 
L 497.943333 172.840987 
" clip-path="url(#p3679ac0e7c)" style="fill: none; stroke-dasharray: 0.5,2.5; stroke-dashoffset: 0; stroke: #cccccc; stroke-width: 0.5"/>
   </g>
   <g id="line2d_17">
    <path d="M 184.93 136.316312 
L 497.943333 136.316312 
" clip-path="url(#p3679ac0e7c)" style="fill: none; stroke-dasharray: 0.5,2.5; stroke-dashoffset: 0; stroke: #cccccc; stroke-width: 0.5"/>
   </g>
   <g id="line2d_18">
    <path d="M 184.93 99.791636 
L 497.943333 99.791636 
" clip-path="url(#p3679ac0e7c)" style="fill: none; stroke-dasharray: 0.5,2.5; stroke-dashoffset: 0; stroke: #cccccc; stroke-width: 0.5"/>
   </g>
   <g id="line2d_19">
    <path d="M 184.93 63.266961 
L 497.943333 63.266961 
" clip-path="url(#p3679ac0e7c)" style="fill: none; stroke-dasharray: 0.5,2.5; stroke-dashoffset: 0; stroke: #cccccc; stroke-width: 0.5"/>
   </g>
   <g id="line2d_20">
    <path d="M 495.281655 424.496 
L 495.281655 385.1224 
" clip-path="url(#p3679ac0e7c)" style="fill: none; stroke-dasharray: 1.85,0.8; stroke-dashoffset: 0; stroke: #bbbbbb; stroke-width: 0.5"/>
   </g>
   <g id="line2d_21">
    <path d="M 229.113855 424.496 
L 229.113855 30.76 
" clip-path="url(#p3679ac0e7c)" style="fill: none; stroke-dasharray: 1.85,0.8; stroke-dashoffset: 0; stroke: #bbbbbb; stroke-width: 0.5"/>
   </g>
   <g id="patch_3">
    <path d="M 288.1604 77.876831 
L 199.835397 77.876831 
L 199.835397 48.657091 
L 288.1604 48.657091 
L 288.1604 77.876831 
z
" clip-path="url(#p3679ac0e7c)" style="fill: none; opacity: 0"/>
   </g>
   <g id="patch_4">
    <path d="M 327.055958 114.401506 
L 256.220264 114.401506 
L 256.220264 85.181766 
L 327.055958 85.181766 
L 327.055958 114.401506 
z
" clip-path="url(#p3679ac0e7c)" style="fill: none; opacity: 0"/>
   </g>
   <g id="patch_5">
    <path d="M 351.995384 150.926182 
L 295.115822 150.926182 
L 295.115822 121.706442 
L 351.995384 121.706442 
L 351.995384 150.926182 
z
" clip-path="url(#p3679ac0e7c)" style="fill: none; opacity: 0"/>
   </g>
   <g id="patch_6">
    <path d="M 376.308428 187.450857 
L 320.055248 187.450857 
L 320.055248 158.231117 
L 376.308428 158.231117 
L 376.308428 187.450857 
z
" clip-path="url(#p3679ac0e7c)" style="fill: none; opacity: 0"/>
   </g>
   <g id="patch_7">
    <path d="M 400.005703 223.975532 
L 344.368292 223.975532 
L 344.368292 194.755792 
L 400.005703 194.755792 
L 400.005703 223.975532 
z
" clip-path="url(#p3679ac0e7c)" style="fill: none; opacity: 0"/>
   </g>
   <g id="patch_8">
    <path d="M 414.698043 260.500208 
L 368.065567 260.500208 
L 368.065567 231.280468 
L 414.698043 231.280468 
L 414.698043 260.500208 
z
" clip-path="url(#p3679ac0e7c)" style="fill: none; opacity: 0"/>
   </g>
   <g id="patch_9">
    <path d="M 428.306424 297.024883 
L 382.757907 297.024883 
L 382.757907 267.805143 
L 428.306424 267.805143 
L 428.306424 297.024883 
z
" clip-path="url(#p3679ac0e7c)" style="fill: none; opacity: 0"/>
   </g>
   <g id="patch_10">
    <path d="M 438.51717 333.549558 
L 396.366288 333.549558 
L 396.366288 304.329818 
L 438.51717 304.329818 
L 438.51717 333.549558 
z
" clip-path="url(#p3679ac0e7c)" style="fill: none; opacity: 0"/>
   </g>
   <g id="patch_11">
    <path d="M 447.751334 370.074234 
L 406.577034 370.074234 
L 406.577034 340.854494 
L 447.751334 340.854494 
L 447.751334 370.074234 
z
" clip-path="url(#p3679ac0e7c)" style="fill: none; opacity: 0"/>
   </g>
   <g id="patch_12">
    <path d="M 497.943333 406.598909 
L 415.811198 406.598909 
L 415.811198 377.379169 
L 497.943333 377.379169 
L 497.943333 406.598909 
z
" clip-path="url(#p3679ac0e7c)" style="fill: none; opacity: 0"/>
   </g>
   <g id="patch_13">
    <path d="M 229.113855 63.266961 
L 233.152737 48.657091 
L 233.152737 48.657091 
L 285.498722 48.657091 
L 285.498722 77.876831 
L 233.152737 77.876831 
L 233.152737 77.876831 
z
" clip-path="url(#p3679ac0e7c)" style="fill: #008bfb; stroke: #008bfb; stroke-linejoin: miter"/>
   </g>
   <g id="patch_14">
    <path d="M 285.498722 99.791636 
L 289.537604 85.181766 
L 289.537604 85.181766 
L 324.39428 85.181766 
L 324.39428 114.401506 
L 289.537604 114.401506 
L 289.537604 114.401506 
z
" clip-path="url(#p3679ac0e7c)" style="fill: #008bfb; stroke: #008bfb; stroke-linejoin: miter"/>
   </g>
   <g id="patch_15">
    <path d="M 324.39428 136.316312 
L 328.433162 121.706442 
L 328.433162 121.706442 
L 349.333706 121.706442 
L 349.333706 150.926182 
L 328.433162 150.926182 
L 328.433162 150.926182 
z
" clip-path="url(#p3679ac0e7c)" style="fill: #008bfb; stroke: #008bfb; stroke-linejoin: miter"/>
   </g>
   <g id="patch_16">
    <path d="M 349.333706 172.840987 
L 353.372587 158.231117 
L 353.372587 158.231117 
L 373.64675 158.231117 
L 373.64675 187.450857 
L 353.372587 187.450857 
L 353.372587 187.450857 
z
" clip-path="url(#p3679ac0e7c)" style="fill: #008bfb; stroke: #008bfb; stroke-linejoin: miter"/>
   </g>
   <g id="patch_17">
    <path d="M 373.64675 209.365662 
L 377.685632 194.755792 
L 377.685632 194.755792 
L 397.344025 194.755792 
L 397.344025 223.975532 
L 377.685632 223.975532 
L 377.685632 223.975532 
z
" clip-path="url(#p3679ac0e7c)" style="fill: #008bfb; stroke: #008bfb; stroke-linejoin: miter"/>
   </g>
   <g id="patch_18">
    <path d="M 397.344025 245.890338 
L 401.382907 231.280468 
L 401.382907 231.280468 
L 412.036365 231.280468 
L 412.036365 260.500208 
L 401.382907 260.500208 
L 401.382907 260.500208 
z
" clip-path="url(#p3679ac0e7c)" style="fill: #008bfb; stroke: #008bfb; stroke-linejoin: miter"/>
   </g>
   <g id="patch_19">
    <path d="M 412.036365 282.415013 
L 416.075247 267.805143 
L 416.075247 267.805143 
L 425.644746 267.805143 
L 425.644746 297.024883 
L 416.075247 297.024883 
L 416.075247 297.024883 
z
" clip-path="url(#p3679ac0e7c)" style="fill: #008bfb; stroke: #008bfb; stroke-linejoin: miter"/>
   </g>
   <g id="patch_20">
    <path d="M 425.644746 318.939688 
L 429.683628 304.329818 
L 429.683628 304.329818 
L 435.855492 304.329818 
L 435.855492 333.549558 
L 429.683628 333.549558 
L 429.683628 333.549558 
z
" clip-path="url(#p3679ac0e7c)" style="fill: #008bfb; stroke: #008bfb; stroke-linejoin: miter"/>
   </g>
   <g id="patch_21">
    <path d="M 435.855492 355.464364 
L 439.894373 340.854494 
L 439.894373 340.854494 
L 445.089656 340.854494 
L 445.089656 370.074234 
L 439.894373 370.074234 
L 439.894373 370.074234 
z
" clip-path="url(#p3679ac0e7c)" style="fill: #008bfb; stroke: #008bfb; stroke-linejoin: miter"/>
   </g>
   <g id="patch_22">
    <path d="M 445.089656 391.989039 
L 449.128538 377.379169 
L 449.128538 377.379169 
L 495.281655 377.379169 
L 495.281655 406.598909 
L 449.128538 406.598909 
L 449.128538 406.598909 
z
" clip-path="url(#p3679ac0e7c)" style="fill: #008bfb; stroke: #008bfb; stroke-linejoin: miter"/>
   </g>
   <g id="matplotlib.axis_1">
    <g id="xtick_1">
     <g id="line2d_22">
      <defs>
       <path id="m5681d4e4ee" d="M 0 0 
L 0 3.5 
" style="stroke: #000000; stroke-width: 0.8"/>
      </defs>
      <g>
       <use xlink:href="#m5681d4e4ee" x="229.264348" y="424.496" style="stroke: #000000; stroke-width: 0.8"/>
      </g>
     </g>
     <g id="text_1">
      <!-- −3 -->
      <g transform="translate(219.681926 441.373969) scale(0.13 -0.13)">
       <defs>
        <path id="DejaVuSans-2212" d="M 678 2272 
L 4684 2272 
L 4684 1741 
L 678 1741 
L 678 2272 
z
" transform="scale(0.015625)"/>
        <path id="DejaVuSans-33" d="M 2597 2516 
Q 3050 2419 3304 2112 
Q 3559 1806 3559 1356 
Q 3559 666 3084 287 
Q 2609 -91 1734 -91 
Q 1441 -91 1130 -33 
Q 819 25 488 141 
L 488 750 
Q 750 597 1062 519 
Q 1375 441 1716 441 
Q 2309 441 2620 675 
Q 2931 909 2931 1356 
Q 2931 1769 2642 2001 
Q 2353 2234 1838 2234 
L 1294 2234 
L 1294 2753 
L 1863 2753 
Q 2328 2753 2575 2939 
Q 2822 3125 2822 3475 
Q 2822 3834 2567 4026 
Q 2313 4219 1838 4219 
Q 1578 4219 1281 4162 
Q 984 4106 628 3988 
L 628 4550 
Q 988 4650 1302 4700 
Q 1616 4750 1894 4750 
Q 2613 4750 3031 4423 
Q 3450 4097 3450 3541 
Q 3450 3153 3228 2886 
Q 3006 2619 2597 2516 
z
" transform="scale(0.015625)"/>
       </defs>
       <use xlink:href="#DejaVuSans-2212"/>
       <use xlink:href="#DejaVuSans-33" x="83.789062"/>
      </g>
     </g>
    </g>
    <g id="xtick_2">
     <g id="line2d_23">
      <g>
       <use xlink:href="#m5681d4e4ee" x="291.220524" y="424.496" style="stroke: #000000; stroke-width: 0.8"/>
      </g>
     </g>
     <g id="text_2">
      <!-- −2 -->
      <g transform="translate(281.638102 441.373969) scale(0.13 -0.13)">
       <defs>
        <path id="DejaVuSans-32" d="M 1228 531 
L 3431 531 
L 3431 0 
L 469 0 
L 469 531 
Q 828 903 1448 1529 
Q 2069 2156 2228 2338 
Q 2531 2678 2651 2914 
Q 2772 3150 2772 3378 
Q 2772 3750 2511 3984 
Q 2250 4219 1831 4219 
Q 1534 4219 1204 4116 
Q 875 4013 500 3803 
L 500 4441 
Q 881 4594 1212 4672 
Q 1544 4750 1819 4750 
Q 2544 4750 2975 4387 
Q 3406 4025 3406 3419 
Q 3406 3131 3298 2873 
Q 3191 2616 2906 2266 
Q 2828 2175 2409 1742 
Q 1991 1309 1228 531 
z
" transform="scale(0.015625)"/>
       </defs>
       <use xlink:href="#DejaVuSans-2212"/>
       <use xlink:href="#DejaVuSans-32" x="83.789062"/>
      </g>
     </g>
    </g>
    <g id="xtick_3">
     <g id="line2d_24">
      <g>
       <use xlink:href="#m5681d4e4ee" x="353.1767" y="424.496" style="stroke: #000000; stroke-width: 0.8"/>
      </g>
     </g>
     <g id="text_3">
      <!-- −1 -->
      <g transform="translate(343.594278 441.373969) scale(0.13 -0.13)">
       <defs>
        <path id="DejaVuSans-31" d="M 794 531 
L 1825 531 
L 1825 4091 
L 703 3866 
L 703 4441 
L 1819 4666 
L 2450 4666 
L 2450 531 
L 3481 531 
L 3481 0 
L 794 0 
L 794 531 
z
" transform="scale(0.015625)"/>
       </defs>
       <use xlink:href="#DejaVuSans-2212"/>
       <use xlink:href="#DejaVuSans-31" x="83.789062"/>
      </g>
     </g>
    </g>
    <g id="xtick_4">
     <g id="line2d_25">
      <g>
       <use xlink:href="#m5681d4e4ee" x="415.132876" y="424.496" style="stroke: #000000; stroke-width: 0.8"/>
      </g>
     </g>
     <g id="text_4">
      <!-- 0 -->
      <g transform="translate(410.997251 441.373969) scale(0.13 -0.13)">
       <defs>
        <path id="DejaVuSans-30" d="M 2034 4250 
Q 1547 4250 1301 3770 
Q 1056 3291 1056 2328 
Q 1056 1369 1301 889 
Q 1547 409 2034 409 
Q 2525 409 2770 889 
Q 3016 1369 3016 2328 
Q 3016 3291 2770 3770 
Q 2525 4250 2034 4250 
z
M 2034 4750 
Q 2819 4750 3233 4129 
Q 3647 3509 3647 2328 
Q 3647 1150 3233 529 
Q 2819 -91 2034 -91 
Q 1250 -91 836 529 
Q 422 1150 422 2328 
Q 422 3509 836 4129 
Q 1250 4750 2034 4750 
z
" transform="scale(0.015625)"/>
       </defs>
       <use xlink:href="#DejaVuSans-30"/>
      </g>
     </g>
    </g>
    <g id="xtick_5">
     <g id="line2d_26">
      <g>
       <use xlink:href="#m5681d4e4ee" x="477.089052" y="424.496" style="stroke: #000000; stroke-width: 0.8"/>
      </g>
     </g>
     <g id="text_5">
      <!-- 1 -->
      <g transform="translate(472.953427 441.373969) scale(0.13 -0.13)">
       <use xlink:href="#DejaVuSans-31"/>
      </g>
     </g>
    </g>
   </g>
   <g id="matplotlib.axis_2">
    <g id="ytick_1">
     <g id="text_6">
      <!-- 41 other features -->
      <g style="fill: #999999" transform="translate(64.791406 396.928023) scale(0.13 -0.13)">
       <defs>
        <path id="DejaVuSans-34" d="M 2419 4116 
L 825 1625 
L 2419 1625 
L 2419 4116 
z
M 2253 4666 
L 3047 4666 
L 3047 1625 
L 3713 1625 
L 3713 1100 
L 3047 1100 
L 3047 0 
L 2419 0 
L 2419 1100 
L 313 1100 
L 313 1709 
L 2253 4666 
z
" transform="scale(0.015625)"/>
        <path id="DejaVuSans-20" transform="scale(0.015625)"/>
        <path id="DejaVuSans-6f" d="M 1959 3097 
Q 1497 3097 1228 2736 
Q 959 2375 959 1747 
Q 959 1119 1226 758 
Q 1494 397 1959 397 
Q 2419 397 2687 759 
Q 2956 1122 2956 1747 
Q 2956 2369 2687 2733 
Q 2419 3097 1959 3097 
z
M 1959 3584 
Q 2709 3584 3137 3096 
Q 3566 2609 3566 1747 
Q 3566 888 3137 398 
Q 2709 -91 1959 -91 
Q 1206 -91 779 398 
Q 353 888 353 1747 
Q 353 2609 779 3096 
Q 1206 3584 1959 3584 
z
" transform="scale(0.015625)"/>
        <path id="DejaVuSans-74" d="M 1172 4494 
L 1172 3500 
L 2356 3500 
L 2356 3053 
L 1172 3053 
L 1172 1153 
Q 1172 725 1289 603 
Q 1406 481 1766 481 
L 2356 481 
L 2356 0 
L 1766 0 
Q 1100 0 847 248 
Q 594 497 594 1153 
L 594 3053 
L 172 3053 
L 172 3500 
L 594 3500 
L 594 4494 
L 1172 4494 
z
" transform="scale(0.015625)"/>
        <path id="DejaVuSans-68" d="M 3513 2113 
L 3513 0 
L 2938 0 
L 2938 2094 
Q 2938 2591 2744 2837 
Q 2550 3084 2163 3084 
Q 1697 3084 1428 2787 
Q 1159 2491 1159 1978 
L 1159 0 
L 581 0 
L 581 4863 
L 1159 4863 
L 1159 2956 
Q 1366 3272 1645 3428 
Q 1925 3584 2291 3584 
Q 2894 3584 3203 3211 
Q 3513 2838 3513 2113 
z
" transform="scale(0.015625)"/>
        <path id="DejaVuSans-65" d="M 3597 1894 
L 3597 1613 
L 953 1613 
Q 991 1019 1311 708 
Q 1631 397 2203 397 
Q 2534 397 2845 478 
Q 3156 559 3463 722 
L 3463 178 
Q 3153 47 2828 -22 
Q 2503 -91 2169 -91 
Q 1331 -91 842 396 
Q 353 884 353 1716 
Q 353 2575 817 3079 
Q 1281 3584 2069 3584 
Q 2775 3584 3186 3129 
Q 3597 2675 3597 1894 
z
M 3022 2063 
Q 3016 2534 2758 2815 
Q 2500 3097 2075 3097 
Q 1594 3097 1305 2825 
Q 1016 2553 972 2059 
L 3022 2063 
z
" transform="scale(0.015625)"/>
        <path id="DejaVuSans-72" d="M 2631 2963 
Q 2534 3019 2420 3045 
Q 2306 3072 2169 3072 
Q 1681 3072 1420 2755 
Q 1159 2438 1159 1844 
L 1159 0 
L 581 0 
L 581 3500 
L 1159 3500 
L 1159 2956 
Q 1341 3275 1631 3429 
Q 1922 3584 2338 3584 
Q 2397 3584 2469 3576 
Q 2541 3569 2628 3553 
L 2631 2963 
z
" transform="scale(0.015625)"/>
        <path id="DejaVuSans-66" d="M 2375 4863 
L 2375 4384 
L 1825 4384 
Q 1516 4384 1395 4259 
Q 1275 4134 1275 3809 
L 1275 3500 
L 2222 3500 
L 2222 3053 
L 1275 3053 
L 1275 0 
L 697 0 
L 697 3053 
L 147 3053 
L 147 3500 
L 697 3500 
L 697 3744 
Q 697 4328 969 4595 
Q 1241 4863 1831 4863 
L 2375 4863 
z
" transform="scale(0.015625)"/>
        <path id="DejaVuSans-61" d="M 2194 1759 
Q 1497 1759 1228 1600 
Q 959 1441 959 1056 
Q 959 750 1161 570 
Q 1363 391 1709 391 
Q 2188 391 2477 730 
Q 2766 1069 2766 1631 
L 2766 1759 
L 2194 1759 
z
M 3341 1997 
L 3341 0 
L 2766 0 
L 2766 531 
Q 2569 213 2275 61 
Q 1981 -91 1556 -91 
Q 1019 -91 701 211 
Q 384 513 384 1019 
Q 384 1609 779 1909 
Q 1175 2209 1959 2209 
L 2766 2209 
L 2766 2266 
Q 2766 2663 2505 2880 
Q 2244 3097 1772 3097 
Q 1472 3097 1187 3025 
Q 903 2953 641 2809 
L 641 3341 
Q 956 3463 1253 3523 
Q 1550 3584 1831 3584 
Q 2591 3584 2966 3190 
Q 3341 2797 3341 1997 
z
" transform="scale(0.015625)"/>
        <path id="DejaVuSans-75" d="M 544 1381 
L 544 3500 
L 1119 3500 
L 1119 1403 
Q 1119 906 1312 657 
Q 1506 409 1894 409 
Q 2359 409 2629 706 
Q 2900 1003 2900 1516 
L 2900 3500 
L 3475 3500 
L 3475 0 
L 2900 0 
L 2900 538 
Q 2691 219 2414 64 
Q 2138 -91 1772 -91 
Q 1169 -91 856 284 
Q 544 659 544 1381 
z
M 1991 3584 
L 1991 3584 
z
" transform="scale(0.015625)"/>
        <path id="DejaVuSans-73" d="M 2834 3397 
L 2834 2853 
Q 2591 2978 2328 3040 
Q 2066 3103 1784 3103 
Q 1356 3103 1142 2972 
Q 928 2841 928 2578 
Q 928 2378 1081 2264 
Q 1234 2150 1697 2047 
L 1894 2003 
Q 2506 1872 2764 1633 
Q 3022 1394 3022 966 
Q 3022 478 2636 193 
Q 2250 -91 1575 -91 
Q 1294 -91 989 -36 
Q 684 19 347 128 
L 347 722 
Q 666 556 975 473 
Q 1284 391 1588 391 
Q 1994 391 2212 530 
Q 2431 669 2431 922 
Q 2431 1156 2273 1281 
Q 2116 1406 1581 1522 
L 1381 1569 
Q 847 1681 609 1914 
Q 372 2147 372 2553 
Q 372 3047 722 3315 
Q 1072 3584 1716 3584 
Q 2034 3584 2315 3537 
Q 2597 3491 2834 3397 
z
" transform="scale(0.015625)"/>
       </defs>
       <use xlink:href="#DejaVuSans-34"/>
       <use xlink:href="#DejaVuSans-31" x="63.623047"/>
       <use xlink:href="#DejaVuSans-20" x="127.246094"/>
       <use xlink:href="#DejaVuSans-6f" x="159.033203"/>
       <use xlink:href="#DejaVuSans-74" x="220.214844"/>
       <use xlink:href="#DejaVuSans-68" x="259.423828"/>
       <use xlink:href="#DejaVuSans-65" x="322.802734"/>
       <use xlink:href="#DejaVuSans-72" x="384.326172"/>
       <use xlink:href="#DejaVuSans-20" x="425.439453"/>
       <use xlink:href="#DejaVuSans-66" x="457.226562"/>
       <use xlink:href="#DejaVuSans-65" x="492.431641"/>
       <use xlink:href="#DejaVuSans-61" x="553.955078"/>
       <use xlink:href="#DejaVuSans-74" x="615.234375"/>
       <use xlink:href="#DejaVuSans-75" x="654.443359"/>
       <use xlink:href="#DejaVuSans-72" x="717.822266"/>
       <use xlink:href="#DejaVuSans-65" x="756.685547"/>
       <use xlink:href="#DejaVuSans-73" x="818.208984"/>
      </g>
     </g>
    </g>
    <g id="ytick_2">
     <g id="text_7">
      <!-- 0 = FRIGHT -->
      <g style="fill: #999999" transform="translate(102.3675 360.403348) scale(0.13 -0.13)">
       <defs>
        <path id="DejaVuSans-3d" d="M 678 2906 
L 4684 2906 
L 4684 2381 
L 678 2381 
L 678 2906 
z
M 678 1631 
L 4684 1631 
L 4684 1100 
L 678 1100 
L 678 1631 
z
" transform="scale(0.015625)"/>
        <path id="DejaVuSans-46" d="M 628 4666 
L 3309 4666 
L 3309 4134 
L 1259 4134 
L 1259 2759 
L 3109 2759 
L 3109 2228 
L 1259 2228 
L 1259 0 
L 628 0 
L 628 4666 
z
" transform="scale(0.015625)"/>
        <path id="DejaVuSans-52" d="M 2841 2188 
Q 3044 2119 3236 1894 
Q 3428 1669 3622 1275 
L 4263 0 
L 3584 0 
L 2988 1197 
Q 2756 1666 2539 1819 
Q 2322 1972 1947 1972 
L 1259 1972 
L 1259 0 
L 628 0 
L 628 4666 
L 2053 4666 
Q 2853 4666 3247 4331 
Q 3641 3997 3641 3322 
Q 3641 2881 3436 2590 
Q 3231 2300 2841 2188 
z
M 1259 4147 
L 1259 2491 
L 2053 2491 
Q 2509 2491 2742 2702 
Q 2975 2913 2975 3322 
Q 2975 3731 2742 3939 
Q 2509 4147 2053 4147 
L 1259 4147 
z
" transform="scale(0.015625)"/>
        <path id="DejaVuSans-49" d="M 628 4666 
L 1259 4666 
L 1259 0 
L 628 0 
L 628 4666 
z
" transform="scale(0.015625)"/>
        <path id="DejaVuSans-47" d="M 3809 666 
L 3809 1919 
L 2778 1919 
L 2778 2438 
L 4434 2438 
L 4434 434 
Q 4069 175 3628 42 
Q 3188 -91 2688 -91 
Q 1594 -91 976 548 
Q 359 1188 359 2328 
Q 359 3472 976 4111 
Q 1594 4750 2688 4750 
Q 3144 4750 3555 4637 
Q 3966 4525 4313 4306 
L 4313 3634 
Q 3963 3931 3569 4081 
Q 3175 4231 2741 4231 
Q 1884 4231 1454 3753 
Q 1025 3275 1025 2328 
Q 1025 1384 1454 906 
Q 1884 428 2741 428 
Q 3075 428 3337 486 
Q 3600 544 3809 666 
z
" transform="scale(0.015625)"/>
        <path id="DejaVuSans-48" d="M 628 4666 
L 1259 4666 
L 1259 2753 
L 3553 2753 
L 3553 4666 
L 4184 4666 
L 4184 0 
L 3553 0 
L 3553 2222 
L 1259 2222 
L 1259 0 
L 628 0 
L 628 4666 
z
" transform="scale(0.015625)"/>
        <path id="DejaVuSans-54" d="M -19 4666 
L 3928 4666 
L 3928 4134 
L 2272 4134 
L 2272 0 
L 1638 0 
L 1638 4134 
L -19 4134 
L -19 4666 
z
" transform="scale(0.015625)"/>
       </defs>
       <use xlink:href="#DejaVuSans-30"/>
       <use xlink:href="#DejaVuSans-20" x="63.623047"/>
       <use xlink:href="#DejaVuSans-3d" x="95.410156"/>
       <use xlink:href="#DejaVuSans-20" x="179.199219"/>
       <use xlink:href="#DejaVuSans-46" x="210.986328"/>
       <use xlink:href="#DejaVuSans-52" x="268.505859"/>
       <use xlink:href="#DejaVuSans-49" x="337.988281"/>
       <use xlink:href="#DejaVuSans-47" x="367.480469"/>
       <use xlink:href="#DejaVuSans-48" x="444.970703"/>
       <use xlink:href="#DejaVuSans-54" x="520.166016"/>
      </g>
     </g>
    </g>
    <g id="ytick_3">
     <g id="text_8">
      <!-- 0 = PILEDIFF -->
      <g style="fill: #999999" transform="translate(94.571562 323.878673) scale(0.13 -0.13)">
       <defs>
        <path id="DejaVuSans-50" d="M 1259 4147 
L 1259 2394 
L 2053 2394 
Q 2494 2394 2734 2622 
Q 2975 2850 2975 3272 
Q 2975 3691 2734 3919 
Q 2494 4147 2053 4147 
L 1259 4147 
z
M 628 4666 
L 2053 4666 
Q 2838 4666 3239 4311 
Q 3641 3956 3641 3272 
Q 3641 2581 3239 2228 
Q 2838 1875 2053 1875 
L 1259 1875 
L 1259 0 
L 628 0 
L 628 4666 
z
" transform="scale(0.015625)"/>
        <path id="DejaVuSans-4c" d="M 628 4666 
L 1259 4666 
L 1259 531 
L 3531 531 
L 3531 0 
L 628 0 
L 628 4666 
z
" transform="scale(0.015625)"/>
        <path id="DejaVuSans-45" d="M 628 4666 
L 3578 4666 
L 3578 4134 
L 1259 4134 
L 1259 2753 
L 3481 2753 
L 3481 2222 
L 1259 2222 
L 1259 531 
L 3634 531 
L 3634 0 
L 628 0 
L 628 4666 
z
" transform="scale(0.015625)"/>
        <path id="DejaVuSans-44" d="M 1259 4147 
L 1259 519 
L 2022 519 
Q 2988 519 3436 956 
Q 3884 1394 3884 2338 
Q 3884 3275 3436 3711 
Q 2988 4147 2022 4147 
L 1259 4147 
z
M 628 4666 
L 1925 4666 
Q 3281 4666 3915 4102 
Q 4550 3538 4550 2338 
Q 4550 1131 3912 565 
Q 3275 0 1925 0 
L 628 0 
L 628 4666 
z
" transform="scale(0.015625)"/>
       </defs>
       <use xlink:href="#DejaVuSans-30"/>
       <use xlink:href="#DejaVuSans-20" x="63.623047"/>
       <use xlink:href="#DejaVuSans-3d" x="95.410156"/>
       <use xlink:href="#DejaVuSans-20" x="179.199219"/>
       <use xlink:href="#DejaVuSans-50" x="210.986328"/>
       <use xlink:href="#DejaVuSans-49" x="271.289062"/>
       <use xlink:href="#DejaVuSans-4c" x="300.78125"/>
       <use xlink:href="#DejaVuSans-45" x="356.494141"/>
       <use xlink:href="#DejaVuSans-44" x="419.677734"/>
       <use xlink:href="#DejaVuSans-49" x="496.679688"/>
       <use xlink:href="#DejaVuSans-46" x="526.171875"/>
       <use xlink:href="#DejaVuSans-46" x="583.691406"/>
      </g>
     </g>
    </g>
    <g id="ytick_4">
     <g id="text_9">
      <!-- 72.1 = TESTOSTERONE_1 -->
      <g style="fill: #999999" transform="translate(10.861719 287.239232) scale(0.13 -0.13)">
       <defs>
        <path id="DejaVuSans-37" d="M 525 4666 
L 3525 4666 
L 3525 4397 
L 1831 0 
L 1172 0 
L 2766 4134 
L 525 4134 
L 525 4666 
z
" transform="scale(0.015625)"/>
        <path id="DejaVuSans-2e" d="M 684 794 
L 1344 794 
L 1344 0 
L 684 0 
L 684 794 
z
" transform="scale(0.015625)"/>
        <path id="DejaVuSans-53" d="M 3425 4513 
L 3425 3897 
Q 3066 4069 2747 4153 
Q 2428 4238 2131 4238 
Q 1616 4238 1336 4038 
Q 1056 3838 1056 3469 
Q 1056 3159 1242 3001 
Q 1428 2844 1947 2747 
L 2328 2669 
Q 3034 2534 3370 2195 
Q 3706 1856 3706 1288 
Q 3706 609 3251 259 
Q 2797 -91 1919 -91 
Q 1588 -91 1214 -16 
Q 841 59 441 206 
L 441 856 
Q 825 641 1194 531 
Q 1563 422 1919 422 
Q 2459 422 2753 634 
Q 3047 847 3047 1241 
Q 3047 1584 2836 1778 
Q 2625 1972 2144 2069 
L 1759 2144 
Q 1053 2284 737 2584 
Q 422 2884 422 3419 
Q 422 4038 858 4394 
Q 1294 4750 2059 4750 
Q 2388 4750 2728 4690 
Q 3069 4631 3425 4513 
z
" transform="scale(0.015625)"/>
        <path id="DejaVuSans-4f" d="M 2522 4238 
Q 1834 4238 1429 3725 
Q 1025 3213 1025 2328 
Q 1025 1447 1429 934 
Q 1834 422 2522 422 
Q 3209 422 3611 934 
Q 4013 1447 4013 2328 
Q 4013 3213 3611 3725 
Q 3209 4238 2522 4238 
z
M 2522 4750 
Q 3503 4750 4090 4092 
Q 4678 3434 4678 2328 
Q 4678 1225 4090 567 
Q 3503 -91 2522 -91 
Q 1538 -91 948 565 
Q 359 1222 359 2328 
Q 359 3434 948 4092 
Q 1538 4750 2522 4750 
z
" transform="scale(0.015625)"/>
        <path id="DejaVuSans-4e" d="M 628 4666 
L 1478 4666 
L 3547 763 
L 3547 4666 
L 4159 4666 
L 4159 0 
L 3309 0 
L 1241 3903 
L 1241 0 
L 628 0 
L 628 4666 
z
" transform="scale(0.015625)"/>
        <path id="DejaVuSans-5f" d="M 3263 -1063 
L 3263 -1509 
L -63 -1509 
L -63 -1063 
L 3263 -1063 
z
" transform="scale(0.015625)"/>
       </defs>
       <use xlink:href="#DejaVuSans-37"/>
       <use xlink:href="#DejaVuSans-32" x="63.623047"/>
       <use xlink:href="#DejaVuSans-2e" x="127.246094"/>
       <use xlink:href="#DejaVuSans-31" x="159.033203"/>
       <use xlink:href="#DejaVuSans-20" x="222.65625"/>
       <use xlink:href="#DejaVuSans-3d" x="254.443359"/>
       <use xlink:href="#DejaVuSans-20" x="338.232422"/>
       <use xlink:href="#DejaVuSans-54" x="370.019531"/>
       <use xlink:href="#DejaVuSans-45" x="431.103516"/>
       <use xlink:href="#DejaVuSans-53" x="494.287109"/>
       <use xlink:href="#DejaVuSans-54" x="557.763672"/>
       <use xlink:href="#DejaVuSans-4f" x="618.847656"/>
       <use xlink:href="#DejaVuSans-53" x="697.558594"/>
       <use xlink:href="#DejaVuSans-54" x="761.035156"/>
       <use xlink:href="#DejaVuSans-45" x="822.119141"/>
       <use xlink:href="#DejaVuSans-52" x="885.302734"/>
       <use xlink:href="#DejaVuSans-4f" x="954.785156"/>
       <use xlink:href="#DejaVuSans-4e" x="1033.496094"/>
       <use xlink:href="#DejaVuSans-45" x="1108.300781"/>
       <use xlink:href="#DejaVuSans-5f" x="1171.484375"/>
       <use xlink:href="#DejaVuSans-31" x="1221.484375"/>
      </g>
     </g>
    </g>
    <g id="ytick_5">
     <g id="text_10">
      <!-- 1 = EVERSMK -->
      <g style="fill: #999999" transform="translate(88.152813 250.829322) scale(0.13 -0.13)">
       <defs>
        <path id="DejaVuSans-56" d="M 1831 0 
L 50 4666 
L 709 4666 
L 2188 738 
L 3669 4666 
L 4325 4666 
L 2547 0 
L 1831 0 
z
" transform="scale(0.015625)"/>
        <path id="DejaVuSans-4d" d="M 628 4666 
L 1569 4666 
L 2759 1491 
L 3956 4666 
L 4897 4666 
L 4897 0 
L 4281 0 
L 4281 4097 
L 3078 897 
L 2444 897 
L 1241 4097 
L 1241 0 
L 628 0 
L 628 4666 
z
" transform="scale(0.015625)"/>
        <path id="DejaVuSans-4b" d="M 628 4666 
L 1259 4666 
L 1259 2694 
L 3353 4666 
L 4166 4666 
L 1850 2491 
L 4331 0 
L 3500 0 
L 1259 2247 
L 1259 0 
L 628 0 
L 628 4666 
z
" transform="scale(0.015625)"/>
       </defs>
       <use xlink:href="#DejaVuSans-31"/>
       <use xlink:href="#DejaVuSans-20" x="63.623047"/>
       <use xlink:href="#DejaVuSans-3d" x="95.410156"/>
       <use xlink:href="#DejaVuSans-20" x="179.199219"/>
       <use xlink:href="#DejaVuSans-45" x="210.986328"/>
       <use xlink:href="#DejaVuSans-56" x="274.169922"/>
       <use xlink:href="#DejaVuSans-45" x="342.578125"/>
       <use xlink:href="#DejaVuSans-52" x="405.761719"/>
       <use xlink:href="#DejaVuSans-53" x="475.244141"/>
       <use xlink:href="#DejaVuSans-4d" x="538.720703"/>
       <use xlink:href="#DejaVuSans-4b" x="625"/>
      </g>
     </g>
    </g>
    <g id="ytick_6">
     <g id="text_11">
      <!-- 0 = FLTSAD -->
      <g style="fill: #999999" transform="translate(102.229375 214.304647) scale(0.13 -0.13)">
       <defs>
        <path id="DejaVuSans-41" d="M 2188 4044 
L 1331 1722 
L 3047 1722 
L 2188 4044 
z
M 1831 4666 
L 2547 4666 
L 4325 0 
L 3669 0 
L 3244 1197 
L 1141 1197 
L 716 0 
L 50 0 
L 1831 4666 
z
" transform="scale(0.015625)"/>
       </defs>
       <use xlink:href="#DejaVuSans-30"/>
       <use xlink:href="#DejaVuSans-20" x="63.623047"/>
       <use xlink:href="#DejaVuSans-3d" x="95.410156"/>
       <use xlink:href="#DejaVuSans-20" x="179.199219"/>
       <use xlink:href="#DejaVuSans-46" x="210.986328"/>
       <use xlink:href="#DejaVuSans-4c" x="268.505859"/>
       <use xlink:href="#DejaVuSans-54" x="310.46875"/>
       <use xlink:href="#DejaVuSans-53" x="371.552734"/>
       <use xlink:href="#DejaVuSans-41" x="436.904297"/>
       <use xlink:href="#DejaVuSans-44" x="505.3125"/>
      </g>
     </g>
    </g>
    <g id="ytick_7">
     <g id="text_12">
      <!-- 3 = RESTED -->
      <g style="fill: #999999" transform="translate(98.837187 177.779971) scale(0.13 -0.13)">
       <use xlink:href="#DejaVuSans-33"/>
       <use xlink:href="#DejaVuSans-20" x="63.623047"/>
       <use xlink:href="#DejaVuSans-3d" x="95.410156"/>
       <use xlink:href="#DejaVuSans-20" x="179.199219"/>
       <use xlink:href="#DejaVuSans-52" x="210.986328"/>
       <use xlink:href="#DejaVuSans-45" x="280.46875"/>
       <use xlink:href="#DejaVuSans-53" x="343.652344"/>
       <use xlink:href="#DejaVuSans-54" x="407.128906"/>
       <use xlink:href="#DejaVuSans-45" x="468.212891"/>
       <use xlink:href="#DejaVuSans-44" x="531.396484"/>
      </g>
     </g>
    </g>
    <g id="ytick_8">
     <g id="text_13">
      <!-- 3 = GOMYWAY -->
      <g style="fill: #999999" transform="translate(83.074688 141.255296) scale(0.13 -0.13)">
       <defs>
        <path id="DejaVuSans-59" d="M -13 4666 
L 666 4666 
L 1959 2747 
L 3244 4666 
L 3922 4666 
L 2272 2222 
L 2272 0 
L 1638 0 
L 1638 2222 
L -13 4666 
z
" transform="scale(0.015625)"/>
        <path id="DejaVuSans-57" d="M 213 4666 
L 850 4666 
L 1831 722 
L 2809 4666 
L 3519 4666 
L 4500 722 
L 5478 4666 
L 6119 4666 
L 4947 0 
L 4153 0 
L 3169 4050 
L 2175 0 
L 1381 0 
L 213 4666 
z
" transform="scale(0.015625)"/>
       </defs>
       <use xlink:href="#DejaVuSans-33"/>
       <use xlink:href="#DejaVuSans-20" x="63.623047"/>
       <use xlink:href="#DejaVuSans-3d" x="95.410156"/>
       <use xlink:href="#DejaVuSans-20" x="179.199219"/>
       <use xlink:href="#DejaVuSans-47" x="210.986328"/>
       <use xlink:href="#DejaVuSans-4f" x="288.476562"/>
       <use xlink:href="#DejaVuSans-4d" x="367.1875"/>
       <use xlink:href="#DejaVuSans-59" x="453.466797"/>
       <use xlink:href="#DejaVuSans-57" x="514.550781"/>
       <use xlink:href="#DejaVuSans-41" x="607.927734"/>
       <use xlink:href="#DejaVuSans-59" x="668.585938"/>
      </g>
     </g>
    </g>
    <g id="ytick_9">
     <g id="text_14">
      <!-- 0 = FLTTENS -->
      <g style="fill: #999999" transform="translate(95.723281 104.730621) scale(0.13 -0.13)">
       <use xlink:href="#DejaVuSans-30"/>
       <use xlink:href="#DejaVuSans-20" x="63.623047"/>
       <use xlink:href="#DejaVuSans-3d" x="95.410156"/>
       <use xlink:href="#DejaVuSans-20" x="179.199219"/>
       <use xlink:href="#DejaVuSans-46" x="210.986328"/>
       <use xlink:href="#DejaVuSans-4c" x="268.505859"/>
       <use xlink:href="#DejaVuSans-54" x="310.46875"/>
       <use xlink:href="#DejaVuSans-54" x="369.802734"/>
       <use xlink:href="#DejaVuSans-45" x="430.886719"/>
       <use xlink:href="#DejaVuSans-4e" x="494.070312"/>
       <use xlink:href="#DejaVuSans-53" x="568.875"/>
      </g>
     </g>
    </g>
    <g id="ytick_10">
     <g id="text_15">
      <!-- 0 = FLTEFF -->
      <g style="fill: #999999" transform="translate(106.460469 68.205945) scale(0.13 -0.13)">
       <use xlink:href="#DejaVuSans-30"/>
       <use xlink:href="#DejaVuSans-20" x="63.623047"/>
       <use xlink:href="#DejaVuSans-3d" x="95.410156"/>
       <use xlink:href="#DejaVuSans-20" x="179.199219"/>
       <use xlink:href="#DejaVuSans-46" x="210.986328"/>
       <use xlink:href="#DejaVuSans-4c" x="268.505859"/>
       <use xlink:href="#DejaVuSans-54" x="310.46875"/>
       <use xlink:href="#DejaVuSans-45" x="371.552734"/>
       <use xlink:href="#DejaVuSans-46" x="434.736328"/>
       <use xlink:href="#DejaVuSans-46" x="492.255859"/>
      </g>
     </g>
    </g>
    <g id="ytick_11">
     <g id="text_16">
      <!-- 41 other features -->
      <g transform="translate(64.791406 396.928023) scale(0.13 -0.13)">
       <use xlink:href="#DejaVuSans-34"/>
       <use xlink:href="#DejaVuSans-31" x="63.623047"/>
       <use xlink:href="#DejaVuSans-20" x="127.246094"/>
       <use xlink:href="#DejaVuSans-6f" x="159.033203"/>
       <use xlink:href="#DejaVuSans-74" x="220.214844"/>
       <use xlink:href="#DejaVuSans-68" x="259.423828"/>
       <use xlink:href="#DejaVuSans-65" x="322.802734"/>
       <use xlink:href="#DejaVuSans-72" x="384.326172"/>
       <use xlink:href="#DejaVuSans-20" x="425.439453"/>
       <use xlink:href="#DejaVuSans-66" x="457.226562"/>
       <use xlink:href="#DejaVuSans-65" x="492.431641"/>
       <use xlink:href="#DejaVuSans-61" x="553.955078"/>
       <use xlink:href="#DejaVuSans-74" x="615.234375"/>
       <use xlink:href="#DejaVuSans-75" x="654.443359"/>
       <use xlink:href="#DejaVuSans-72" x="717.822266"/>
       <use xlink:href="#DejaVuSans-65" x="756.685547"/>
       <use xlink:href="#DejaVuSans-73" x="818.208984"/>
      </g>
     </g>
    </g>
    <g id="ytick_12">
     <g id="text_17">
      <!--  FRIGHT -->
      <g transform="translate(125.663906 360.403348) scale(0.13 -0.13)">
       <use xlink:href="#DejaVuSans-20"/>
       <use xlink:href="#DejaVuSans-46" x="31.787109"/>
       <use xlink:href="#DejaVuSans-52" x="89.306641"/>
       <use xlink:href="#DejaVuSans-49" x="158.789062"/>
       <use xlink:href="#DejaVuSans-47" x="188.28125"/>
       <use xlink:href="#DejaVuSans-48" x="265.771484"/>
       <use xlink:href="#DejaVuSans-54" x="340.966797"/>
      </g>
     </g>
    </g>
    <g id="ytick_13">
     <g id="text_18">
      <!--  PILEDIFF -->
      <g transform="translate(117.867969 323.878672) scale(0.13 -0.13)">
       <use xlink:href="#DejaVuSans-20"/>
       <use xlink:href="#DejaVuSans-50" x="31.787109"/>
       <use xlink:href="#DejaVuSans-49" x="92.089844"/>
       <use xlink:href="#DejaVuSans-4c" x="121.582031"/>
       <use xlink:href="#DejaVuSans-45" x="177.294922"/>
       <use xlink:href="#DejaVuSans-44" x="240.478516"/>
       <use xlink:href="#DejaVuSans-49" x="317.480469"/>
       <use xlink:href="#DejaVuSans-46" x="346.972656"/>
       <use xlink:href="#DejaVuSans-46" x="404.492188"/>
      </g>
     </g>
    </g>
    <g id="ytick_14">
     <g id="text_19">
      <!--  TESTOSTERONE_1 -->
      <g transform="translate(54.832188 287.239231) scale(0.13 -0.13)">
       <use xlink:href="#DejaVuSans-20"/>
       <use xlink:href="#DejaVuSans-54" x="31.787109"/>
       <use xlink:href="#DejaVuSans-45" x="92.871094"/>
       <use xlink:href="#DejaVuSans-53" x="156.054688"/>
       <use xlink:href="#DejaVuSans-54" x="219.53125"/>
       <use xlink:href="#DejaVuSans-4f" x="280.615234"/>
       <use xlink:href="#DejaVuSans-53" x="359.326172"/>
       <use xlink:href="#DejaVuSans-54" x="422.802734"/>
       <use xlink:href="#DejaVuSans-45" x="483.886719"/>
       <use xlink:href="#DejaVuSans-52" x="547.070312"/>
       <use xlink:href="#DejaVuSans-4f" x="616.552734"/>
       <use xlink:href="#DejaVuSans-4e" x="695.263672"/>
       <use xlink:href="#DejaVuSans-45" x="770.068359"/>
       <use xlink:href="#DejaVuSans-5f" x="833.251953"/>
       <use xlink:href="#DejaVuSans-31" x="883.251953"/>
      </g>
     </g>
    </g>
    <g id="ytick_15">
     <g id="text_20">
      <!--  EVERSMK -->
      <g transform="translate(111.449219 250.829322) scale(0.13 -0.13)">
       <use xlink:href="#DejaVuSans-20"/>
       <use xlink:href="#DejaVuSans-45" x="31.787109"/>
       <use xlink:href="#DejaVuSans-56" x="94.970703"/>
       <use xlink:href="#DejaVuSans-45" x="163.378906"/>
       <use xlink:href="#DejaVuSans-52" x="226.5625"/>
       <use xlink:href="#DejaVuSans-53" x="296.044922"/>
       <use xlink:href="#DejaVuSans-4d" x="359.521484"/>
       <use xlink:href="#DejaVuSans-4b" x="445.800781"/>
      </g>
     </g>
    </g>
    <g id="ytick_16">
     <g id="text_21">
      <!--  FLTSAD -->
      <g transform="translate(125.525781 214.304646) scale(0.13 -0.13)">
       <use xlink:href="#DejaVuSans-20"/>
       <use xlink:href="#DejaVuSans-46" x="31.787109"/>
       <use xlink:href="#DejaVuSans-4c" x="89.306641"/>
       <use xlink:href="#DejaVuSans-54" x="131.269531"/>
       <use xlink:href="#DejaVuSans-53" x="192.353516"/>
       <use xlink:href="#DejaVuSans-41" x="257.705078"/>
       <use xlink:href="#DejaVuSans-44" x="326.113281"/>
      </g>
     </g>
    </g>
    <g id="ytick_17">
     <g id="text_22">
      <!--  RESTED -->
      <g transform="translate(122.133594 177.779971) scale(0.13 -0.13)">
       <use xlink:href="#DejaVuSans-20"/>
       <use xlink:href="#DejaVuSans-52" x="31.787109"/>
       <use xlink:href="#DejaVuSans-45" x="101.269531"/>
       <use xlink:href="#DejaVuSans-53" x="164.453125"/>
       <use xlink:href="#DejaVuSans-54" x="227.929688"/>
       <use xlink:href="#DejaVuSans-45" x="289.013672"/>
       <use xlink:href="#DejaVuSans-44" x="352.197266"/>
      </g>
     </g>
    </g>
    <g id="ytick_18">
     <g id="text_23">
      <!--  GOMYWAY -->
      <g transform="translate(106.371094 141.255296) scale(0.13 -0.13)">
       <use xlink:href="#DejaVuSans-20"/>
       <use xlink:href="#DejaVuSans-47" x="31.787109"/>
       <use xlink:href="#DejaVuSans-4f" x="109.277344"/>
       <use xlink:href="#DejaVuSans-4d" x="187.988281"/>
       <use xlink:href="#DejaVuSans-59" x="274.267578"/>
       <use xlink:href="#DejaVuSans-57" x="335.351562"/>
       <use xlink:href="#DejaVuSans-41" x="428.728516"/>
       <use xlink:href="#DejaVuSans-59" x="489.386719"/>
      </g>
     </g>
    </g>
    <g id="ytick_19">
     <g id="text_24">
      <!--  FLTTENS -->
      <g transform="translate(119.019688 104.73062) scale(0.13 -0.13)">
       <use xlink:href="#DejaVuSans-20"/>
       <use xlink:href="#DejaVuSans-46" x="31.787109"/>
       <use xlink:href="#DejaVuSans-4c" x="89.306641"/>
       <use xlink:href="#DejaVuSans-54" x="131.269531"/>
       <use xlink:href="#DejaVuSans-54" x="190.603516"/>
       <use xlink:href="#DejaVuSans-45" x="251.6875"/>
       <use xlink:href="#DejaVuSans-4e" x="314.871094"/>
       <use xlink:href="#DejaVuSans-53" x="389.675781"/>
      </g>
     </g>
    </g>
    <g id="ytick_20">
     <g id="text_25">
      <!--  FLTEFF -->
      <g transform="translate(129.756875 68.205945) scale(0.13 -0.13)">
       <use xlink:href="#DejaVuSans-20"/>
       <use xlink:href="#DejaVuSans-46" x="31.787109"/>
       <use xlink:href="#DejaVuSans-4c" x="89.306641"/>
       <use xlink:href="#DejaVuSans-54" x="131.269531"/>
       <use xlink:href="#DejaVuSans-45" x="192.353516"/>
       <use xlink:href="#DejaVuSans-46" x="255.537109"/>
       <use xlink:href="#DejaVuSans-46" x="313.056641"/>
      </g>
     </g>
    </g>
   </g>
   <g id="patch_23">
    <path d="M 184.93 424.496 
L 497.943333 424.496 
" style="fill: none; stroke: #000000; stroke-width: 0.8; stroke-linejoin: miter; stroke-linecap: square"/>
   </g>
   <g id="text_26">
    <!-- −0.91 -->
    <g style="fill: #ffffff" transform="translate(238.919101 66.578211) scale(0.12 -0.12)">
     <defs>
      <path id="DejaVuSans-39" d="M 703 97 
L 703 672 
Q 941 559 1184 500 
Q 1428 441 1663 441 
Q 2288 441 2617 861 
Q 2947 1281 2994 2138 
Q 2813 1869 2534 1725 
Q 2256 1581 1919 1581 
Q 1219 1581 811 2004 
Q 403 2428 403 3163 
Q 403 3881 828 4315 
Q 1253 4750 1959 4750 
Q 2769 4750 3195 4129 
Q 3622 3509 3622 2328 
Q 3622 1225 3098 567 
Q 2575 -91 1691 -91 
Q 1453 -91 1209 -44 
Q 966 3 703 97 
z
M 1959 2075 
Q 2384 2075 2632 2365 
Q 2881 2656 2881 3163 
Q 2881 3666 2632 3958 
Q 2384 4250 1959 4250 
Q 1534 4250 1286 3958 
Q 1038 3666 1038 3163 
Q 1038 2656 1286 2365 
Q 1534 2075 1959 2075 
z
" transform="scale(0.015625)"/>
     </defs>
     <use xlink:href="#DejaVuSans-2212"/>
     <use xlink:href="#DejaVuSans-30" x="83.789062"/>
     <use xlink:href="#DejaVuSans-2e" x="147.412109"/>
     <use xlink:href="#DejaVuSans-39" x="179.199219"/>
     <use xlink:href="#DejaVuSans-31" x="242.822266"/>
    </g>
   </g>
   <g id="text_27">
    <!-- −0.63 -->
    <g style="fill: #ffffff" transform="translate(286.559314 103.102886) scale(0.12 -0.12)">
     <defs>
      <path id="DejaVuSans-36" d="M 2113 2584 
Q 1688 2584 1439 2293 
Q 1191 2003 1191 1497 
Q 1191 994 1439 701 
Q 1688 409 2113 409 
Q 2538 409 2786 701 
Q 3034 994 3034 1497 
Q 3034 2003 2786 2293 
Q 2538 2584 2113 2584 
z
M 3366 4563 
L 3366 3988 
Q 3128 4100 2886 4159 
Q 2644 4219 2406 4219 
Q 1781 4219 1451 3797 
Q 1122 3375 1075 2522 
Q 1259 2794 1537 2939 
Q 1816 3084 2150 3084 
Q 2853 3084 3261 2657 
Q 3669 2231 3669 1497 
Q 3669 778 3244 343 
Q 2819 -91 2113 -91 
Q 1303 -91 875 529 
Q 447 1150 447 2328 
Q 447 3434 972 4092 
Q 1497 4750 2381 4750 
Q 2619 4750 2861 4703 
Q 3103 4656 3366 4563 
z
" transform="scale(0.015625)"/>
     </defs>
     <use xlink:href="#DejaVuSans-2212"/>
     <use xlink:href="#DejaVuSans-30" x="83.789062"/>
     <use xlink:href="#DejaVuSans-2e" x="147.412109"/>
     <use xlink:href="#DejaVuSans-36" x="179.199219"/>
     <use xlink:href="#DejaVuSans-33" x="242.822266"/>
    </g>
   </g>
   <g id="text_28">
    <!-- −0.4 -->
    <g style="fill: #ffffff" transform="translate(322.294305 139.627562) scale(0.12 -0.12)">
     <use xlink:href="#DejaVuSans-2212"/>
     <use xlink:href="#DejaVuSans-30" x="83.789062"/>
     <use xlink:href="#DejaVuSans-2e" x="147.412109"/>
     <use xlink:href="#DejaVuSans-34" x="179.199219"/>
    </g>
   </g>
   <g id="text_29">
    <!-- −0.39 -->
    <g style="fill: #008bfb" transform="translate(309.053357 176.152237) scale(0.12 -0.12)">
     <use xlink:href="#DejaVuSans-2212"/>
     <use xlink:href="#DejaVuSans-30" x="83.789062"/>
     <use xlink:href="#DejaVuSans-2e" x="147.412109"/>
     <use xlink:href="#DejaVuSans-33" x="179.199219"/>
     <use xlink:href="#DejaVuSans-39" x="242.822266"/>
    </g>
   </g>
   <g id="text_30">
    <!-- −0.38 -->
    <g style="fill: #008bfb" transform="translate(333.366401 212.676912) scale(0.12 -0.12)">
     <defs>
      <path id="DejaVuSans-38" d="M 2034 2216 
Q 1584 2216 1326 1975 
Q 1069 1734 1069 1313 
Q 1069 891 1326 650 
Q 1584 409 2034 409 
Q 2484 409 2743 651 
Q 3003 894 3003 1313 
Q 3003 1734 2745 1975 
Q 2488 2216 2034 2216 
z
M 1403 2484 
Q 997 2584 770 2862 
Q 544 3141 544 3541 
Q 544 4100 942 4425 
Q 1341 4750 2034 4750 
Q 2731 4750 3128 4425 
Q 3525 4100 3525 3541 
Q 3525 3141 3298 2862 
Q 3072 2584 2669 2484 
Q 3125 2378 3379 2068 
Q 3634 1759 3634 1313 
Q 3634 634 3220 271 
Q 2806 -91 2034 -91 
Q 1263 -91 848 271 
Q 434 634 434 1313 
Q 434 1759 690 2068 
Q 947 2378 1403 2484 
z
M 1172 3481 
Q 1172 3119 1398 2916 
Q 1625 2713 2034 2713 
Q 2441 2713 2670 2916 
Q 2900 3119 2900 3481 
Q 2900 3844 2670 4047 
Q 2441 4250 2034 4250 
Q 1625 4250 1398 4047 
Q 1172 3844 1172 3481 
z
" transform="scale(0.015625)"/>
     </defs>
     <use xlink:href="#DejaVuSans-2212"/>
     <use xlink:href="#DejaVuSans-30" x="83.789062"/>
     <use xlink:href="#DejaVuSans-2e" x="147.412109"/>
     <use xlink:href="#DejaVuSans-33" x="179.199219"/>
     <use xlink:href="#DejaVuSans-38" x="242.822266"/>
    </g>
   </g>
   <g id="text_31">
    <!-- −0.24 -->
    <g style="fill: #008bfb" transform="translate(357.063676 249.201588) scale(0.12 -0.12)">
     <use xlink:href="#DejaVuSans-2212"/>
     <use xlink:href="#DejaVuSans-30" x="83.789062"/>
     <use xlink:href="#DejaVuSans-2e" x="147.412109"/>
     <use xlink:href="#DejaVuSans-32" x="179.199219"/>
     <use xlink:href="#DejaVuSans-34" x="242.822266"/>
    </g>
   </g>
   <g id="text_32">
    <!-- −0.22 -->
    <g style="fill: #008bfb" transform="translate(371.756016 285.726263) scale(0.12 -0.12)">
     <use xlink:href="#DejaVuSans-2212"/>
     <use xlink:href="#DejaVuSans-30" x="83.789062"/>
     <use xlink:href="#DejaVuSans-2e" x="147.412109"/>
     <use xlink:href="#DejaVuSans-32" x="179.199219"/>
     <use xlink:href="#DejaVuSans-32" x="242.822266"/>
    </g>
   </g>
   <g id="text_33">
    <!-- −0.16 -->
    <g style="fill: #008bfb" transform="translate(385.364398 322.250938) scale(0.12 -0.12)">
     <use xlink:href="#DejaVuSans-2212"/>
     <use xlink:href="#DejaVuSans-30" x="83.789062"/>
     <use xlink:href="#DejaVuSans-2e" x="147.412109"/>
     <use xlink:href="#DejaVuSans-31" x="179.199219"/>
     <use xlink:href="#DejaVuSans-36" x="242.822266"/>
    </g>
   </g>
   <g id="text_34">
    <!-- −0.15 -->
    <g style="fill: #008bfb" transform="translate(395.575143 358.775614) scale(0.12 -0.12)">
     <defs>
      <path id="DejaVuSans-35" d="M 691 4666 
L 3169 4666 
L 3169 4134 
L 1269 4134 
L 1269 2991 
Q 1406 3038 1543 3061 
Q 1681 3084 1819 3084 
Q 2600 3084 3056 2656 
Q 3513 2228 3513 1497 
Q 3513 744 3044 326 
Q 2575 -91 1722 -91 
Q 1428 -91 1123 -41 
Q 819 9 494 109 
L 494 744 
Q 775 591 1075 516 
Q 1375 441 1709 441 
Q 2250 441 2565 725 
Q 2881 1009 2881 1497 
Q 2881 1984 2565 2268 
Q 2250 2553 1709 2553 
Q 1456 2553 1204 2497 
Q 953 2441 691 2322 
L 691 4666 
z
" transform="scale(0.015625)"/>
     </defs>
     <use xlink:href="#DejaVuSans-2212"/>
     <use xlink:href="#DejaVuSans-30" x="83.789062"/>
     <use xlink:href="#DejaVuSans-2e" x="147.412109"/>
     <use xlink:href="#DejaVuSans-31" x="179.199219"/>
     <use xlink:href="#DejaVuSans-35" x="242.822266"/>
    </g>
   </g>
   <g id="text_35">
    <!-- −0.81 -->
    <g style="fill: #ffffff" transform="translate(451.798468 395.300289) scale(0.12 -0.12)">
     <use xlink:href="#DejaVuSans-2212"/>
     <use xlink:href="#DejaVuSans-30" x="83.789062"/>
     <use xlink:href="#DejaVuSans-2e" x="147.412109"/>
     <use xlink:href="#DejaVuSans-38" x="179.199219"/>
     <use xlink:href="#DejaVuSans-31" x="242.822266"/>
    </g>
   </g>
  </g>
  <g id="axes_2">
   <g id="matplotlib.axis_3">
    <g id="xtick_6">
     <g id="line2d_27">
      <g>
       <use xlink:href="#m5681d4e4ee" x="495.281655" y="424.496" style="stroke: #000000; stroke-width: 0.8"/>
      </g>
     </g>
     <g id="text_36">
      <!--  -->
      <g transform="translate(475.281655 440.614125) scale(0.12 -0.12)"/>
      <!-- $E[f(X)]$ -->
      <g transform="translate(475.281655 454.0515) scale(0.12 -0.12)">
       <defs>
        <path id="DejaVuSans-Oblique-45" d="M 1081 4666 
L 4031 4666 
L 3928 4134 
L 1606 4134 
L 1338 2753 
L 3566 2753 
L 3463 2222 
L 1234 2222 
L 909 531 
L 3284 531 
L 3181 0 
L 172 0 
L 1081 4666 
z
" transform="scale(0.015625)"/>
        <path id="DejaVuSans-5b" d="M 550 4863 
L 1875 4863 
L 1875 4416 
L 1125 4416 
L 1125 -397 
L 1875 -397 
L 1875 -844 
L 550 -844 
L 550 4863 
z
" transform="scale(0.015625)"/>
        <path id="DejaVuSans-Oblique-66" d="M 3059 4863 
L 2969 4384 
L 2419 4384 
Q 2106 4384 1964 4261 
Q 1822 4138 1753 3809 
L 1691 3500 
L 2638 3500 
L 2553 3053 
L 1606 3053 
L 1013 0 
L 434 0 
L 1031 3053 
L 481 3053 
L 563 3500 
L 1113 3500 
L 1159 3744 
Q 1278 4363 1576 4613 
Q 1875 4863 2516 4863 
L 3059 4863 
z
" transform="scale(0.015625)"/>
        <path id="DejaVuSans-28" d="M 1984 4856 
Q 1566 4138 1362 3434 
Q 1159 2731 1159 2009 
Q 1159 1288 1364 580 
Q 1569 -128 1984 -844 
L 1484 -844 
Q 1016 -109 783 600 
Q 550 1309 550 2009 
Q 550 2706 781 3412 
Q 1013 4119 1484 4856 
L 1984 4856 
z
" transform="scale(0.015625)"/>
        <path id="DejaVuSans-Oblique-58" d="M 878 4666 
L 1516 4666 
L 2316 2981 
L 3763 4666 
L 4500 4666 
L 2578 2438 
L 3738 0 
L 3103 0 
L 2163 1966 
L 459 0 
L -275 0 
L 1906 2509 
L 878 4666 
z
" transform="scale(0.015625)"/>
        <path id="DejaVuSans-29" d="M 513 4856 
L 1013 4856 
Q 1481 4119 1714 3412 
Q 1947 2706 1947 2009 
Q 1947 1309 1714 600 
Q 1481 -109 1013 -844 
L 513 -844 
Q 928 -128 1133 580 
Q 1338 1288 1338 2009 
Q 1338 2731 1133 3434 
Q 928 4138 513 4856 
z
" transform="scale(0.015625)"/>
        <path id="DejaVuSans-5d" d="M 1947 4863 
L 1947 -844 
L 622 -844 
L 622 -397 
L 1369 -397 
L 1369 4416 
L 622 4416 
L 622 4863 
L 1947 4863 
z
" transform="scale(0.015625)"/>
       </defs>
       <use xlink:href="#DejaVuSans-Oblique-45" transform="translate(0 0.015625)"/>
       <use xlink:href="#DejaVuSans-5b" transform="translate(63.183594 0.015625)"/>
       <use xlink:href="#DejaVuSans-Oblique-66" transform="translate(102.197266 0.015625)"/>
       <use xlink:href="#DejaVuSans-28" transform="translate(137.402344 0.015625)"/>
       <use xlink:href="#DejaVuSans-Oblique-58" transform="translate(176.416016 0.015625)"/>
       <use xlink:href="#DejaVuSans-29" transform="translate(244.921875 0.015625)"/>
       <use xlink:href="#DejaVuSans-5d" transform="translate(283.935547 0.015625)"/>
      </g>
     </g>
    </g>
    <g id="xtick_7">
     <g id="line2d_28">
      <g>
       <use xlink:href="#m5681d4e4ee" x="495.281656" y="424.496" style="stroke: #000000; stroke-width: 0.8"/>
      </g>
     </g>
     <g id="text_37">
      <!--  -->
      <g style="fill: #999999" transform="translate(517.281656 441.614125) scale(0.12 -0.12)"/>
      <!-- $ = 1.294$ -->
      <g style="fill: #999999" transform="translate(517.281656 455.0515) scale(0.12 -0.12)">
       <use xlink:href="#DejaVuSans-3d" transform="translate(19.482422 0.78125)"/>
       <use xlink:href="#DejaVuSans-31" transform="translate(122.753906 0.78125)"/>
       <use xlink:href="#DejaVuSans-2e" transform="translate(186.376953 0.78125)"/>
       <use xlink:href="#DejaVuSans-32" transform="translate(212.664062 0.78125)"/>
       <use xlink:href="#DejaVuSans-39" transform="translate(274.537109 0.78125)"/>
       <use xlink:href="#DejaVuSans-34" transform="translate(338.160156 0.78125)"/>
      </g>
     </g>
    </g>
   </g>
   <g id="patch_24">
    <path d="M 184.93 424.496 
L 497.943333 424.496 
" style="fill: none; stroke: #000000; stroke-width: 0.8; stroke-linejoin: miter; stroke-linecap: square"/>
   </g>
  </g>
  <g id="axes_3">
   <g id="matplotlib.axis_4">
    <g id="xtick_8">
     <g id="line2d_29">
      <defs>
       <path id="m8c7dbcf968" d="M 0 0 
L 0 -3.5 
" style="stroke: #000000; stroke-width: 0.8"/>
      </defs>
      <g>
       <use xlink:href="#m8c7dbcf968" x="229.113855" y="30.76" style="stroke: #000000; stroke-width: 0.8"/>
      </g>
     </g>
     <g id="text_38">
      <!-- $f(x)$ -->
      <g transform="translate(219.113855 21.264375) scale(0.12 -0.12)">
       <defs>
        <path id="DejaVuSans-Oblique-78" d="M 3841 3500 
L 2234 1784 
L 3219 0 
L 2559 0 
L 1819 1388 
L 531 0 
L -166 0 
L 1556 1844 
L 641 3500 
L 1300 3500 
L 1972 2234 
L 3144 3500 
L 3841 3500 
z
" transform="scale(0.015625)"/>
       </defs>
       <use xlink:href="#DejaVuSans-Oblique-66" transform="translate(0 0.015625)"/>
       <use xlink:href="#DejaVuSans-28" transform="translate(35.205078 0.015625)"/>
       <use xlink:href="#DejaVuSans-Oblique-78" transform="translate(74.21875 0.015625)"/>
       <use xlink:href="#DejaVuSans-29" transform="translate(133.398438 0.015625)"/>
      </g>
     </g>
    </g>
    <g id="xtick_9">
     <g id="line2d_30">
      <g>
       <use xlink:href="#m8c7dbcf968" x="229.113856" y="30.76" style="stroke: #000000; stroke-width: 0.8"/>
      </g>
     </g>
     <g id="text_39">
      <!-- $ = −3.002$ -->
      <g style="fill: #999999" transform="translate(241.113856 21.264375) scale(0.12 -0.12)">
       <use xlink:href="#DejaVuSans-3d" transform="translate(19.482422 0.78125)"/>
       <use xlink:href="#DejaVuSans-2212" transform="translate(142.236328 0.78125)"/>
       <use xlink:href="#DejaVuSans-33" transform="translate(245.507812 0.78125)"/>
       <use xlink:href="#DejaVuSans-2e" transform="translate(309.130859 0.78125)"/>
       <use xlink:href="#DejaVuSans-30" transform="translate(340.917969 0.78125)"/>
       <use xlink:href="#DejaVuSans-30" transform="translate(404.541016 0.78125)"/>
       <use xlink:href="#DejaVuSans-32" transform="translate(468.164062 0.78125)"/>
      </g>
     </g>
    </g>
   </g>
   <g id="patch_25">
    <path d="M 184.93 424.496 
L 497.943333 424.496 
" style="fill: none; stroke: #000000; stroke-width: 0.8; stroke-linejoin: miter; stroke-linecap: square"/>
   </g>
  </g>
 </g>
 <defs>
  <clipPath id="p3679ac0e7c">
   <rect x="184.93" y="30.76" width="313.013333" height="393.736"/>
  </clipPath>
 </defs>
</svg>
