<?xml version="1.0" encoding="utf-8" standalone="no"?>
<!DOCTYPE svg PUBLIC "-//W3C//DTD SVG 1.1//EN"
  "http://www.w3.org/Graphics/SVG/1.1/DTD/svg11.dtd">
<svg xmlns:xlink="http://www.w3.org/1999/xlink" width="576pt" height="468pt" viewBox="0 0 576 468" xmlns="http://www.w3.org/2000/svg" version="1.1">
 <metadata>
  <rdf:RDF xmlns:dc="http://purl.org/dc/elements/1.1/" xmlns:cc="http://creativecommons.org/ns#" xmlns:rdf="http://www.w3.org/1999/02/22-rdf-syntax-ns#">
   <cc:Work>
    <dc:type rdf:resource="http://purl.org/dc/dcmitype/StillImage"/>
    <dc:date>2025-06-02T15:04:17.601981</dc:date>
    <dc:format>image/svg+xml</dc:format>
    <dc:creator>
     <cc:Agent>
      <dc:title>Matplotlib v3.7.1, https://matplotlib.org/</dc:title>
     </cc:Agent>
    </dc:creator>
   </cc:Work>
  </rdf:RDF>
 </metadata>
 <defs>
  <style type="text/css">*{stroke-linejoin: round; stroke-linecap: butt}</style>
 </defs>
 <g id="figure_1">
  <g id="patch_1">
   <path d="M 0 468 
L 576 468 
L 576 0 
L 0 0 
z
" style="fill: #ffffff"/>
  </g>
  <g id="axes_1">
   <g id="patch_2">
    <path d="M 261.7 424.496 
L 513.008545 424.496 
L 513.008545 35.08 
L 261.7 35.08 
z
" style="fill: #ffffff"/>
   </g>
   <g id="line2d_1">
    <path d="M 423.798388 117.803807 
L 423.798388 52.780727 
" clip-path="url(#pf8e10b2888)" style="fill: none; stroke-dasharray: 1.85,0.8; stroke-dashoffset: 0; stroke: #bbbbbb; stroke-width: 0.5"/>
   </g>
   <g id="line2d_2">
    <path d="M 392.386801 153.92774 
L 392.386801 88.90466 
" clip-path="url(#pf8e10b2888)" style="fill: none; stroke-dasharray: 1.85,0.8; stroke-dashoffset: 0; stroke: #bbbbbb; stroke-width: 0.5"/>
   </g>
   <g id="line2d_3">
    <path d="M 368.015563 190.051673 
L 368.015563 125.028594 
" clip-path="url(#pf8e10b2888)" style="fill: none; stroke-dasharray: 1.85,0.8; stroke-dashoffset: 0; stroke: #bbbbbb; stroke-width: 0.5"/>
   </g>
   <g id="line2d_4">
    <path d="M 352.662191 226.175607 
L 352.662191 161.152527 
" clip-path="url(#pf8e10b2888)" style="fill: none; stroke-dasharray: 1.85,0.8; stroke-dashoffset: 0; stroke: #bbbbbb; stroke-width: 0.5"/>
   </g>
   <g id="line2d_5">
    <path d="M 337.523711 262.29954 
L 337.523711 197.27646 
" clip-path="url(#pf8e10b2888)" style="fill: none; stroke-dasharray: 1.85,0.8; stroke-dashoffset: 0; stroke: #bbbbbb; stroke-width: 0.5"/>
   </g>
   <g id="line2d_6">
    <path d="M 322.723766 298.423473 
L 322.723766 233.400393 
" clip-path="url(#pf8e10b2888)" style="fill: none; stroke-dasharray: 1.85,0.8; stroke-dashoffset: 0; stroke: #bbbbbb; stroke-width: 0.5"/>
   </g>
   <g id="line2d_7">
    <path d="M 309.144987 334.547406 
L 309.144987 269.524327 
" clip-path="url(#pf8e10b2888)" style="fill: none; stroke-dasharray: 1.85,0.8; stroke-dashoffset: 0; stroke: #bbbbbb; stroke-width: 0.5"/>
   </g>
   <g id="line2d_8">
    <path d="M 297.324897 370.67134 
L 297.324897 305.64826 
" clip-path="url(#pf8e10b2888)" style="fill: none; stroke-dasharray: 1.85,0.8; stroke-dashoffset: 0; stroke: #bbbbbb; stroke-width: 0.5"/>
   </g>
   <g id="line2d_9">
    <path d="M 308.302332 406.795273 
L 308.302332 341.772193 
" clip-path="url(#pf8e10b2888)" style="fill: none; stroke-dasharray: 1.85,0.8; stroke-dashoffset: 0; stroke: #bbbbbb; stroke-width: 0.5"/>
   </g>
   <g id="line2d_10">
    <path d="M 261.7 392.345699 
L 513.008545 392.345699 
" clip-path="url(#pf8e10b2888)" style="fill: none; stroke-dasharray: 0.5,2.5; stroke-dashoffset: 0; stroke: #cccccc; stroke-width: 0.5"/>
   </g>
   <g id="line2d_11">
    <path d="M 261.7 356.221766 
L 513.008545 356.221766 
" clip-path="url(#pf8e10b2888)" style="fill: none; stroke-dasharray: 0.5,2.5; stroke-dashoffset: 0; stroke: #cccccc; stroke-width: 0.5"/>
   </g>
   <g id="line2d_12">
    <path d="M 261.7 320.097833 
L 513.008545 320.097833 
" clip-path="url(#pf8e10b2888)" style="fill: none; stroke-dasharray: 0.5,2.5; stroke-dashoffset: 0; stroke: #cccccc; stroke-width: 0.5"/>
   </g>
   <g id="line2d_13">
    <path d="M 261.7 283.9739 
L 513.008545 283.9739 
" clip-path="url(#pf8e10b2888)" style="fill: none; stroke-dasharray: 0.5,2.5; stroke-dashoffset: 0; stroke: #cccccc; stroke-width: 0.5"/>
   </g>
   <g id="line2d_14">
    <path d="M 261.7 247.849967 
L 513.008545 247.849967 
" clip-path="url(#pf8e10b2888)" style="fill: none; stroke-dasharray: 0.5,2.5; stroke-dashoffset: 0; stroke: #cccccc; stroke-width: 0.5"/>
   </g>
   <g id="line2d_15">
    <path d="M 261.7 211.726033 
L 513.008545 211.726033 
" clip-path="url(#pf8e10b2888)" style="fill: none; stroke-dasharray: 0.5,2.5; stroke-dashoffset: 0; stroke: #cccccc; stroke-width: 0.5"/>
   </g>
   <g id="line2d_16">
    <path d="M 261.7 175.6021 
L 513.008545 175.6021 
" clip-path="url(#pf8e10b2888)" style="fill: none; stroke-dasharray: 0.5,2.5; stroke-dashoffset: 0; stroke: #cccccc; stroke-width: 0.5"/>
   </g>
   <g id="line2d_17">
    <path d="M 261.7 139.478167 
L 513.008545 139.478167 
" clip-path="url(#pf8e10b2888)" style="fill: none; stroke-dasharray: 0.5,2.5; stroke-dashoffset: 0; stroke: #cccccc; stroke-width: 0.5"/>
   </g>
   <g id="line2d_18">
    <path d="M 261.7 103.354234 
L 513.008545 103.354234 
" clip-path="url(#pf8e10b2888)" style="fill: none; stroke-dasharray: 0.5,2.5; stroke-dashoffset: 0; stroke: #cccccc; stroke-width: 0.5"/>
   </g>
   <g id="line2d_19">
    <path d="M 261.7 67.230301 
L 513.008545 67.230301 
" clip-path="url(#pf8e10b2888)" style="fill: none; stroke-dasharray: 0.5,2.5; stroke-dashoffset: 0; stroke: #cccccc; stroke-width: 0.5"/>
   </g>
   <g id="line2d_20">
    <path d="M 264.046485 424.496 
L 264.046485 385.5544 
" clip-path="url(#pf8e10b2888)" style="fill: none; stroke-dasharray: 1.85,0.8; stroke-dashoffset: 0; stroke: #bbbbbb; stroke-width: 0.5"/>
   </g>
   <g id="line2d_21">
    <path d="M 498.694987 424.496 
L 498.694987 35.08 
" clip-path="url(#pf8e10b2888)" style="fill: none; stroke-dasharray: 1.85,0.8; stroke-dashoffset: 0; stroke: #bbbbbb; stroke-width: 0.5"/>
   </g>
   <g id="patch_3">
    <path d="M 421.451903 81.679874 
L 501.041472 81.679874 
L 501.041472 52.780727 
L 421.451903 52.780727 
L 421.451903 81.679874 
z
" clip-path="url(#pf8e10b2888)" style="fill: none; opacity: 0"/>
   </g>
   <g id="patch_4">
    <path d="M 390.040316 117.803807 
L 449.609723 117.803807 
L 449.609723 88.90466 
L 390.040316 88.90466 
L 390.040316 117.803807 
z
" clip-path="url(#pf8e10b2888)" style="fill: none; opacity: 0"/>
   </g>
   <g id="patch_5">
    <path d="M 365.669078 153.92774 
L 418.198137 153.92774 
L 418.198137 125.028594 
L 365.669078 125.028594 
L 365.669078 153.92774 
z
" clip-path="url(#pf8e10b2888)" style="fill: none; opacity: 0"/>
   </g>
   <g id="patch_6">
    <path d="M 350.315706 190.051673 
L 393.826898 190.051673 
L 393.826898 161.152527 
L 350.315706 161.152527 
L 350.315706 190.051673 
z
" clip-path="url(#pf8e10b2888)" style="fill: none; opacity: 0"/>
   </g>
   <g id="patch_7">
    <path d="M 335.177226 226.175607 
L 378.473526 226.175607 
L 378.473526 197.27646 
L 335.177226 197.27646 
L 335.177226 226.175607 
z
" clip-path="url(#pf8e10b2888)" style="fill: none; opacity: 0"/>
   </g>
   <g id="patch_8">
    <path d="M 320.377281 262.29954 
L 363.335046 262.29954 
L 363.335046 233.400393 
L 320.377281 233.400393 
L 320.377281 262.29954 
z
" clip-path="url(#pf8e10b2888)" style="fill: none; opacity: 0"/>
   </g>
   <g id="patch_9">
    <path d="M 306.798502 298.423473 
L 348.535101 298.423473 
L 348.535101 269.524327 
L 306.798502 269.524327 
L 306.798502 298.423473 
z
" clip-path="url(#pf8e10b2888)" style="fill: none; opacity: 0"/>
   </g>
   <g id="patch_10">
    <path d="M 294.978412 334.547406 
L 334.956322 334.547406 
L 334.956322 305.64826 
L 294.978412 305.64826 
L 294.978412 334.547406 
z
" clip-path="url(#pf8e10b2888)" style="fill: none; opacity: 0"/>
   </g>
   <g id="patch_11">
    <path d="M 261.7 406.795273 
L 310.648817 406.795273 
L 310.648817 377.896126 
L 261.7 377.896126 
L 261.7 406.795273 
z
" clip-path="url(#pf8e10b2888)" style="fill: none; opacity: 0"/>
   </g>
   <g id="patch_12">
    <path d="M 310.648817 370.67134 
L 271.513562 370.67134 
L 271.513562 341.772193 
L 310.648817 341.772193 
L 310.648817 370.67134 
z
" clip-path="url(#pf8e10b2888)" style="fill: none; opacity: 0"/>
   </g>
   <g id="patch_13">
    <path d="M 498.694987 67.230301 
L 495.452296 81.679874 
L 495.452296 81.679874 
L 423.798388 81.679874 
L 423.798388 52.780727 
L 495.452296 52.780727 
L 495.452296 52.780727 
z
" clip-path="url(#pf8e10b2888)" style="fill: #ff0051; stroke: #ff0051; stroke-linejoin: miter"/>
   </g>
   <g id="patch_14">
    <path d="M 423.798388 103.354234 
L 420.555697 117.803807 
L 420.555697 117.803807 
L 392.386801 117.803807 
L 392.386801 88.90466 
L 420.555697 88.90466 
L 420.555697 88.90466 
z
" clip-path="url(#pf8e10b2888)" style="fill: #ff0051; stroke: #ff0051; stroke-linejoin: miter"/>
   </g>
   <g id="patch_15">
    <path d="M 392.386801 139.478167 
L 389.14411 153.92774 
L 389.14411 153.92774 
L 368.015563 153.92774 
L 368.015563 125.028594 
L 389.14411 125.028594 
L 389.14411 125.028594 
z
" clip-path="url(#pf8e10b2888)" style="fill: #ff0051; stroke: #ff0051; stroke-linejoin: miter"/>
   </g>
   <g id="patch_16">
    <path d="M 368.015563 175.6021 
L 364.772872 190.051673 
L 364.772872 190.051673 
L 352.662191 190.051673 
L 352.662191 161.152527 
L 364.772872 161.152527 
L 364.772872 161.152527 
z
" clip-path="url(#pf8e10b2888)" style="fill: #ff0051; stroke: #ff0051; stroke-linejoin: miter"/>
   </g>
   <g id="patch_17">
    <path d="M 352.662191 211.726033 
L 349.4195 226.175607 
L 349.4195 226.175607 
L 337.523711 226.175607 
L 337.523711 197.27646 
L 349.4195 197.27646 
L 349.4195 197.27646 
z
" clip-path="url(#pf8e10b2888)" style="fill: #ff0051; stroke: #ff0051; stroke-linejoin: miter"/>
   </g>
   <g id="patch_18">
    <path d="M 337.523711 247.849967 
L 334.28102 262.29954 
L 334.28102 262.29954 
L 322.723766 262.29954 
L 322.723766 233.400393 
L 334.28102 233.400393 
L 334.28102 233.400393 
z
" clip-path="url(#pf8e10b2888)" style="fill: #ff0051; stroke: #ff0051; stroke-linejoin: miter"/>
   </g>
   <g id="patch_19">
    <path d="M 322.723766 283.9739 
L 319.481075 298.423473 
L 319.481075 298.423473 
L 309.144987 298.423473 
L 309.144987 269.524327 
L 319.481075 269.524327 
L 319.481075 269.524327 
z
" clip-path="url(#pf8e10b2888)" style="fill: #ff0051; stroke: #ff0051; stroke-linejoin: miter"/>
   </g>
   <g id="patch_20">
    <path d="M 309.144987 320.097833 
L 305.902296 334.547406 
L 305.902296 334.547406 
L 297.324897 334.547406 
L 297.324897 305.64826 
L 305.902296 305.64826 
L 305.902296 305.64826 
z
" clip-path="url(#pf8e10b2888)" style="fill: #ff0051; stroke: #ff0051; stroke-linejoin: miter"/>
   </g>
   <g id="patch_21">
    <path d="M 308.302332 392.345699 
L 305.059641 406.795273 
L 305.059641 406.795273 
L 264.046485 406.795273 
L 264.046485 377.896126 
L 305.059641 377.896126 
L 305.059641 377.896126 
z
" clip-path="url(#pf8e10b2888)" style="fill: #ff0051; stroke: #ff0051; stroke-linejoin: miter"/>
   </g>
   <g id="patch_22">
    <path d="M 297.324897 356.221766 
L 300.567588 341.772193 
L 300.567588 341.772193 
L 308.302332 341.772193 
L 308.302332 370.67134 
L 300.567588 370.67134 
L 300.567588 370.67134 
z
" clip-path="url(#pf8e10b2888)" style="fill: #008bfb; stroke: #008bfb; stroke-linejoin: miter"/>
   </g>
   <g id="matplotlib.axis_1">
    <g id="xtick_1">
     <g id="line2d_22">
      <defs>
       <path id="ma272e4cc46" d="M 0 0 
L 0 3.5 
" style="stroke: #000000; stroke-width: 0.8"/>
      </defs>
      <g>
       <use xlink:href="#ma272e4cc46" x="272.324091" y="424.496" style="stroke: #000000; stroke-width: 0.8"/>
      </g>
     </g>
     <g id="text_1">
      <!-- 0 -->
      <g transform="translate(268.188466 441.373969) scale(0.13 -0.13)">
       <defs>
        <path id="DejaVuSans-30" d="M 2034 4250 
Q 1547 4250 1301 3770 
Q 1056 3291 1056 2328 
Q 1056 1369 1301 889 
Q 1547 409 2034 409 
Q 2525 409 2770 889 
Q 3016 1369 3016 2328 
Q 3016 3291 2770 3770 
Q 2525 4250 2034 4250 
z
M 2034 4750 
Q 2819 4750 3233 4129 
Q 3647 3509 3647 2328 
Q 3647 1150 3233 529 
Q 2819 -91 2034 -91 
Q 1250 -91 836 529 
Q 422 1150 422 2328 
Q 422 3509 836 4129 
Q 1250 4750 2034 4750 
z
" transform="scale(0.015625)"/>
       </defs>
       <use xlink:href="#DejaVuSans-30"/>
      </g>
     </g>
    </g>
    <g id="xtick_2">
     <g id="line2d_23">
      <g>
       <use xlink:href="#ma272e4cc46" x="342.482948" y="424.496" style="stroke: #000000; stroke-width: 0.8"/>
      </g>
     </g>
     <g id="text_2">
      <!-- 2 -->
      <g transform="translate(338.347323 441.373969) scale(0.13 -0.13)">
       <defs>
        <path id="DejaVuSans-32" d="M 1228 531 
L 3431 531 
L 3431 0 
L 469 0 
L 469 531 
Q 828 903 1448 1529 
Q 2069 2156 2228 2338 
Q 2531 2678 2651 2914 
Q 2772 3150 2772 3378 
Q 2772 3750 2511 3984 
Q 2250 4219 1831 4219 
Q 1534 4219 1204 4116 
Q 875 4013 500 3803 
L 500 4441 
Q 881 4594 1212 4672 
Q 1544 4750 1819 4750 
Q 2544 4750 2975 4387 
Q 3406 4025 3406 3419 
Q 3406 3131 3298 2873 
Q 3191 2616 2906 2266 
Q 2828 2175 2409 1742 
Q 1991 1309 1228 531 
z
" transform="scale(0.015625)"/>
       </defs>
       <use xlink:href="#DejaVuSans-32"/>
      </g>
     </g>
    </g>
    <g id="xtick_3">
     <g id="line2d_24">
      <g>
       <use xlink:href="#ma272e4cc46" x="412.641804" y="424.496" style="stroke: #000000; stroke-width: 0.8"/>
      </g>
     </g>
     <g id="text_3">
      <!-- 4 -->
      <g transform="translate(408.506179 441.373969) scale(0.13 -0.13)">
       <defs>
        <path id="DejaVuSans-34" d="M 2419 4116 
L 825 1625 
L 2419 1625 
L 2419 4116 
z
M 2253 4666 
L 3047 4666 
L 3047 1625 
L 3713 1625 
L 3713 1100 
L 3047 1100 
L 3047 0 
L 2419 0 
L 2419 1100 
L 313 1100 
L 313 1709 
L 2253 4666 
z
" transform="scale(0.015625)"/>
       </defs>
       <use xlink:href="#DejaVuSans-34"/>
      </g>
     </g>
    </g>
    <g id="xtick_4">
     <g id="line2d_25">
      <g>
       <use xlink:href="#ma272e4cc46" x="482.800661" y="424.496" style="stroke: #000000; stroke-width: 0.8"/>
      </g>
     </g>
     <g id="text_4">
      <!-- 6 -->
      <g transform="translate(478.665036 441.373969) scale(0.13 -0.13)">
       <defs>
        <path id="DejaVuSans-36" d="M 2113 2584 
Q 1688 2584 1439 2293 
Q 1191 2003 1191 1497 
Q 1191 994 1439 701 
Q 1688 409 2113 409 
Q 2538 409 2786 701 
Q 3034 994 3034 1497 
Q 3034 2003 2786 2293 
Q 2538 2584 2113 2584 
z
M 3366 4563 
L 3366 3988 
Q 3128 4100 2886 4159 
Q 2644 4219 2406 4219 
Q 1781 4219 1451 3797 
Q 1122 3375 1075 2522 
Q 1259 2794 1537 2939 
Q 1816 3084 2150 3084 
Q 2853 3084 3261 2657 
Q 3669 2231 3669 1497 
Q 3669 778 3244 343 
Q 2819 -91 2113 -91 
Q 1303 -91 875 529 
Q 447 1150 447 2328 
Q 447 3434 972 4092 
Q 1497 4750 2381 4750 
Q 2619 4750 2861 4703 
Q 3103 4656 3366 4563 
z
" transform="scale(0.015625)"/>
       </defs>
       <use xlink:href="#DejaVuSans-36"/>
      </g>
     </g>
    </g>
   </g>
   <g id="matplotlib.axis_2">
    <g id="ytick_1">
     <g id="text_5">
      <!-- 115 other features -->
      <g style="fill: #999999" transform="translate(133.290156 397.284684) scale(0.13 -0.13)">
       <defs>
        <path id="DejaVuSans-31" d="M 794 531 
L 1825 531 
L 1825 4091 
L 703 3866 
L 703 4441 
L 1819 4666 
L 2450 4666 
L 2450 531 
L 3481 531 
L 3481 0 
L 794 0 
L 794 531 
z
" transform="scale(0.015625)"/>
        <path id="DejaVuSans-35" d="M 691 4666 
L 3169 4666 
L 3169 4134 
L 1269 4134 
L 1269 2991 
Q 1406 3038 1543 3061 
Q 1681 3084 1819 3084 
Q 2600 3084 3056 2656 
Q 3513 2228 3513 1497 
Q 3513 744 3044 326 
Q 2575 -91 1722 -91 
Q 1428 -91 1123 -41 
Q 819 9 494 109 
L 494 744 
Q 775 591 1075 516 
Q 1375 441 1709 441 
Q 2250 441 2565 725 
Q 2881 1009 2881 1497 
Q 2881 1984 2565 2268 
Q 2250 2553 1709 2553 
Q 1456 2553 1204 2497 
Q 953 2441 691 2322 
L 691 4666 
z
" transform="scale(0.015625)"/>
        <path id="DejaVuSans-20" transform="scale(0.015625)"/>
        <path id="DejaVuSans-6f" d="M 1959 3097 
Q 1497 3097 1228 2736 
Q 959 2375 959 1747 
Q 959 1119 1226 758 
Q 1494 397 1959 397 
Q 2419 397 2687 759 
Q 2956 1122 2956 1747 
Q 2956 2369 2687 2733 
Q 2419 3097 1959 3097 
z
M 1959 3584 
Q 2709 3584 3137 3096 
Q 3566 2609 3566 1747 
Q 3566 888 3137 398 
Q 2709 -91 1959 -91 
Q 1206 -91 779 398 
Q 353 888 353 1747 
Q 353 2609 779 3096 
Q 1206 3584 1959 3584 
z
" transform="scale(0.015625)"/>
        <path id="DejaVuSans-74" d="M 1172 4494 
L 1172 3500 
L 2356 3500 
L 2356 3053 
L 1172 3053 
L 1172 1153 
Q 1172 725 1289 603 
Q 1406 481 1766 481 
L 2356 481 
L 2356 0 
L 1766 0 
Q 1100 0 847 248 
Q 594 497 594 1153 
L 594 3053 
L 172 3053 
L 172 3500 
L 594 3500 
L 594 4494 
L 1172 4494 
z
" transform="scale(0.015625)"/>
        <path id="DejaVuSans-68" d="M 3513 2113 
L 3513 0 
L 2938 0 
L 2938 2094 
Q 2938 2591 2744 2837 
Q 2550 3084 2163 3084 
Q 1697 3084 1428 2787 
Q 1159 2491 1159 1978 
L 1159 0 
L 581 0 
L 581 4863 
L 1159 4863 
L 1159 2956 
Q 1366 3272 1645 3428 
Q 1925 3584 2291 3584 
Q 2894 3584 3203 3211 
Q 3513 2838 3513 2113 
z
" transform="scale(0.015625)"/>
        <path id="DejaVuSans-65" d="M 3597 1894 
L 3597 1613 
L 953 1613 
Q 991 1019 1311 708 
Q 1631 397 2203 397 
Q 2534 397 2845 478 
Q 3156 559 3463 722 
L 3463 178 
Q 3153 47 2828 -22 
Q 2503 -91 2169 -91 
Q 1331 -91 842 396 
Q 353 884 353 1716 
Q 353 2575 817 3079 
Q 1281 3584 2069 3584 
Q 2775 3584 3186 3129 
Q 3597 2675 3597 1894 
z
M 3022 2063 
Q 3016 2534 2758 2815 
Q 2500 3097 2075 3097 
Q 1594 3097 1305 2825 
Q 1016 2553 972 2059 
L 3022 2063 
z
" transform="scale(0.015625)"/>
        <path id="DejaVuSans-72" d="M 2631 2963 
Q 2534 3019 2420 3045 
Q 2306 3072 2169 3072 
Q 1681 3072 1420 2755 
Q 1159 2438 1159 1844 
L 1159 0 
L 581 0 
L 581 3500 
L 1159 3500 
L 1159 2956 
Q 1341 3275 1631 3429 
Q 1922 3584 2338 3584 
Q 2397 3584 2469 3576 
Q 2541 3569 2628 3553 
L 2631 2963 
z
" transform="scale(0.015625)"/>
        <path id="DejaVuSans-66" d="M 2375 4863 
L 2375 4384 
L 1825 4384 
Q 1516 4384 1395 4259 
Q 1275 4134 1275 3809 
L 1275 3500 
L 2222 3500 
L 2222 3053 
L 1275 3053 
L 1275 0 
L 697 0 
L 697 3053 
L 147 3053 
L 147 3500 
L 697 3500 
L 697 3744 
Q 697 4328 969 4595 
Q 1241 4863 1831 4863 
L 2375 4863 
z
" transform="scale(0.015625)"/>
        <path id="DejaVuSans-61" d="M 2194 1759 
Q 1497 1759 1228 1600 
Q 959 1441 959 1056 
Q 959 750 1161 570 
Q 1363 391 1709 391 
Q 2188 391 2477 730 
Q 2766 1069 2766 1631 
L 2766 1759 
L 2194 1759 
z
M 3341 1997 
L 3341 0 
L 2766 0 
L 2766 531 
Q 2569 213 2275 61 
Q 1981 -91 1556 -91 
Q 1019 -91 701 211 
Q 384 513 384 1019 
Q 384 1609 779 1909 
Q 1175 2209 1959 2209 
L 2766 2209 
L 2766 2266 
Q 2766 2663 2505 2880 
Q 2244 3097 1772 3097 
Q 1472 3097 1187 3025 
Q 903 2953 641 2809 
L 641 3341 
Q 956 3463 1253 3523 
Q 1550 3584 1831 3584 
Q 2591 3584 2966 3190 
Q 3341 2797 3341 1997 
z
" transform="scale(0.015625)"/>
        <path id="DejaVuSans-75" d="M 544 1381 
L 544 3500 
L 1119 3500 
L 1119 1403 
Q 1119 906 1312 657 
Q 1506 409 1894 409 
Q 2359 409 2629 706 
Q 2900 1003 2900 1516 
L 2900 3500 
L 3475 3500 
L 3475 0 
L 2900 0 
L 2900 538 
Q 2691 219 2414 64 
Q 2138 -91 1772 -91 
Q 1169 -91 856 284 
Q 544 659 544 1381 
z
M 1991 3584 
L 1991 3584 
z
" transform="scale(0.015625)"/>
        <path id="DejaVuSans-73" d="M 2834 3397 
L 2834 2853 
Q 2591 2978 2328 3040 
Q 2066 3103 1784 3103 
Q 1356 3103 1142 2972 
Q 928 2841 928 2578 
Q 928 2378 1081 2264 
Q 1234 2150 1697 2047 
L 1894 2003 
Q 2506 1872 2764 1633 
Q 3022 1394 3022 966 
Q 3022 478 2636 193 
Q 2250 -91 1575 -91 
Q 1294 -91 989 -36 
Q 684 19 347 128 
L 347 722 
Q 666 556 975 473 
Q 1284 391 1588 391 
Q 1994 391 2212 530 
Q 2431 669 2431 922 
Q 2431 1156 2273 1281 
Q 2116 1406 1581 1522 
L 1381 1569 
Q 847 1681 609 1914 
Q 372 2147 372 2553 
Q 372 3047 722 3315 
Q 1072 3584 1716 3584 
Q 2034 3584 2315 3537 
Q 2597 3491 2834 3397 
z
" transform="scale(0.015625)"/>
       </defs>
       <use xlink:href="#DejaVuSans-31"/>
       <use xlink:href="#DejaVuSans-31" x="63.623047"/>
       <use xlink:href="#DejaVuSans-35" x="127.246094"/>
       <use xlink:href="#DejaVuSans-20" x="190.869141"/>
       <use xlink:href="#DejaVuSans-6f" x="222.65625"/>
       <use xlink:href="#DejaVuSans-74" x="283.837891"/>
       <use xlink:href="#DejaVuSans-68" x="323.046875"/>
       <use xlink:href="#DejaVuSans-65" x="386.425781"/>
       <use xlink:href="#DejaVuSans-72" x="447.949219"/>
       <use xlink:href="#DejaVuSans-20" x="489.0625"/>
       <use xlink:href="#DejaVuSans-66" x="520.849609"/>
       <use xlink:href="#DejaVuSans-65" x="556.054688"/>
       <use xlink:href="#DejaVuSans-61" x="617.578125"/>
       <use xlink:href="#DejaVuSans-74" x="678.857422"/>
       <use xlink:href="#DejaVuSans-75" x="718.066406"/>
       <use xlink:href="#DejaVuSans-72" x="781.445312"/>
       <use xlink:href="#DejaVuSans-65" x="820.308594"/>
       <use xlink:href="#DejaVuSans-73" x="881.832031"/>
      </g>
     </g>
    </g>
    <g id="ytick_2">
     <g id="text_6">
      <!-- 12 = HopVerbTr3TotCorr_BTOTSCORE -->
      <g style="fill: #999999" transform="translate(11.279062 361.160751) scale(0.13 -0.13)">
       <defs>
        <path id="DejaVuSans-3d" d="M 678 2906 
L 4684 2906 
L 4684 2381 
L 678 2381 
L 678 2906 
z
M 678 1631 
L 4684 1631 
L 4684 1100 
L 678 1100 
L 678 1631 
z
" transform="scale(0.015625)"/>
        <path id="DejaVuSans-48" d="M 628 4666 
L 1259 4666 
L 1259 2753 
L 3553 2753 
L 3553 4666 
L 4184 4666 
L 4184 0 
L 3553 0 
L 3553 2222 
L 1259 2222 
L 1259 0 
L 628 0 
L 628 4666 
z
" transform="scale(0.015625)"/>
        <path id="DejaVuSans-70" d="M 1159 525 
L 1159 -1331 
L 581 -1331 
L 581 3500 
L 1159 3500 
L 1159 2969 
Q 1341 3281 1617 3432 
Q 1894 3584 2278 3584 
Q 2916 3584 3314 3078 
Q 3713 2572 3713 1747 
Q 3713 922 3314 415 
Q 2916 -91 2278 -91 
Q 1894 -91 1617 61 
Q 1341 213 1159 525 
z
M 3116 1747 
Q 3116 2381 2855 2742 
Q 2594 3103 2138 3103 
Q 1681 3103 1420 2742 
Q 1159 2381 1159 1747 
Q 1159 1113 1420 752 
Q 1681 391 2138 391 
Q 2594 391 2855 752 
Q 3116 1113 3116 1747 
z
" transform="scale(0.015625)"/>
        <path id="DejaVuSans-56" d="M 1831 0 
L 50 4666 
L 709 4666 
L 2188 738 
L 3669 4666 
L 4325 4666 
L 2547 0 
L 1831 0 
z
" transform="scale(0.015625)"/>
        <path id="DejaVuSans-62" d="M 3116 1747 
Q 3116 2381 2855 2742 
Q 2594 3103 2138 3103 
Q 1681 3103 1420 2742 
Q 1159 2381 1159 1747 
Q 1159 1113 1420 752 
Q 1681 391 2138 391 
Q 2594 391 2855 752 
Q 3116 1113 3116 1747 
z
M 1159 2969 
Q 1341 3281 1617 3432 
Q 1894 3584 2278 3584 
Q 2916 3584 3314 3078 
Q 3713 2572 3713 1747 
Q 3713 922 3314 415 
Q 2916 -91 2278 -91 
Q 1894 -91 1617 61 
Q 1341 213 1159 525 
L 1159 0 
L 581 0 
L 581 4863 
L 1159 4863 
L 1159 2969 
z
" transform="scale(0.015625)"/>
        <path id="DejaVuSans-54" d="M -19 4666 
L 3928 4666 
L 3928 4134 
L 2272 4134 
L 2272 0 
L 1638 0 
L 1638 4134 
L -19 4134 
L -19 4666 
z
" transform="scale(0.015625)"/>
        <path id="DejaVuSans-33" d="M 2597 2516 
Q 3050 2419 3304 2112 
Q 3559 1806 3559 1356 
Q 3559 666 3084 287 
Q 2609 -91 1734 -91 
Q 1441 -91 1130 -33 
Q 819 25 488 141 
L 488 750 
Q 750 597 1062 519 
Q 1375 441 1716 441 
Q 2309 441 2620 675 
Q 2931 909 2931 1356 
Q 2931 1769 2642 2001 
Q 2353 2234 1838 2234 
L 1294 2234 
L 1294 2753 
L 1863 2753 
Q 2328 2753 2575 2939 
Q 2822 3125 2822 3475 
Q 2822 3834 2567 4026 
Q 2313 4219 1838 4219 
Q 1578 4219 1281 4162 
Q 984 4106 628 3988 
L 628 4550 
Q 988 4650 1302 4700 
Q 1616 4750 1894 4750 
Q 2613 4750 3031 4423 
Q 3450 4097 3450 3541 
Q 3450 3153 3228 2886 
Q 3006 2619 2597 2516 
z
" transform="scale(0.015625)"/>
        <path id="DejaVuSans-43" d="M 4122 4306 
L 4122 3641 
Q 3803 3938 3442 4084 
Q 3081 4231 2675 4231 
Q 1875 4231 1450 3742 
Q 1025 3253 1025 2328 
Q 1025 1406 1450 917 
Q 1875 428 2675 428 
Q 3081 428 3442 575 
Q 3803 722 4122 1019 
L 4122 359 
Q 3791 134 3420 21 
Q 3050 -91 2638 -91 
Q 1578 -91 968 557 
Q 359 1206 359 2328 
Q 359 3453 968 4101 
Q 1578 4750 2638 4750 
Q 3056 4750 3426 4639 
Q 3797 4528 4122 4306 
z
" transform="scale(0.015625)"/>
        <path id="DejaVuSans-5f" d="M 3263 -1063 
L 3263 -1509 
L -63 -1509 
L -63 -1063 
L 3263 -1063 
z
" transform="scale(0.015625)"/>
        <path id="DejaVuSans-42" d="M 1259 2228 
L 1259 519 
L 2272 519 
Q 2781 519 3026 730 
Q 3272 941 3272 1375 
Q 3272 1813 3026 2020 
Q 2781 2228 2272 2228 
L 1259 2228 
z
M 1259 4147 
L 1259 2741 
L 2194 2741 
Q 2656 2741 2882 2914 
Q 3109 3088 3109 3444 
Q 3109 3797 2882 3972 
Q 2656 4147 2194 4147 
L 1259 4147 
z
M 628 4666 
L 2241 4666 
Q 2963 4666 3353 4366 
Q 3744 4066 3744 3513 
Q 3744 3084 3544 2831 
Q 3344 2578 2956 2516 
Q 3422 2416 3680 2098 
Q 3938 1781 3938 1306 
Q 3938 681 3513 340 
Q 3088 0 2303 0 
L 628 0 
L 628 4666 
z
" transform="scale(0.015625)"/>
        <path id="DejaVuSans-4f" d="M 2522 4238 
Q 1834 4238 1429 3725 
Q 1025 3213 1025 2328 
Q 1025 1447 1429 934 
Q 1834 422 2522 422 
Q 3209 422 3611 934 
Q 4013 1447 4013 2328 
Q 4013 3213 3611 3725 
Q 3209 4238 2522 4238 
z
M 2522 4750 
Q 3503 4750 4090 4092 
Q 4678 3434 4678 2328 
Q 4678 1225 4090 567 
Q 3503 -91 2522 -91 
Q 1538 -91 948 565 
Q 359 1222 359 2328 
Q 359 3434 948 4092 
Q 1538 4750 2522 4750 
z
" transform="scale(0.015625)"/>
        <path id="DejaVuSans-53" d="M 3425 4513 
L 3425 3897 
Q 3066 4069 2747 4153 
Q 2428 4238 2131 4238 
Q 1616 4238 1336 4038 
Q 1056 3838 1056 3469 
Q 1056 3159 1242 3001 
Q 1428 2844 1947 2747 
L 2328 2669 
Q 3034 2534 3370 2195 
Q 3706 1856 3706 1288 
Q 3706 609 3251 259 
Q 2797 -91 1919 -91 
Q 1588 -91 1214 -16 
Q 841 59 441 206 
L 441 856 
Q 825 641 1194 531 
Q 1563 422 1919 422 
Q 2459 422 2753 634 
Q 3047 847 3047 1241 
Q 3047 1584 2836 1778 
Q 2625 1972 2144 2069 
L 1759 2144 
Q 1053 2284 737 2584 
Q 422 2884 422 3419 
Q 422 4038 858 4394 
Q 1294 4750 2059 4750 
Q 2388 4750 2728 4690 
Q 3069 4631 3425 4513 
z
" transform="scale(0.015625)"/>
        <path id="DejaVuSans-52" d="M 2841 2188 
Q 3044 2119 3236 1894 
Q 3428 1669 3622 1275 
L 4263 0 
L 3584 0 
L 2988 1197 
Q 2756 1666 2539 1819 
Q 2322 1972 1947 1972 
L 1259 1972 
L 1259 0 
L 628 0 
L 628 4666 
L 2053 4666 
Q 2853 4666 3247 4331 
Q 3641 3997 3641 3322 
Q 3641 2881 3436 2590 
Q 3231 2300 2841 2188 
z
M 1259 4147 
L 1259 2491 
L 2053 2491 
Q 2509 2491 2742 2702 
Q 2975 2913 2975 3322 
Q 2975 3731 2742 3939 
Q 2509 4147 2053 4147 
L 1259 4147 
z
" transform="scale(0.015625)"/>
        <path id="DejaVuSans-45" d="M 628 4666 
L 3578 4666 
L 3578 4134 
L 1259 4134 
L 1259 2753 
L 3481 2753 
L 3481 2222 
L 1259 2222 
L 1259 531 
L 3634 531 
L 3634 0 
L 628 0 
L 628 4666 
z
" transform="scale(0.015625)"/>
       </defs>
       <use xlink:href="#DejaVuSans-31"/>
       <use xlink:href="#DejaVuSans-32" x="63.623047"/>
       <use xlink:href="#DejaVuSans-20" x="127.246094"/>
       <use xlink:href="#DejaVuSans-3d" x="159.033203"/>
       <use xlink:href="#DejaVuSans-20" x="242.822266"/>
       <use xlink:href="#DejaVuSans-48" x="274.609375"/>
       <use xlink:href="#DejaVuSans-6f" x="349.804688"/>
       <use xlink:href="#DejaVuSans-70" x="410.986328"/>
       <use xlink:href="#DejaVuSans-56" x="474.462891"/>
       <use xlink:href="#DejaVuSans-65" x="535.121094"/>
       <use xlink:href="#DejaVuSans-72" x="596.644531"/>
       <use xlink:href="#DejaVuSans-62" x="637.757812"/>
       <use xlink:href="#DejaVuSans-54" x="701.234375"/>
       <use xlink:href="#DejaVuSans-72" x="747.568359"/>
       <use xlink:href="#DejaVuSans-33" x="788.681641"/>
       <use xlink:href="#DejaVuSans-54" x="852.304688"/>
       <use xlink:href="#DejaVuSans-6f" x="896.388672"/>
       <use xlink:href="#DejaVuSans-74" x="957.570312"/>
       <use xlink:href="#DejaVuSans-43" x="996.779297"/>
       <use xlink:href="#DejaVuSans-6f" x="1066.603516"/>
       <use xlink:href="#DejaVuSans-72" x="1127.785156"/>
       <use xlink:href="#DejaVuSans-72" x="1167.148438"/>
       <use xlink:href="#DejaVuSans-5f" x="1208.261719"/>
       <use xlink:href="#DejaVuSans-42" x="1258.261719"/>
       <use xlink:href="#DejaVuSans-54" x="1326.865234"/>
       <use xlink:href="#DejaVuSans-4f" x="1387.949219"/>
       <use xlink:href="#DejaVuSans-54" x="1466.660156"/>
       <use xlink:href="#DejaVuSans-53" x="1527.744141"/>
       <use xlink:href="#DejaVuSans-43" x="1591.220703"/>
       <use xlink:href="#DejaVuSans-4f" x="1661.044922"/>
       <use xlink:href="#DejaVuSans-52" x="1739.755859"/>
       <use xlink:href="#DejaVuSans-45" x="1809.238281"/>
      </g>
     </g>
    </g>
    <g id="ytick_3">
     <g id="text_7">
      <!-- 0 = ExtentSympLowBG_unaware -->
      <g style="fill: #999999" transform="translate(41.11 324.922052) scale(0.13 -0.13)">
       <defs>
        <path id="DejaVuSans-78" d="M 3513 3500 
L 2247 1797 
L 3578 0 
L 2900 0 
L 1881 1375 
L 863 0 
L 184 0 
L 1544 1831 
L 300 3500 
L 978 3500 
L 1906 2253 
L 2834 3500 
L 3513 3500 
z
" transform="scale(0.015625)"/>
        <path id="DejaVuSans-6e" d="M 3513 2113 
L 3513 0 
L 2938 0 
L 2938 2094 
Q 2938 2591 2744 2837 
Q 2550 3084 2163 3084 
Q 1697 3084 1428 2787 
Q 1159 2491 1159 1978 
L 1159 0 
L 581 0 
L 581 3500 
L 1159 3500 
L 1159 2956 
Q 1366 3272 1645 3428 
Q 1925 3584 2291 3584 
Q 2894 3584 3203 3211 
Q 3513 2838 3513 2113 
z
" transform="scale(0.015625)"/>
        <path id="DejaVuSans-79" d="M 2059 -325 
Q 1816 -950 1584 -1140 
Q 1353 -1331 966 -1331 
L 506 -1331 
L 506 -850 
L 844 -850 
Q 1081 -850 1212 -737 
Q 1344 -625 1503 -206 
L 1606 56 
L 191 3500 
L 800 3500 
L 1894 763 
L 2988 3500 
L 3597 3500 
L 2059 -325 
z
" transform="scale(0.015625)"/>
        <path id="DejaVuSans-6d" d="M 3328 2828 
Q 3544 3216 3844 3400 
Q 4144 3584 4550 3584 
Q 5097 3584 5394 3201 
Q 5691 2819 5691 2113 
L 5691 0 
L 5113 0 
L 5113 2094 
Q 5113 2597 4934 2840 
Q 4756 3084 4391 3084 
Q 3944 3084 3684 2787 
Q 3425 2491 3425 1978 
L 3425 0 
L 2847 0 
L 2847 2094 
Q 2847 2600 2669 2842 
Q 2491 3084 2119 3084 
Q 1678 3084 1418 2786 
Q 1159 2488 1159 1978 
L 1159 0 
L 581 0 
L 581 3500 
L 1159 3500 
L 1159 2956 
Q 1356 3278 1631 3431 
Q 1906 3584 2284 3584 
Q 2666 3584 2933 3390 
Q 3200 3197 3328 2828 
z
" transform="scale(0.015625)"/>
        <path id="DejaVuSans-4c" d="M 628 4666 
L 1259 4666 
L 1259 531 
L 3531 531 
L 3531 0 
L 628 0 
L 628 4666 
z
" transform="scale(0.015625)"/>
        <path id="DejaVuSans-77" d="M 269 3500 
L 844 3500 
L 1563 769 
L 2278 3500 
L 2956 3500 
L 3675 769 
L 4391 3500 
L 4966 3500 
L 4050 0 
L 3372 0 
L 2619 2869 
L 1863 0 
L 1184 0 
L 269 3500 
z
" transform="scale(0.015625)"/>
        <path id="DejaVuSans-47" d="M 3809 666 
L 3809 1919 
L 2778 1919 
L 2778 2438 
L 4434 2438 
L 4434 434 
Q 4069 175 3628 42 
Q 3188 -91 2688 -91 
Q 1594 -91 976 548 
Q 359 1188 359 2328 
Q 359 3472 976 4111 
Q 1594 4750 2688 4750 
Q 3144 4750 3555 4637 
Q 3966 4525 4313 4306 
L 4313 3634 
Q 3963 3931 3569 4081 
Q 3175 4231 2741 4231 
Q 1884 4231 1454 3753 
Q 1025 3275 1025 2328 
Q 1025 1384 1454 906 
Q 1884 428 2741 428 
Q 3075 428 3337 486 
Q 3600 544 3809 666 
z
" transform="scale(0.015625)"/>
       </defs>
       <use xlink:href="#DejaVuSans-30"/>
       <use xlink:href="#DejaVuSans-20" x="63.623047"/>
       <use xlink:href="#DejaVuSans-3d" x="95.410156"/>
       <use xlink:href="#DejaVuSans-20" x="179.199219"/>
       <use xlink:href="#DejaVuSans-45" x="210.986328"/>
       <use xlink:href="#DejaVuSans-78" x="274.169922"/>
       <use xlink:href="#DejaVuSans-74" x="333.349609"/>
       <use xlink:href="#DejaVuSans-65" x="372.558594"/>
       <use xlink:href="#DejaVuSans-6e" x="434.082031"/>
       <use xlink:href="#DejaVuSans-74" x="497.460938"/>
       <use xlink:href="#DejaVuSans-53" x="536.669922"/>
       <use xlink:href="#DejaVuSans-79" x="600.146484"/>
       <use xlink:href="#DejaVuSans-6d" x="659.326172"/>
       <use xlink:href="#DejaVuSans-70" x="756.738281"/>
       <use xlink:href="#DejaVuSans-4c" x="820.214844"/>
       <use xlink:href="#DejaVuSans-6f" x="874.177734"/>
       <use xlink:href="#DejaVuSans-77" x="935.359375"/>
       <use xlink:href="#DejaVuSans-42" x="1017.146484"/>
       <use xlink:href="#DejaVuSans-47" x="1084"/>
       <use xlink:href="#DejaVuSans-5f" x="1161.490234"/>
       <use xlink:href="#DejaVuSans-75" x="1211.490234"/>
       <use xlink:href="#DejaVuSans-6e" x="1274.869141"/>
       <use xlink:href="#DejaVuSans-61" x="1338.248047"/>
       <use xlink:href="#DejaVuSans-77" x="1399.527344"/>
       <use xlink:href="#DejaVuSans-61" x="1481.314453"/>
       <use xlink:href="#DejaVuSans-72" x="1542.59375"/>
       <use xlink:href="#DejaVuSans-65" x="1581.457031"/>
      </g>
     </g>
    </g>
    <g id="ytick_4">
     <g id="text_8">
      <!-- 5 = Bel70PastMonNoSymp_unaware -->
      <g style="fill: #999999" transform="translate(18.565156 288.912884) scale(0.13 -0.13)">
       <defs>
        <path id="DejaVuSans-6c" d="M 603 4863 
L 1178 4863 
L 1178 0 
L 603 0 
L 603 4863 
z
" transform="scale(0.015625)"/>
        <path id="DejaVuSans-37" d="M 525 4666 
L 3525 4666 
L 3525 4397 
L 1831 0 
L 1172 0 
L 2766 4134 
L 525 4134 
L 525 4666 
z
" transform="scale(0.015625)"/>
        <path id="DejaVuSans-50" d="M 1259 4147 
L 1259 2394 
L 2053 2394 
Q 2494 2394 2734 2622 
Q 2975 2850 2975 3272 
Q 2975 3691 2734 3919 
Q 2494 4147 2053 4147 
L 1259 4147 
z
M 628 4666 
L 2053 4666 
Q 2838 4666 3239 4311 
Q 3641 3956 3641 3272 
Q 3641 2581 3239 2228 
Q 2838 1875 2053 1875 
L 1259 1875 
L 1259 0 
L 628 0 
L 628 4666 
z
" transform="scale(0.015625)"/>
        <path id="DejaVuSans-4d" d="M 628 4666 
L 1569 4666 
L 2759 1491 
L 3956 4666 
L 4897 4666 
L 4897 0 
L 4281 0 
L 4281 4097 
L 3078 897 
L 2444 897 
L 1241 4097 
L 1241 0 
L 628 0 
L 628 4666 
z
" transform="scale(0.015625)"/>
        <path id="DejaVuSans-4e" d="M 628 4666 
L 1478 4666 
L 3547 763 
L 3547 4666 
L 4159 4666 
L 4159 0 
L 3309 0 
L 1241 3903 
L 1241 0 
L 628 0 
L 628 4666 
z
" transform="scale(0.015625)"/>
       </defs>
       <use xlink:href="#DejaVuSans-35"/>
       <use xlink:href="#DejaVuSans-20" x="63.623047"/>
       <use xlink:href="#DejaVuSans-3d" x="95.410156"/>
       <use xlink:href="#DejaVuSans-20" x="179.199219"/>
       <use xlink:href="#DejaVuSans-42" x="210.986328"/>
       <use xlink:href="#DejaVuSans-65" x="279.589844"/>
       <use xlink:href="#DejaVuSans-6c" x="341.113281"/>
       <use xlink:href="#DejaVuSans-37" x="368.896484"/>
       <use xlink:href="#DejaVuSans-30" x="432.519531"/>
       <use xlink:href="#DejaVuSans-50" x="496.142578"/>
       <use xlink:href="#DejaVuSans-61" x="551.945312"/>
       <use xlink:href="#DejaVuSans-73" x="613.224609"/>
       <use xlink:href="#DejaVuSans-74" x="665.324219"/>
       <use xlink:href="#DejaVuSans-4d" x="704.533203"/>
       <use xlink:href="#DejaVuSans-6f" x="790.8125"/>
       <use xlink:href="#DejaVuSans-6e" x="851.994141"/>
       <use xlink:href="#DejaVuSans-4e" x="915.373047"/>
       <use xlink:href="#DejaVuSans-6f" x="990.177734"/>
       <use xlink:href="#DejaVuSans-53" x="1051.359375"/>
       <use xlink:href="#DejaVuSans-79" x="1114.835938"/>
       <use xlink:href="#DejaVuSans-6d" x="1174.015625"/>
       <use xlink:href="#DejaVuSans-70" x="1271.427734"/>
       <use xlink:href="#DejaVuSans-5f" x="1334.904297"/>
       <use xlink:href="#DejaVuSans-75" x="1384.904297"/>
       <use xlink:href="#DejaVuSans-6e" x="1448.283203"/>
       <use xlink:href="#DejaVuSans-61" x="1511.662109"/>
       <use xlink:href="#DejaVuSans-77" x="1572.941406"/>
       <use xlink:href="#DejaVuSans-61" x="1654.728516"/>
       <use xlink:href="#DejaVuSans-72" x="1716.007812"/>
       <use xlink:href="#DejaVuSans-65" x="1754.871094"/>
      </g>
     </g>
    </g>
    <g id="ytick_5">
     <g id="text_9">
      <!-- 80 = PtID -->
      <g style="fill: #999999" transform="translate(192.220781 252.788951) scale(0.13 -0.13)">
       <defs>
        <path id="DejaVuSans-38" d="M 2034 2216 
Q 1584 2216 1326 1975 
Q 1069 1734 1069 1313 
Q 1069 891 1326 650 
Q 1584 409 2034 409 
Q 2484 409 2743 651 
Q 3003 894 3003 1313 
Q 3003 1734 2745 1975 
Q 2488 2216 2034 2216 
z
M 1403 2484 
Q 997 2584 770 2862 
Q 544 3141 544 3541 
Q 544 4100 942 4425 
Q 1341 4750 2034 4750 
Q 2731 4750 3128 4425 
Q 3525 4100 3525 3541 
Q 3525 3141 3298 2862 
Q 3072 2584 2669 2484 
Q 3125 2378 3379 2068 
Q 3634 1759 3634 1313 
Q 3634 634 3220 271 
Q 2806 -91 2034 -91 
Q 1263 -91 848 271 
Q 434 634 434 1313 
Q 434 1759 690 2068 
Q 947 2378 1403 2484 
z
M 1172 3481 
Q 1172 3119 1398 2916 
Q 1625 2713 2034 2713 
Q 2441 2713 2670 2916 
Q 2900 3119 2900 3481 
Q 2900 3844 2670 4047 
Q 2441 4250 2034 4250 
Q 1625 4250 1398 4047 
Q 1172 3844 1172 3481 
z
" transform="scale(0.015625)"/>
        <path id="DejaVuSans-49" d="M 628 4666 
L 1259 4666 
L 1259 0 
L 628 0 
L 628 4666 
z
" transform="scale(0.015625)"/>
        <path id="DejaVuSans-44" d="M 1259 4147 
L 1259 519 
L 2022 519 
Q 2988 519 3436 956 
Q 3884 1394 3884 2338 
Q 3884 3275 3436 3711 
Q 2988 4147 2022 4147 
L 1259 4147 
z
M 628 4666 
L 1925 4666 
Q 3281 4666 3915 4102 
Q 4550 3538 4550 2338 
Q 4550 1131 3912 565 
Q 3275 0 1925 0 
L 628 0 
L 628 4666 
z
" transform="scale(0.015625)"/>
       </defs>
       <use xlink:href="#DejaVuSans-38"/>
       <use xlink:href="#DejaVuSans-30" x="63.623047"/>
       <use xlink:href="#DejaVuSans-20" x="127.246094"/>
       <use xlink:href="#DejaVuSans-3d" x="159.033203"/>
       <use xlink:href="#DejaVuSans-20" x="242.822266"/>
       <use xlink:href="#DejaVuSans-50" x="274.609375"/>
       <use xlink:href="#DejaVuSans-74" x="334.912109"/>
       <use xlink:href="#DejaVuSans-49" x="374.121094"/>
       <use xlink:href="#DejaVuSans-44" x="403.613281"/>
      </g>
     </g>
    </g>
    <g id="ytick_6">
     <g id="text_10">
      <!-- 17.8 = Height_mod_BMedChart -->
      <g style="fill: #999999" transform="translate(49.64125 216.665018) scale(0.13 -0.13)">
       <defs>
        <path id="DejaVuSans-2e" d="M 684 794 
L 1344 794 
L 1344 0 
L 684 0 
L 684 794 
z
" transform="scale(0.015625)"/>
        <path id="DejaVuSans-69" d="M 603 3500 
L 1178 3500 
L 1178 0 
L 603 0 
L 603 3500 
z
M 603 4863 
L 1178 4863 
L 1178 4134 
L 603 4134 
L 603 4863 
z
" transform="scale(0.015625)"/>
        <path id="DejaVuSans-67" d="M 2906 1791 
Q 2906 2416 2648 2759 
Q 2391 3103 1925 3103 
Q 1463 3103 1205 2759 
Q 947 2416 947 1791 
Q 947 1169 1205 825 
Q 1463 481 1925 481 
Q 2391 481 2648 825 
Q 2906 1169 2906 1791 
z
M 3481 434 
Q 3481 -459 3084 -895 
Q 2688 -1331 1869 -1331 
Q 1566 -1331 1297 -1286 
Q 1028 -1241 775 -1147 
L 775 -588 
Q 1028 -725 1275 -790 
Q 1522 -856 1778 -856 
Q 2344 -856 2625 -561 
Q 2906 -266 2906 331 
L 2906 616 
Q 2728 306 2450 153 
Q 2172 0 1784 0 
Q 1141 0 747 490 
Q 353 981 353 1791 
Q 353 2603 747 3093 
Q 1141 3584 1784 3584 
Q 2172 3584 2450 3431 
Q 2728 3278 2906 2969 
L 2906 3500 
L 3481 3500 
L 3481 434 
z
" transform="scale(0.015625)"/>
        <path id="DejaVuSans-64" d="M 2906 2969 
L 2906 4863 
L 3481 4863 
L 3481 0 
L 2906 0 
L 2906 525 
Q 2725 213 2448 61 
Q 2172 -91 1784 -91 
Q 1150 -91 751 415 
Q 353 922 353 1747 
Q 353 2572 751 3078 
Q 1150 3584 1784 3584 
Q 2172 3584 2448 3432 
Q 2725 3281 2906 2969 
z
M 947 1747 
Q 947 1113 1208 752 
Q 1469 391 1925 391 
Q 2381 391 2643 752 
Q 2906 1113 2906 1747 
Q 2906 2381 2643 2742 
Q 2381 3103 1925 3103 
Q 1469 3103 1208 2742 
Q 947 2381 947 1747 
z
" transform="scale(0.015625)"/>
       </defs>
       <use xlink:href="#DejaVuSans-31"/>
       <use xlink:href="#DejaVuSans-37" x="63.623047"/>
       <use xlink:href="#DejaVuSans-2e" x="127.246094"/>
       <use xlink:href="#DejaVuSans-38" x="159.033203"/>
       <use xlink:href="#DejaVuSans-20" x="222.65625"/>
       <use xlink:href="#DejaVuSans-3d" x="254.443359"/>
       <use xlink:href="#DejaVuSans-20" x="338.232422"/>
       <use xlink:href="#DejaVuSans-48" x="370.019531"/>
       <use xlink:href="#DejaVuSans-65" x="445.214844"/>
       <use xlink:href="#DejaVuSans-69" x="506.738281"/>
       <use xlink:href="#DejaVuSans-67" x="534.521484"/>
       <use xlink:href="#DejaVuSans-68" x="597.998047"/>
       <use xlink:href="#DejaVuSans-74" x="661.376953"/>
       <use xlink:href="#DejaVuSans-5f" x="700.585938"/>
       <use xlink:href="#DejaVuSans-6d" x="750.585938"/>
       <use xlink:href="#DejaVuSans-6f" x="847.998047"/>
       <use xlink:href="#DejaVuSans-64" x="909.179688"/>
       <use xlink:href="#DejaVuSans-5f" x="972.65625"/>
       <use xlink:href="#DejaVuSans-42" x="1022.65625"/>
       <use xlink:href="#DejaVuSans-4d" x="1091.259766"/>
       <use xlink:href="#DejaVuSans-65" x="1177.539062"/>
       <use xlink:href="#DejaVuSans-64" x="1239.0625"/>
       <use xlink:href="#DejaVuSans-43" x="1302.539062"/>
       <use xlink:href="#DejaVuSans-68" x="1372.363281"/>
       <use xlink:href="#DejaVuSans-61" x="1435.742188"/>
       <use xlink:href="#DejaVuSans-72" x="1497.021484"/>
       <use xlink:href="#DejaVuSans-74" x="1538.134766"/>
      </g>
     </g>
    </g>
    <g id="ytick_7">
     <g id="text_11">
      <!-- 1 = WorryReactDrive_fear -->
      <g style="fill: #999999" transform="translate(85.368906 180.541085) scale(0.13 -0.13)">
       <defs>
        <path id="DejaVuSans-57" d="M 213 4666 
L 850 4666 
L 1831 722 
L 2809 4666 
L 3519 4666 
L 4500 722 
L 5478 4666 
L 6119 4666 
L 4947 0 
L 4153 0 
L 3169 4050 
L 2175 0 
L 1381 0 
L 213 4666 
z
" transform="scale(0.015625)"/>
        <path id="DejaVuSans-63" d="M 3122 3366 
L 3122 2828 
Q 2878 2963 2633 3030 
Q 2388 3097 2138 3097 
Q 1578 3097 1268 2742 
Q 959 2388 959 1747 
Q 959 1106 1268 751 
Q 1578 397 2138 397 
Q 2388 397 2633 464 
Q 2878 531 3122 666 
L 3122 134 
Q 2881 22 2623 -34 
Q 2366 -91 2075 -91 
Q 1284 -91 818 406 
Q 353 903 353 1747 
Q 353 2603 823 3093 
Q 1294 3584 2113 3584 
Q 2378 3584 2631 3529 
Q 2884 3475 3122 3366 
z
" transform="scale(0.015625)"/>
        <path id="DejaVuSans-76" d="M 191 3500 
L 800 3500 
L 1894 563 
L 2988 3500 
L 3597 3500 
L 2284 0 
L 1503 0 
L 191 3500 
z
" transform="scale(0.015625)"/>
       </defs>
       <use xlink:href="#DejaVuSans-31"/>
       <use xlink:href="#DejaVuSans-20" x="63.623047"/>
       <use xlink:href="#DejaVuSans-3d" x="95.410156"/>
       <use xlink:href="#DejaVuSans-20" x="179.199219"/>
       <use xlink:href="#DejaVuSans-57" x="210.986328"/>
       <use xlink:href="#DejaVuSans-6f" x="303.988281"/>
       <use xlink:href="#DejaVuSans-72" x="365.169922"/>
       <use xlink:href="#DejaVuSans-72" x="404.533203"/>
       <use xlink:href="#DejaVuSans-79" x="445.646484"/>
       <use xlink:href="#DejaVuSans-52" x="504.826172"/>
       <use xlink:href="#DejaVuSans-65" x="569.808594"/>
       <use xlink:href="#DejaVuSans-61" x="631.332031"/>
       <use xlink:href="#DejaVuSans-63" x="692.611328"/>
       <use xlink:href="#DejaVuSans-74" x="747.591797"/>
       <use xlink:href="#DejaVuSans-44" x="786.800781"/>
       <use xlink:href="#DejaVuSans-72" x="863.802734"/>
       <use xlink:href="#DejaVuSans-69" x="904.916016"/>
       <use xlink:href="#DejaVuSans-76" x="932.699219"/>
       <use xlink:href="#DejaVuSans-65" x="991.878906"/>
       <use xlink:href="#DejaVuSans-5f" x="1053.402344"/>
       <use xlink:href="#DejaVuSans-66" x="1103.402344"/>
       <use xlink:href="#DejaVuSans-65" x="1138.607422"/>
       <use xlink:href="#DejaVuSans-61" x="1200.130859"/>
       <use xlink:href="#DejaVuSans-72" x="1261.410156"/>
      </g>
     </g>
    </g>
    <g id="ytick_8">
     <g id="text_12">
      <!-- 50 = SymbDigWTotCorr_BTOTSCORE -->
      <g style="fill: #999999" transform="translate(14.791094 144.417151) scale(0.13 -0.13)">
       <use xlink:href="#DejaVuSans-35"/>
       <use xlink:href="#DejaVuSans-30" x="63.623047"/>
       <use xlink:href="#DejaVuSans-20" x="127.246094"/>
       <use xlink:href="#DejaVuSans-3d" x="159.033203"/>
       <use xlink:href="#DejaVuSans-20" x="242.822266"/>
       <use xlink:href="#DejaVuSans-53" x="274.609375"/>
       <use xlink:href="#DejaVuSans-79" x="338.085938"/>
       <use xlink:href="#DejaVuSans-6d" x="397.265625"/>
       <use xlink:href="#DejaVuSans-62" x="494.677734"/>
       <use xlink:href="#DejaVuSans-44" x="558.154297"/>
       <use xlink:href="#DejaVuSans-69" x="635.15625"/>
       <use xlink:href="#DejaVuSans-67" x="662.939453"/>
       <use xlink:href="#DejaVuSans-57" x="726.416016"/>
       <use xlink:href="#DejaVuSans-54" x="825.292969"/>
       <use xlink:href="#DejaVuSans-6f" x="869.376953"/>
       <use xlink:href="#DejaVuSans-74" x="930.558594"/>
       <use xlink:href="#DejaVuSans-43" x="969.767578"/>
       <use xlink:href="#DejaVuSans-6f" x="1039.591797"/>
       <use xlink:href="#DejaVuSans-72" x="1100.773438"/>
       <use xlink:href="#DejaVuSans-72" x="1140.136719"/>
       <use xlink:href="#DejaVuSans-5f" x="1181.25"/>
       <use xlink:href="#DejaVuSans-42" x="1231.25"/>
       <use xlink:href="#DejaVuSans-54" x="1299.853516"/>
       <use xlink:href="#DejaVuSans-4f" x="1360.9375"/>
       <use xlink:href="#DejaVuSans-54" x="1439.648438"/>
       <use xlink:href="#DejaVuSans-53" x="1500.732422"/>
       <use xlink:href="#DejaVuSans-43" x="1564.208984"/>
       <use xlink:href="#DejaVuSans-4f" x="1634.033203"/>
       <use xlink:href="#DejaVuSans-52" x="1712.744141"/>
       <use xlink:href="#DejaVuSans-45" x="1782.226562"/>
      </g>
     </g>
    </g>
    <g id="ytick_9">
     <g id="text_13">
      <!-- 0 = LowBGSympCat_unaware -->
      <g style="fill: #999999" transform="translate(61.30875 108.178453) scale(0.13 -0.13)">
       <use xlink:href="#DejaVuSans-30"/>
       <use xlink:href="#DejaVuSans-20" x="63.623047"/>
       <use xlink:href="#DejaVuSans-3d" x="95.410156"/>
       <use xlink:href="#DejaVuSans-20" x="179.199219"/>
       <use xlink:href="#DejaVuSans-4c" x="210.986328"/>
       <use xlink:href="#DejaVuSans-6f" x="264.949219"/>
       <use xlink:href="#DejaVuSans-77" x="326.130859"/>
       <use xlink:href="#DejaVuSans-42" x="407.917969"/>
       <use xlink:href="#DejaVuSans-47" x="474.771484"/>
       <use xlink:href="#DejaVuSans-53" x="552.261719"/>
       <use xlink:href="#DejaVuSans-79" x="615.738281"/>
       <use xlink:href="#DejaVuSans-6d" x="674.917969"/>
       <use xlink:href="#DejaVuSans-70" x="772.330078"/>
       <use xlink:href="#DejaVuSans-43" x="835.806641"/>
       <use xlink:href="#DejaVuSans-61" x="905.630859"/>
       <use xlink:href="#DejaVuSans-74" x="966.910156"/>
       <use xlink:href="#DejaVuSans-5f" x="1006.119141"/>
       <use xlink:href="#DejaVuSans-75" x="1056.119141"/>
       <use xlink:href="#DejaVuSans-6e" x="1119.498047"/>
       <use xlink:href="#DejaVuSans-61" x="1182.876953"/>
       <use xlink:href="#DejaVuSans-77" x="1244.15625"/>
       <use xlink:href="#DejaVuSans-61" x="1325.943359"/>
       <use xlink:href="#DejaVuSans-72" x="1387.222656"/>
       <use xlink:href="#DejaVuSans-65" x="1426.085938"/>
      </g>
     </g>
    </g>
    <g id="ytick_10">
     <g id="text_14">
      <!-- 9 = SevHypoEpPastYear_unaware -->
      <g style="fill: #999999" transform="translate(35.970937 72.054519) scale(0.13 -0.13)">
       <defs>
        <path id="DejaVuSans-39" d="M 703 97 
L 703 672 
Q 941 559 1184 500 
Q 1428 441 1663 441 
Q 2288 441 2617 861 
Q 2947 1281 2994 2138 
Q 2813 1869 2534 1725 
Q 2256 1581 1919 1581 
Q 1219 1581 811 2004 
Q 403 2428 403 3163 
Q 403 3881 828 4315 
Q 1253 4750 1959 4750 
Q 2769 4750 3195 4129 
Q 3622 3509 3622 2328 
Q 3622 1225 3098 567 
Q 2575 -91 1691 -91 
Q 1453 -91 1209 -44 
Q 966 3 703 97 
z
M 1959 2075 
Q 2384 2075 2632 2365 
Q 2881 2656 2881 3163 
Q 2881 3666 2632 3958 
Q 2384 4250 1959 4250 
Q 1534 4250 1286 3958 
Q 1038 3666 1038 3163 
Q 1038 2656 1286 2365 
Q 1534 2075 1959 2075 
z
" transform="scale(0.015625)"/>
        <path id="DejaVuSans-59" d="M -13 4666 
L 666 4666 
L 1959 2747 
L 3244 4666 
L 3922 4666 
L 2272 2222 
L 2272 0 
L 1638 0 
L 1638 2222 
L -13 4666 
z
" transform="scale(0.015625)"/>
       </defs>
       <use xlink:href="#DejaVuSans-39"/>
       <use xlink:href="#DejaVuSans-20" x="63.623047"/>
       <use xlink:href="#DejaVuSans-3d" x="95.410156"/>
       <use xlink:href="#DejaVuSans-20" x="179.199219"/>
       <use xlink:href="#DejaVuSans-53" x="210.986328"/>
       <use xlink:href="#DejaVuSans-65" x="274.462891"/>
       <use xlink:href="#DejaVuSans-76" x="335.986328"/>
       <use xlink:href="#DejaVuSans-48" x="395.166016"/>
       <use xlink:href="#DejaVuSans-79" x="470.361328"/>
       <use xlink:href="#DejaVuSans-70" x="529.541016"/>
       <use xlink:href="#DejaVuSans-6f" x="593.017578"/>
       <use xlink:href="#DejaVuSans-45" x="654.199219"/>
       <use xlink:href="#DejaVuSans-70" x="717.382812"/>
       <use xlink:href="#DejaVuSans-50" x="780.859375"/>
       <use xlink:href="#DejaVuSans-61" x="836.662109"/>
       <use xlink:href="#DejaVuSans-73" x="897.941406"/>
       <use xlink:href="#DejaVuSans-74" x="950.041016"/>
       <use xlink:href="#DejaVuSans-59" x="989.25"/>
       <use xlink:href="#DejaVuSans-65" x="1037.083984"/>
       <use xlink:href="#DejaVuSans-61" x="1098.607422"/>
       <use xlink:href="#DejaVuSans-72" x="1159.886719"/>
       <use xlink:href="#DejaVuSans-5f" x="1201"/>
       <use xlink:href="#DejaVuSans-75" x="1251"/>
       <use xlink:href="#DejaVuSans-6e" x="1314.378906"/>
       <use xlink:href="#DejaVuSans-61" x="1377.757812"/>
       <use xlink:href="#DejaVuSans-77" x="1439.037109"/>
       <use xlink:href="#DejaVuSans-61" x="1520.824219"/>
       <use xlink:href="#DejaVuSans-72" x="1582.103516"/>
       <use xlink:href="#DejaVuSans-65" x="1620.966797"/>
      </g>
     </g>
    </g>
    <g id="ytick_11">
     <g id="text_15">
      <!-- 115 other features -->
      <g transform="translate(133.290156 397.284683) scale(0.13 -0.13)">
       <use xlink:href="#DejaVuSans-31"/>
       <use xlink:href="#DejaVuSans-31" x="63.623047"/>
       <use xlink:href="#DejaVuSans-35" x="127.246094"/>
       <use xlink:href="#DejaVuSans-20" x="190.869141"/>
       <use xlink:href="#DejaVuSans-6f" x="222.65625"/>
       <use xlink:href="#DejaVuSans-74" x="283.837891"/>
       <use xlink:href="#DejaVuSans-68" x="323.046875"/>
       <use xlink:href="#DejaVuSans-65" x="386.425781"/>
       <use xlink:href="#DejaVuSans-72" x="447.949219"/>
       <use xlink:href="#DejaVuSans-20" x="489.0625"/>
       <use xlink:href="#DejaVuSans-66" x="520.849609"/>
       <use xlink:href="#DejaVuSans-65" x="556.054688"/>
       <use xlink:href="#DejaVuSans-61" x="617.578125"/>
       <use xlink:href="#DejaVuSans-74" x="678.857422"/>
       <use xlink:href="#DejaVuSans-75" x="718.066406"/>
       <use xlink:href="#DejaVuSans-72" x="781.445312"/>
       <use xlink:href="#DejaVuSans-65" x="820.308594"/>
       <use xlink:href="#DejaVuSans-73" x="881.832031"/>
      </g>
     </g>
    </g>
    <g id="ytick_12">
     <g id="text_16">
      <!--  HopVerbTr3TotCorr_BTOTSCORE -->
      <g transform="translate(42.846719 361.16075) scale(0.13 -0.13)">
       <use xlink:href="#DejaVuSans-20"/>
       <use xlink:href="#DejaVuSans-48" x="31.787109"/>
       <use xlink:href="#DejaVuSans-6f" x="106.982422"/>
       <use xlink:href="#DejaVuSans-70" x="168.164062"/>
       <use xlink:href="#DejaVuSans-56" x="231.640625"/>
       <use xlink:href="#DejaVuSans-65" x="292.298828"/>
       <use xlink:href="#DejaVuSans-72" x="353.822266"/>
       <use xlink:href="#DejaVuSans-62" x="394.935547"/>
       <use xlink:href="#DejaVuSans-54" x="458.412109"/>
       <use xlink:href="#DejaVuSans-72" x="504.746094"/>
       <use xlink:href="#DejaVuSans-33" x="545.859375"/>
       <use xlink:href="#DejaVuSans-54" x="609.482422"/>
       <use xlink:href="#DejaVuSans-6f" x="653.566406"/>
       <use xlink:href="#DejaVuSans-74" x="714.748047"/>
       <use xlink:href="#DejaVuSans-43" x="753.957031"/>
       <use xlink:href="#DejaVuSans-6f" x="823.78125"/>
       <use xlink:href="#DejaVuSans-72" x="884.962891"/>
       <use xlink:href="#DejaVuSans-72" x="924.326172"/>
       <use xlink:href="#DejaVuSans-5f" x="965.439453"/>
       <use xlink:href="#DejaVuSans-42" x="1015.439453"/>
       <use xlink:href="#DejaVuSans-54" x="1084.042969"/>
       <use xlink:href="#DejaVuSans-4f" x="1145.126953"/>
       <use xlink:href="#DejaVuSans-54" x="1223.837891"/>
       <use xlink:href="#DejaVuSans-53" x="1284.921875"/>
       <use xlink:href="#DejaVuSans-43" x="1348.398438"/>
       <use xlink:href="#DejaVuSans-4f" x="1418.222656"/>
       <use xlink:href="#DejaVuSans-52" x="1496.933594"/>
       <use xlink:href="#DejaVuSans-45" x="1566.416016"/>
      </g>
     </g>
    </g>
    <g id="ytick_13">
     <g id="text_17">
      <!--  ExtentSympLowBG_unaware -->
      <g transform="translate(64.406406 324.922051) scale(0.13 -0.13)">
       <use xlink:href="#DejaVuSans-20"/>
       <use xlink:href="#DejaVuSans-45" x="31.787109"/>
       <use xlink:href="#DejaVuSans-78" x="94.970703"/>
       <use xlink:href="#DejaVuSans-74" x="154.150391"/>
       <use xlink:href="#DejaVuSans-65" x="193.359375"/>
       <use xlink:href="#DejaVuSans-6e" x="254.882812"/>
       <use xlink:href="#DejaVuSans-74" x="318.261719"/>
       <use xlink:href="#DejaVuSans-53" x="357.470703"/>
       <use xlink:href="#DejaVuSans-79" x="420.947266"/>
       <use xlink:href="#DejaVuSans-6d" x="480.126953"/>
       <use xlink:href="#DejaVuSans-70" x="577.539062"/>
       <use xlink:href="#DejaVuSans-4c" x="641.015625"/>
       <use xlink:href="#DejaVuSans-6f" x="694.978516"/>
       <use xlink:href="#DejaVuSans-77" x="756.160156"/>
       <use xlink:href="#DejaVuSans-42" x="837.947266"/>
       <use xlink:href="#DejaVuSans-47" x="904.800781"/>
       <use xlink:href="#DejaVuSans-5f" x="982.291016"/>
       <use xlink:href="#DejaVuSans-75" x="1032.291016"/>
       <use xlink:href="#DejaVuSans-6e" x="1095.669922"/>
       <use xlink:href="#DejaVuSans-61" x="1159.048828"/>
       <use xlink:href="#DejaVuSans-77" x="1220.328125"/>
       <use xlink:href="#DejaVuSans-61" x="1302.115234"/>
       <use xlink:href="#DejaVuSans-72" x="1363.394531"/>
       <use xlink:href="#DejaVuSans-65" x="1402.257812"/>
      </g>
     </g>
    </g>
    <g id="ytick_14">
     <g id="text_18">
      <!--  Bel70PastMonNoSymp_unaware -->
      <g transform="translate(41.861562 288.912884) scale(0.13 -0.13)">
       <use xlink:href="#DejaVuSans-20"/>
       <use xlink:href="#DejaVuSans-42" x="31.787109"/>
       <use xlink:href="#DejaVuSans-65" x="100.390625"/>
       <use xlink:href="#DejaVuSans-6c" x="161.914062"/>
       <use xlink:href="#DejaVuSans-37" x="189.697266"/>
       <use xlink:href="#DejaVuSans-30" x="253.320312"/>
       <use xlink:href="#DejaVuSans-50" x="316.943359"/>
       <use xlink:href="#DejaVuSans-61" x="372.746094"/>
       <use xlink:href="#DejaVuSans-73" x="434.025391"/>
       <use xlink:href="#DejaVuSans-74" x="486.125"/>
       <use xlink:href="#DejaVuSans-4d" x="525.333984"/>
       <use xlink:href="#DejaVuSans-6f" x="611.613281"/>
       <use xlink:href="#DejaVuSans-6e" x="672.794922"/>
       <use xlink:href="#DejaVuSans-4e" x="736.173828"/>
       <use xlink:href="#DejaVuSans-6f" x="810.978516"/>
       <use xlink:href="#DejaVuSans-53" x="872.160156"/>
       <use xlink:href="#DejaVuSans-79" x="935.636719"/>
       <use xlink:href="#DejaVuSans-6d" x="994.816406"/>
       <use xlink:href="#DejaVuSans-70" x="1092.228516"/>
       <use xlink:href="#DejaVuSans-5f" x="1155.705078"/>
       <use xlink:href="#DejaVuSans-75" x="1205.705078"/>
       <use xlink:href="#DejaVuSans-6e" x="1269.083984"/>
       <use xlink:href="#DejaVuSans-61" x="1332.462891"/>
       <use xlink:href="#DejaVuSans-77" x="1393.742188"/>
       <use xlink:href="#DejaVuSans-61" x="1475.529297"/>
       <use xlink:href="#DejaVuSans-72" x="1536.808594"/>
       <use xlink:href="#DejaVuSans-65" x="1575.671875"/>
      </g>
     </g>
    </g>
    <g id="ytick_15">
     <g id="text_19">
      <!--  PtID -->
      <g transform="translate(223.788437 252.788951) scale(0.13 -0.13)">
       <use xlink:href="#DejaVuSans-20"/>
       <use xlink:href="#DejaVuSans-50" x="31.787109"/>
       <use xlink:href="#DejaVuSans-74" x="92.089844"/>
       <use xlink:href="#DejaVuSans-49" x="131.298828"/>
       <use xlink:href="#DejaVuSans-44" x="160.791016"/>
      </g>
     </g>
    </g>
    <g id="ytick_16">
     <g id="text_20">
      <!--  Height_mod_BMedChart -->
      <g transform="translate(93.611719 216.665017) scale(0.13 -0.13)">
       <use xlink:href="#DejaVuSans-20"/>
       <use xlink:href="#DejaVuSans-48" x="31.787109"/>
       <use xlink:href="#DejaVuSans-65" x="106.982422"/>
       <use xlink:href="#DejaVuSans-69" x="168.505859"/>
       <use xlink:href="#DejaVuSans-67" x="196.289062"/>
       <use xlink:href="#DejaVuSans-68" x="259.765625"/>
       <use xlink:href="#DejaVuSans-74" x="323.144531"/>
       <use xlink:href="#DejaVuSans-5f" x="362.353516"/>
       <use xlink:href="#DejaVuSans-6d" x="412.353516"/>
       <use xlink:href="#DejaVuSans-6f" x="509.765625"/>
       <use xlink:href="#DejaVuSans-64" x="570.947266"/>
       <use xlink:href="#DejaVuSans-5f" x="634.423828"/>
       <use xlink:href="#DejaVuSans-42" x="684.423828"/>
       <use xlink:href="#DejaVuSans-4d" x="753.027344"/>
       <use xlink:href="#DejaVuSans-65" x="839.306641"/>
       <use xlink:href="#DejaVuSans-64" x="900.830078"/>
       <use xlink:href="#DejaVuSans-43" x="964.306641"/>
       <use xlink:href="#DejaVuSans-68" x="1034.130859"/>
       <use xlink:href="#DejaVuSans-61" x="1097.509766"/>
       <use xlink:href="#DejaVuSans-72" x="1158.789062"/>
       <use xlink:href="#DejaVuSans-74" x="1199.902344"/>
      </g>
     </g>
    </g>
    <g id="ytick_17">
     <g id="text_21">
      <!--  WorryReactDrive_fear -->
      <g transform="translate(108.665312 180.541084) scale(0.13 -0.13)">
       <use xlink:href="#DejaVuSans-20"/>
       <use xlink:href="#DejaVuSans-57" x="31.787109"/>
       <use xlink:href="#DejaVuSans-6f" x="124.789062"/>
       <use xlink:href="#DejaVuSans-72" x="185.970703"/>
       <use xlink:href="#DejaVuSans-72" x="225.333984"/>
       <use xlink:href="#DejaVuSans-79" x="266.447266"/>
       <use xlink:href="#DejaVuSans-52" x="325.626953"/>
       <use xlink:href="#DejaVuSans-65" x="390.609375"/>
       <use xlink:href="#DejaVuSans-61" x="452.132812"/>
       <use xlink:href="#DejaVuSans-63" x="513.412109"/>
       <use xlink:href="#DejaVuSans-74" x="568.392578"/>
       <use xlink:href="#DejaVuSans-44" x="607.601562"/>
       <use xlink:href="#DejaVuSans-72" x="684.603516"/>
       <use xlink:href="#DejaVuSans-69" x="725.716797"/>
       <use xlink:href="#DejaVuSans-76" x="753.5"/>
       <use xlink:href="#DejaVuSans-65" x="812.679688"/>
       <use xlink:href="#DejaVuSans-5f" x="874.203125"/>
       <use xlink:href="#DejaVuSans-66" x="924.203125"/>
       <use xlink:href="#DejaVuSans-65" x="959.408203"/>
       <use xlink:href="#DejaVuSans-61" x="1020.931641"/>
       <use xlink:href="#DejaVuSans-72" x="1082.210938"/>
      </g>
     </g>
    </g>
    <g id="ytick_18">
     <g id="text_22">
      <!--  SymbDigWTotCorr_BTOTSCORE -->
      <g transform="translate(46.35875 144.417151) scale(0.13 -0.13)">
       <use xlink:href="#DejaVuSans-20"/>
       <use xlink:href="#DejaVuSans-53" x="31.787109"/>
       <use xlink:href="#DejaVuSans-79" x="95.263672"/>
       <use xlink:href="#DejaVuSans-6d" x="154.443359"/>
       <use xlink:href="#DejaVuSans-62" x="251.855469"/>
       <use xlink:href="#DejaVuSans-44" x="315.332031"/>
       <use xlink:href="#DejaVuSans-69" x="392.333984"/>
       <use xlink:href="#DejaVuSans-67" x="420.117188"/>
       <use xlink:href="#DejaVuSans-57" x="483.59375"/>
       <use xlink:href="#DejaVuSans-54" x="582.470703"/>
       <use xlink:href="#DejaVuSans-6f" x="626.554688"/>
       <use xlink:href="#DejaVuSans-74" x="687.736328"/>
       <use xlink:href="#DejaVuSans-43" x="726.945312"/>
       <use xlink:href="#DejaVuSans-6f" x="796.769531"/>
       <use xlink:href="#DejaVuSans-72" x="857.951172"/>
       <use xlink:href="#DejaVuSans-72" x="897.314453"/>
       <use xlink:href="#DejaVuSans-5f" x="938.427734"/>
       <use xlink:href="#DejaVuSans-42" x="988.427734"/>
       <use xlink:href="#DejaVuSans-54" x="1057.03125"/>
       <use xlink:href="#DejaVuSans-4f" x="1118.115234"/>
       <use xlink:href="#DejaVuSans-54" x="1196.826172"/>
       <use xlink:href="#DejaVuSans-53" x="1257.910156"/>
       <use xlink:href="#DejaVuSans-43" x="1321.386719"/>
       <use xlink:href="#DejaVuSans-4f" x="1391.210938"/>
       <use xlink:href="#DejaVuSans-52" x="1469.921875"/>
       <use xlink:href="#DejaVuSans-45" x="1539.404297"/>
      </g>
     </g>
    </g>
    <g id="ytick_19">
     <g id="text_23">
      <!--  LowBGSympCat_unaware -->
      <g transform="translate(84.605156 108.178452) scale(0.13 -0.13)">
       <use xlink:href="#DejaVuSans-20"/>
       <use xlink:href="#DejaVuSans-4c" x="31.787109"/>
       <use xlink:href="#DejaVuSans-6f" x="85.75"/>
       <use xlink:href="#DejaVuSans-77" x="146.931641"/>
       <use xlink:href="#DejaVuSans-42" x="228.71875"/>
       <use xlink:href="#DejaVuSans-47" x="295.572266"/>
       <use xlink:href="#DejaVuSans-53" x="373.0625"/>
       <use xlink:href="#DejaVuSans-79" x="436.539062"/>
       <use xlink:href="#DejaVuSans-6d" x="495.71875"/>
       <use xlink:href="#DejaVuSans-70" x="593.130859"/>
       <use xlink:href="#DejaVuSans-43" x="656.607422"/>
       <use xlink:href="#DejaVuSans-61" x="726.431641"/>
       <use xlink:href="#DejaVuSans-74" x="787.710938"/>
       <use xlink:href="#DejaVuSans-5f" x="826.919922"/>
       <use xlink:href="#DejaVuSans-75" x="876.919922"/>
       <use xlink:href="#DejaVuSans-6e" x="940.298828"/>
       <use xlink:href="#DejaVuSans-61" x="1003.677734"/>
       <use xlink:href="#DejaVuSans-77" x="1064.957031"/>
       <use xlink:href="#DejaVuSans-61" x="1146.744141"/>
       <use xlink:href="#DejaVuSans-72" x="1208.023438"/>
       <use xlink:href="#DejaVuSans-65" x="1246.886719"/>
      </g>
     </g>
    </g>
    <g id="ytick_20">
     <g id="text_24">
      <!--  SevHypoEpPastYear_unaware -->
      <g transform="translate(59.267344 72.054519) scale(0.13 -0.13)">
       <use xlink:href="#DejaVuSans-20"/>
       <use xlink:href="#DejaVuSans-53" x="31.787109"/>
       <use xlink:href="#DejaVuSans-65" x="95.263672"/>
       <use xlink:href="#DejaVuSans-76" x="156.787109"/>
       <use xlink:href="#DejaVuSans-48" x="215.966797"/>
       <use xlink:href="#DejaVuSans-79" x="291.162109"/>
       <use xlink:href="#DejaVuSans-70" x="350.341797"/>
       <use xlink:href="#DejaVuSans-6f" x="413.818359"/>
       <use xlink:href="#DejaVuSans-45" x="475"/>
       <use xlink:href="#DejaVuSans-70" x="538.183594"/>
       <use xlink:href="#DejaVuSans-50" x="601.660156"/>
       <use xlink:href="#DejaVuSans-61" x="657.462891"/>
       <use xlink:href="#DejaVuSans-73" x="718.742188"/>
       <use xlink:href="#DejaVuSans-74" x="770.841797"/>
       <use xlink:href="#DejaVuSans-59" x="810.050781"/>
       <use xlink:href="#DejaVuSans-65" x="857.884766"/>
       <use xlink:href="#DejaVuSans-61" x="919.408203"/>
       <use xlink:href="#DejaVuSans-72" x="980.6875"/>
       <use xlink:href="#DejaVuSans-5f" x="1021.800781"/>
       <use xlink:href="#DejaVuSans-75" x="1071.800781"/>
       <use xlink:href="#DejaVuSans-6e" x="1135.179688"/>
       <use xlink:href="#DejaVuSans-61" x="1198.558594"/>
       <use xlink:href="#DejaVuSans-77" x="1259.837891"/>
       <use xlink:href="#DejaVuSans-61" x="1341.625"/>
       <use xlink:href="#DejaVuSans-72" x="1402.904297"/>
       <use xlink:href="#DejaVuSans-65" x="1441.767578"/>
      </g>
     </g>
    </g>
   </g>
   <g id="patch_23">
    <path d="M 261.7 424.496 
L 513.008545 424.496 
" style="fill: none; stroke: #000000; stroke-width: 0.8; stroke-linejoin: miter; stroke-linecap: square"/>
   </g>
   <g id="text_25">
    <!-- +2.14 -->
    <g style="fill: #ffffff" transform="translate(442.8595 70.541551) scale(0.12 -0.12)">
     <defs>
      <path id="DejaVuSans-2b" d="M 2944 4013 
L 2944 2272 
L 4684 2272 
L 4684 1741 
L 2944 1741 
L 2944 0 
L 2419 0 
L 2419 1741 
L 678 1741 
L 678 2272 
L 2419 2272 
L 2419 4013 
L 2944 4013 
z
" transform="scale(0.015625)"/>
     </defs>
     <use xlink:href="#DejaVuSans-2b"/>
     <use xlink:href="#DejaVuSans-32" x="83.789062"/>
     <use xlink:href="#DejaVuSans-2e" x="147.412109"/>
     <use xlink:href="#DejaVuSans-31" x="179.199219"/>
     <use xlink:href="#DejaVuSans-34" x="242.822266"/>
    </g>
   </g>
   <g id="text_26">
    <!-- +0.9 -->
    <g style="fill: #ffffff" transform="translate(393.522907 106.665484) scale(0.12 -0.12)">
     <use xlink:href="#DejaVuSans-2b"/>
     <use xlink:href="#DejaVuSans-30" x="83.789062"/>
     <use xlink:href="#DejaVuSans-2e" x="147.412109"/>
     <use xlink:href="#DejaVuSans-39" x="179.199219"/>
    </g>
   </g>
   <g id="text_27">
    <!-- +0.69 -->
    <g style="fill: #ffffff" transform="translate(361.813995 142.789417) scale(0.12 -0.12)">
     <use xlink:href="#DejaVuSans-2b"/>
     <use xlink:href="#DejaVuSans-30" x="83.789062"/>
     <use xlink:href="#DejaVuSans-2e" x="147.412109"/>
     <use xlink:href="#DejaVuSans-36" x="179.199219"/>
     <use xlink:href="#DejaVuSans-39" x="242.822266"/>
    </g>
   </g>
   <g id="text_28">
    <!-- +0.44 -->
    <g style="fill: #ff0051" transform="translate(370.830399 178.91335) scale(0.12 -0.12)">
     <use xlink:href="#DejaVuSans-2b"/>
     <use xlink:href="#DejaVuSans-30" x="83.789062"/>
     <use xlink:href="#DejaVuSans-2e" x="147.412109"/>
     <use xlink:href="#DejaVuSans-34" x="179.199219"/>
     <use xlink:href="#DejaVuSans-34" x="242.822266"/>
    </g>
   </g>
   <g id="text_29">
    <!-- +0.43 -->
    <g style="fill: #ff0051" transform="translate(355.477027 215.037283) scale(0.12 -0.12)">
     <use xlink:href="#DejaVuSans-2b"/>
     <use xlink:href="#DejaVuSans-30" x="83.789062"/>
     <use xlink:href="#DejaVuSans-2e" x="147.412109"/>
     <use xlink:href="#DejaVuSans-34" x="179.199219"/>
     <use xlink:href="#DejaVuSans-33" x="242.822266"/>
    </g>
   </g>
   <g id="text_30">
    <!-- +0.42 -->
    <g style="fill: #ff0051" transform="translate(340.338547 251.161217) scale(0.12 -0.12)">
     <use xlink:href="#DejaVuSans-2b"/>
     <use xlink:href="#DejaVuSans-30" x="83.789062"/>
     <use xlink:href="#DejaVuSans-2e" x="147.412109"/>
     <use xlink:href="#DejaVuSans-34" x="179.199219"/>
     <use xlink:href="#DejaVuSans-32" x="242.822266"/>
    </g>
   </g>
   <g id="text_31">
    <!-- +0.39 -->
    <g style="fill: #ff0051" transform="translate(325.538602 287.28515) scale(0.12 -0.12)">
     <use xlink:href="#DejaVuSans-2b"/>
     <use xlink:href="#DejaVuSans-30" x="83.789062"/>
     <use xlink:href="#DejaVuSans-2e" x="147.412109"/>
     <use xlink:href="#DejaVuSans-33" x="179.199219"/>
     <use xlink:href="#DejaVuSans-39" x="242.822266"/>
    </g>
   </g>
   <g id="text_32">
    <!-- +0.34 -->
    <g style="fill: #ff0051" transform="translate(311.959823 323.409083) scale(0.12 -0.12)">
     <use xlink:href="#DejaVuSans-2b"/>
     <use xlink:href="#DejaVuSans-30" x="83.789062"/>
     <use xlink:href="#DejaVuSans-2e" x="147.412109"/>
     <use xlink:href="#DejaVuSans-33" x="179.199219"/>
     <use xlink:href="#DejaVuSans-34" x="242.822266"/>
    </g>
   </g>
   <g id="text_33">
    <!-- +1.26 -->
    <g style="fill: #ffffff" transform="translate(267.787221 395.656949) scale(0.12 -0.12)">
     <use xlink:href="#DejaVuSans-2b"/>
     <use xlink:href="#DejaVuSans-31" x="83.789062"/>
     <use xlink:href="#DejaVuSans-2e" x="147.412109"/>
     <use xlink:href="#DejaVuSans-32" x="179.199219"/>
     <use xlink:href="#DejaVuSans-36" x="242.822266"/>
    </g>
   </g>
   <g id="text_34">
    <!-- 0.31 -->
    <g style="fill: #008bfb" transform="translate(257.735687 359.533016) scale(0.12 -0.12)">
     <defs>
      <path id="DejaVuSans-2212" d="M 678 2272 
L 4684 2272 
L 4684 1741 
L 678 1741 
L 678 2272 
z
" transform="scale(0.015625)"/>
     </defs>
     <use xlink:href="#DejaVuSans-2212"/>
     <use xlink:href="#DejaVuSans-30" x="83.789062"/>
     <use xlink:href="#DejaVuSans-2e" x="147.412109"/>
     <use xlink:href="#DejaVuSans-33" x="179.199219"/>
     <use xlink:href="#DejaVuSans-31" x="242.822266"/>
    </g>
   </g>
  </g>
  <g id="axes_2">
   <g id="matplotlib.axis_3">
    <g id="xtick_5">
     <g id="line2d_26">
      <g>
       <use xlink:href="#ma272e4cc46" x="264.046485" y="424.496" style="stroke: #000000; stroke-width: 0.8"/>
      </g>
     </g>
     <g id="text_35">
      <!--  -->
      <g transform="translate(244.046485 440.614125) scale(0.12 -0.12)"/>
      <!-- $E[f(X)]$ -->
      <g transform="translate(244.046485 454.0515) scale(0.12 -0.12)">
       <defs>
        <path id="DejaVuSans-Oblique-45" d="M 1081 4666 
L 4031 4666 
L 3928 4134 
L 1606 4134 
L 1338 2753 
L 3566 2753 
L 3463 2222 
L 1234 2222 
L 909 531 
L 3284 531 
L 3181 0 
L 172 0 
L 1081 4666 
z
" transform="scale(0.015625)"/>
        <path id="DejaVuSans-5b" d="M 550 4863 
L 1875 4863 
L 1875 4416 
L 1125 4416 
L 1125 -397 
L 1875 -397 
L 1875 -844 
L 550 -844 
L 550 4863 
z
" transform="scale(0.015625)"/>
        <path id="DejaVuSans-Oblique-66" d="M 3059 4863 
L 2969 4384 
L 2419 4384 
Q 2106 4384 1964 4261 
Q 1822 4138 1753 3809 
L 1691 3500 
L 2638 3500 
L 2553 3053 
L 1606 3053 
L 1013 0 
L 434 0 
L 1031 3053 
L 481 3053 
L 563 3500 
L 1113 3500 
L 1159 3744 
Q 1278 4363 1576 4613 
Q 1875 4863 2516 4863 
L 3059 4863 
z
" transform="scale(0.015625)"/>
        <path id="DejaVuSans-28" d="M 1984 4856 
Q 1566 4138 1362 3434 
Q 1159 2731 1159 2009 
Q 1159 1288 1364 580 
Q 1569 -128 1984 -844 
L 1484 -844 
Q 1016 -109 783 600 
Q 550 1309 550 2009 
Q 550 2706 781 3412 
Q 1013 4119 1484 4856 
L 1984 4856 
z
" transform="scale(0.015625)"/>
        <path id="DejaVuSans-Oblique-58" d="M 878 4666 
L 1516 4666 
L 2316 2981 
L 3763 4666 
L 4500 4666 
L 2578 2438 
L 3738 0 
L 3103 0 
L 2163 1966 
L 459 0 
L -275 0 
L 1906 2509 
L 878 4666 
z
" transform="scale(0.015625)"/>
        <path id="DejaVuSans-29" d="M 513 4856 
L 1013 4856 
Q 1481 4119 1714 3412 
Q 1947 2706 1947 2009 
Q 1947 1309 1714 600 
Q 1481 -109 1013 -844 
L 513 -844 
Q 928 -128 1133 580 
Q 1338 1288 1338 2009 
Q 1338 2731 1133 3434 
Q 928 4138 513 4856 
z
" transform="scale(0.015625)"/>
        <path id="DejaVuSans-5d" d="M 1947 4863 
L 1947 -844 
L 622 -844 
L 622 -397 
L 1369 -397 
L 1369 4416 
L 622 4416 
L 622 4863 
L 1947 4863 
z
" transform="scale(0.015625)"/>
       </defs>
       <use xlink:href="#DejaVuSans-Oblique-45" transform="translate(0 0.015625)"/>
       <use xlink:href="#DejaVuSans-5b" transform="translate(63.183594 0.015625)"/>
       <use xlink:href="#DejaVuSans-Oblique-66" transform="translate(102.197266 0.015625)"/>
       <use xlink:href="#DejaVuSans-28" transform="translate(137.402344 0.015625)"/>
       <use xlink:href="#DejaVuSans-Oblique-58" transform="translate(176.416016 0.015625)"/>
       <use xlink:href="#DejaVuSans-29" transform="translate(244.921875 0.015625)"/>
       <use xlink:href="#DejaVuSans-5d" transform="translate(283.935547 0.015625)"/>
      </g>
     </g>
    </g>
    <g id="xtick_6">
     <g id="line2d_27">
      <g>
       <use xlink:href="#ma272e4cc46" x="264.046485" y="424.496" style="stroke: #000000; stroke-width: 0.8"/>
      </g>
     </g>
     <g id="text_36">
      <!--  -->
      <g style="fill: #999999" transform="translate(286.046485 441.614125) scale(0.12 -0.12)"/>
      <!-- $ = 0.236$ -->
      <g style="fill: #999999" transform="translate(286.046485 455.0515) scale(0.12 -0.12)">
       <use xlink:href="#DejaVuSans-3d" transform="translate(19.482422 0.78125)"/>
       <use xlink:href="#DejaVuSans-2212" transform="translate(142.236328 0.78125)"/>
       <use xlink:href="#DejaVuSans-30" transform="translate(245.507812 0.78125)"/>
       <use xlink:href="#DejaVuSans-2e" transform="translate(309.130859 0.78125)"/>
       <use xlink:href="#DejaVuSans-32" transform="translate(335.417969 0.78125)"/>
       <use xlink:href="#DejaVuSans-33" transform="translate(399.041016 0.78125)"/>
       <use xlink:href="#DejaVuSans-36" transform="translate(462.664062 0.78125)"/>
      </g>
     </g>
    </g>
   </g>
   <g id="patch_24">
    <path d="M 261.7 424.496 
L 513.008545 424.496 
" style="fill: none; stroke: #000000; stroke-width: 0.8; stroke-linejoin: miter; stroke-linecap: square"/>
   </g>
  </g>
  <g id="axes_3">
   <g id="matplotlib.axis_4">
    <g id="xtick_7">
     <g id="line2d_28">
      <defs>
       <path id="m7afe9d1384" d="M 0 0 
L 0 -3.5 
" style="stroke: #000000; stroke-width: 0.8"/>
      </defs>
      <g>
       <use xlink:href="#m7afe9d1384" x="498.694987" y="35.08" style="stroke: #000000; stroke-width: 0.8"/>
      </g>
     </g>
     <g id="text_37">
      <!-- $f(x)$ -->
      <g transform="translate(488.694987 24.7525) scale(0.16 -0.16)">
       <defs>
        <path id="DejaVuSans-Oblique-78" d="M 3841 3500 
L 2234 1784 
L 3219 0 
L 2559 0 
L 1819 1388 
L 531 0 
L -166 0 
L 1556 1844 
L 641 3500 
L 1300 3500 
L 1972 2234 
L 3144 3500 
L 3841 3500 
z
" transform="scale(0.015625)"/>
       </defs>
       <use xlink:href="#DejaVuSans-Oblique-66" transform="translate(0 0.015625)"/>
       <use xlink:href="#DejaVuSans-28" transform="translate(35.205078 0.015625)"/>
       <use xlink:href="#DejaVuSans-Oblique-78" transform="translate(74.21875 0.015625)"/>
       <use xlink:href="#DejaVuSans-29" transform="translate(133.398438 0.015625)"/>
      </g>
     </g>
    </g>
    <g id="xtick_8">
     <g id="line2d_29">
      <g>
       <use xlink:href="#m7afe9d1384" x="498.694987" y="35.08" style="stroke: #000000; stroke-width: 0.8"/>
      </g>
     </g>
     <g id="text_38">
      <!-- $ = 6.453$ -->
      <g style="fill: #999999" transform="translate(510.694987 24.7525) scale(0.16 -0.16)">
       <use xlink:href="#DejaVuSans-3d" transform="translate(19.482422 0.78125)"/>
       <use xlink:href="#DejaVuSans-36" transform="translate(122.753906 0.78125)"/>
       <use xlink:href="#DejaVuSans-2e" transform="translate(186.376953 0.78125)"/>
       <use xlink:href="#DejaVuSans-34" transform="translate(218.164062 0.78125)"/>
       <use xlink:href="#DejaVuSans-35" transform="translate(281.787109 0.78125)"/>
       <use xlink:href="#DejaVuSans-33" transform="translate(345.410156 0.78125)"/>
      </g>
     </g>
    </g>
   </g>
   <g id="patch_25">
    <path d="M 261.7 424.496 
L 513.008545 424.496 
" style="fill: none; stroke: #000000; stroke-width: 0.8; stroke-linejoin: miter; stroke-linecap: square"/>
   </g>
  </g>
 </g>
 <defs>
  <clipPath id="pf8e10b2888">
   <rect x="261.7" y="35.08" width="251.308545" height="389.416"/>
  </clipPath>
 </defs>
</svg>
